####
#
# OBJ File Generated by Meshlab
#
####
# Object graspnet_panda_mesh.obj
#
# Vertices: 138
# Faces: 264
#
####
vn 0.000283 -0.000618 -0.852902
v 0.042534 0.010387 0.058532
vn 0.004358 0.439749 0.000537
v 0.066309 0.010401 0.058567
vn 0.001110 -1.519860 0.086849
v 0.053989 -0.008616 0.109728
vn -0.452568 -0.016449 -0.023996
v 0.042583 -0.010449 0.058547
vn -0.927810 -0.033722 -0.049194
v 0.039867 -0.008693 0.108566
vn 0.006256 -0.635525 -0.005887
v 0.065253 -0.010400 0.077437
vn 0.021950 -2.229944 -0.020658
v 0.055103 -0.010495 0.076836
vn 0.005622 -1.510276 -0.002898
v 0.066403 -0.010360 0.058555
vn 0.693241 -0.301822 0.258513
v 0.054274 -0.005840 0.112203
vn 0.014195 1.615067 0.084710
v 0.056102 0.010479 0.077388
vn 0.010953 1.246266 0.065366
v 0.065220 0.010389 0.077588
vn 1.695728 1.634613 0.690921
v 0.053918 0.008841 0.108989
vn -0.013774 -0.006468 1.583141
v 0.054293 0.005278 0.112249
vn -0.061510 -1.092007 0.819811
v 0.039979 -0.006138 0.111978
vn -0.175686 0.001581 -0.000384
v 0.039976 0.008730 0.094565
vn -0.000306 0.720407 1.214589
v 0.054218 0.007778 0.110766
vn -0.000043 0.102520 0.172846
v 0.039909 0.005481 0.112125
vn -0.000007 0.124557 0.074515
v 0.039943 0.008623 0.109353
vn -0.000238 0.000521 -0.719258
v -0.066403 0.010360 0.058555
vn 0.000554 -0.945627 -0.004229
v -0.042534 -0.010387 0.058532
vn 0.000630 -1.075308 -0.004809
v -0.066309 -0.010401 0.058567
vn -0.007630 1.293044 0.074114
v -0.065253 0.010400 0.077437
vn 0.033321 0.654249 0.021157
v -0.042583 0.010449 0.058547
vn -0.001110 1.519860 0.086849
v -0.053989 0.008616 0.109728
vn -0.000880 1.204077 0.068804
v -0.039867 0.008693 0.108566
vn -0.000301 0.412539 0.023574
v -0.055103 0.010495 0.076836
vn 1.754743 0.063778 -0.093040
v -0.039976 -0.008730 0.094565
vn -0.267696 0.000799 0.084274
v -0.065220 -0.010389 0.077588
vn -1.628318 0.004858 0.512618
v -0.054293 -0.005278 0.112249
vn 0.105134 -2.045166 0.065638
v -0.056102 -0.010479 0.077388
vn -0.693241 0.301822 0.258513
v -0.054274 0.005840 0.112203
vn -0.448486 -0.432323 0.182735
v -0.054218 -0.007778 0.110766
vn 0.233310 0.001527 0.008807
v -0.039909 -0.005481 0.112125
vn 2.300929 -0.020702 -0.005027
v -0.039943 -0.008623 0.109353
vn -0.000546 0.173454 0.194461
v -0.039979 0.006138 0.111978
vn 0.000083 -1.445722 0.864891
v -0.053918 -0.008841 0.108989
vn 0.161859 -0.999887 -0.028510
v 0.097908 -0.017510 0.051666
vn -0.000855 0.082226 0.019649
v 0.000559 0.031590 0.006214
vn 0.178148 -1.360719 0.041185
v 0.001987 -0.031598 0.001153
vn 0.090928 -0.107372 -0.030399
v 0.091906 -0.016804 0.006295
vn 0.174669 1.057272 -0.039995
v 0.096802 0.017033 0.030322
vn 0.173605 1.496303 0.090493
v 0.097407 0.017585 0.051985
vn -0.286849 0.173323 0.015926
v -0.100200 0.015551 0.054673
vn -0.068819 0.878839 0.083834
v -0.093692 0.020671 0.043308
vn -0.143651 1.834476 0.174995
v -0.081181 0.025448 0.003501
vn -0.033789 -0.433037 0.046321
v 0.000579 -0.031636 0.005973
vn 0.147966 1.039620 -0.659654
v 0.082966 0.003810 -0.024449
vn 1.435329 1.494044 -0.306099
v 0.091603 0.016956 0.005563
vn -0.093801 0.385070 0.054780
v -0.094602 0.018556 0.056617
vn -0.285493 1.732362 0.118161
v -0.090401 0.023869 0.004368
vn -0.041385 0.154460 0.010923
v -0.093736 0.022708 0.014340
vn -0.005677 0.089006 -0.009464
v 0.001861 0.031616 0.001180
vn -0.010341 0.176486 -0.285417
v -0.074378 0.024817 -0.007156
vn -0.082886 1.414549 -2.287647
v -0.042042 0.028015 -0.006350
vn 0.373849 -2.269726 -0.668420
v 0.082236 -0.016533 -0.005118
vn 2.643373 -0.845187 -0.045204
v 0.103990 -0.000041 0.005691
vn -1.127286 0.039821 1.421727
v -0.092808 -0.000113 0.065962
vn -0.000909 0.806255 2.049281
v -0.090129 0.016735 0.064432
vn 0.000040 -0.535630 0.134819
v 0.090700 -0.017255 0.063082
vn 0.109227 -0.073128 -0.154529
v 0.099451 0.000032 -0.017161
vn 0.004577 1.682629 1.826382
v 0.089271 0.017134 0.063614
vn -0.632074 0.066071 0.601052
v -0.092672 0.013540 0.065688
vn -0.727761 1.715232 0.347313
v -0.099067 0.017129 0.054305
vn -0.865823 0.051505 -1.178649
v -0.088250 0.022314 -0.001933
vn -0.249484 -0.209023 -0.210976
v -0.090927 -0.021325 0.000980
vn 1.353874 -1.771935 -0.136582
v 0.099629 -0.016013 0.049301
vn 0.951313 0.281326 -0.009384
v 0.103743 -0.000017 -0.009199
vn -0.108969 -0.702720 -0.018156
v -0.075770 -0.025981 -0.005082
vn 0.003255 -0.450212 2.131668
v 0.090706 -0.015472 0.065190
vn 0.001418 -0.196110 0.928542
v 0.092496 -0.012988 0.065712
vn 0.619924 0.065147 1.245507
v 0.091927 0.013425 0.065731
vn -1.127386 -0.151882 0.899729
v -0.097471 -0.001617 0.062307
vn -0.224480 -0.003651 -0.008751
v -0.100285 0.016218 0.045870
vn -0.540626 -0.008792 -0.021075
v -0.100168 -0.014623 0.055735
vn 0.224782 0.394055 -0.170744
v 0.101195 0.003602 -0.012628
vn 1.232287 0.492322 -0.396105
v 0.102716 0.003495 -0.008029
vn 1.115946 1.764210 0.872516
v 0.093848 0.017607 0.058448
vn 0.485466 0.133392 0.034134
v 0.099538 0.016230 0.051584
vn 0.724292 0.478734 0.530613
v 0.099416 0.015805 0.054970
vn -0.341488 0.005612 0.237065
v -0.100035 0.009942 0.058341
vn 0.000239 0.028784 -0.052425
v 0.045520 0.001917 -0.025659
vn -0.136284 0.002897 -0.272366
v -0.083355 0.022377 -0.005526
vn -0.450502 0.040436 -1.299261
v -0.077901 0.022959 -0.007399
vn -0.171642 0.079632 -1.251884
v 0.045870 -0.001500 -0.025925
vn -0.004612 -0.053672 -0.036370
v -0.041784 -0.028011 -0.006396
vn -0.910023 -0.015126 -0.181093
v -0.097697 -0.019067 0.024627
vn -0.549243 0.014599 0.018380
v -0.100426 -0.004494 0.058119
vn -0.235810 -0.012349 -0.250539
v -0.086562 -0.000337 -0.004163
vn 0.009963 -0.485376 -1.071517
v 0.083586 -0.003637 -0.024606
vn 0.887521 -1.362270 -0.515911
v 0.087533 -0.016812 -0.001206
vn 0.740922 -0.480897 0.091771
v 0.100091 -0.014017 0.056027
vn 0.268525 -0.289929 -0.065971
v 0.102598 -0.003430 -0.008964
vn 0.937240 0.036995 1.222288
v 0.096656 0.000470 0.063078
vn 0.216566 0.008548 0.282431
v 0.094063 0.013139 0.064683
vn 1.477791 0.030510 0.102260
v 0.100188 0.012506 0.056894
vn 1.439698 0.029723 0.099624
v 0.100301 0.001191 0.058623
vn -0.173663 -0.924358 -0.007373
v -0.091166 -0.023556 0.004608
vn -0.184689 -0.983050 -0.007841
v -0.082065 -0.025270 0.005197
vn 0.745732 0.298285 -1.122385
v 0.087975 -0.000627 -0.024962
vn 0.245245 0.212212 -0.799049
v 0.084002 0.001843 -0.025525
vn 0.287572 0.601716 -0.362855
v 0.085132 0.016558 -0.003873
vn 0.406864 1.147578 0.465486
v 0.091780 0.015718 0.064913
vn 0.079478 0.272032 -0.421069
v 0.087973 0.003076 -0.023979
vn -0.590928 1.285611 0.637817
v -0.092906 0.015397 0.064556
vn -1.424759 0.054978 -0.576706
v -0.094333 0.021343 0.008942
vn -1.811474 1.883693 -0.069965
v -0.097011 0.019802 0.020914
vn -0.088623 0.092156 -0.003423
v -0.098494 0.019269 0.044942
vn -0.081799 0.613044 -0.014271
v -0.075298 0.026034 -0.005031
vn -0.151353 1.134311 -0.026406
v -0.085740 0.024729 -0.001232
vn -1.137603 -0.023922 -1.063181
v -0.090995 -0.000173 0.000577
vn -0.734913 -0.030342 -1.461514
v -0.080260 -0.000834 -0.007322
vn 2.002959 -1.590908 -0.241516
v 0.095525 -0.017054 0.022121
vn 0.617646 -0.223237 -0.232482
v 0.101158 -0.003617 -0.012610
vn 0.992440 -0.117099 0.969331
v 0.099983 -0.009324 0.058489
vn 0.835560 -0.787795 0.599945
v 0.098554 -0.016632 0.054734
vn -0.192004 -0.147323 -0.026201
v -0.095442 -0.021822 0.021756
vn -1.119411 -0.858916 -0.152754
v -0.094668 -0.020658 0.009538
vn -0.417054 0.446748 -0.560376
v -0.081703 0.024515 -0.005051
vn -1.055489 1.054185 -0.620483
v -0.091795 0.021483 0.002684
vn 1.107799 -0.067084 1.407129
v 0.092945 -0.000506 0.065953
vn -0.112974 -0.282577 0.104182
v -0.097261 -0.019229 0.050588
vn -0.803274 -2.009202 0.740764
v -0.092016 -0.018449 0.058393
vn -0.344151 -1.022009 0.391528
v -0.090252 -0.016767 0.064332
vn -0.114138 -0.265987 0.100490
v -0.093209 -0.016046 0.063617
vn -0.388502 -2.157457 0.135426
v -0.092897 -0.023026 0.009877
vn -0.833746 -0.415481 0.661132
v -0.093712 -0.012567 0.065168
vn -0.340997 -0.609131 0.795057
v -0.091276 -0.014422 0.065690
vn -0.365457 -0.734141 -0.638765
v -0.085892 -0.024495 -0.001833
vn -0.095409 -0.191661 -0.166761
v -0.076668 -0.024650 -0.006932
vn -0.095222 -0.174615 -0.177803
v -0.085434 -0.022733 -0.004120
vn -0.881531 -1.616515 -1.646030
v -0.080174 -0.022761 -0.006910
vn -0.175052 -0.066526 0.010371
v -0.099518 -0.018193 0.043814
vn -0.396647 -0.015591 -0.172170
v -0.094615 -0.000314 0.007575
vn -0.793202 -0.665663 0.580186
v -0.099363 -0.016995 0.054115
vn 0.192340 -0.444570 -1.030846
v 0.087766 -0.003215 -0.023884
vn 0.738370 -1.096890 0.612846
v 0.093442 -0.014617 0.064500
vn -0.871659 -0.026050 -0.081533
v -0.098496 -0.000016 0.027082
vn 0.142564 -0.255327 -0.676374
v 0.082548 -0.000868 -0.025870
# 138 vertices, 0 vertices normals

f 8//8 4//4 1//1
f 1//1 10//10 2//2
f 2//2 10//10 11//11
f 4//4 15//15 1//1
f 6//6 11//11 9//9
f 1//1 2//2 8//8
f 3//3 7//7 6//6
f 7//7 5//5 4//4
f 3//3 5//5 7//7
f 18//18 1//1 15//15
f 4//4 5//5 15//15
f 5//5 17//17 15//15
f 6//6 7//7 4//4
f 6//6 4//4 8//8
f 6//6 8//8 11//11
f 11//11 13//13 9//9
f 16//16 13//13 11//11
f 18//18 17//17 16//16
f 1//1 18//18 10//10
f 6//6 9//9 3//3
f 8//8 2//2 11//11
f 10//10 12//12 11//11
f 12//12 16//16 11//11
f 9//9 17//17 14//14
f 13//13 17//17 9//9
f 5//5 14//14 17//17
f 14//14 5//5 3//3
f 17//17 18//18 15//15
f 16//16 17//17 13//13
f 18//18 12//12 10//10
f 14//14 3//3 9//9
f 16//16 12//12 18//18
f 19//19 23//23 20//20
f 20//20 30//30 21//21
f 21//21 30//30 28//28
f 23//23 27//27 20//20
f 22//22 28//28 31//31
f 20//20 21//21 19//19
f 24//24 26//26 22//22
f 26//26 25//25 23//23
f 24//24 25//25 26//26
f 34//34 20//20 27//27
f 23//23 25//25 27//27
f 25//25 33//33 27//27
f 22//22 26//26 23//23
f 22//22 23//23 19//19
f 22//22 19//19 28//28
f 28//28 29//29 31//31
f 32//32 29//29 28//28
f 34//34 33//33 32//32
f 20//20 34//34 30//30
f 22//22 31//31 24//24
f 19//19 21//21 28//28
f 30//30 36//36 28//28
f 36//36 32//32 28//28
f 31//31 33//33 35//35
f 29//29 33//33 31//31
f 25//25 35//35 33//33
f 35//35 25//25 24//24
f 33//33 34//34 27//27
f 32//32 33//33 29//29
f 34//34 36//36 30//30
f 35//35 24//24 31//31
f 32//32 36//36 34//34
f 58//58 61//61 38//38
f 112//112 37//37 39//39
f 68//68 39//39 46//46
f 41//41 52//52 42//42
f 52//52 38//38 42//42
f 49//49 58//58 38//38
f 40//40 39//39 90//90
f 46//46 39//39 37//37
f 112//112 39//39 40//40
f 78//78 56//56 67//67
f 113//113 92//92 40//40
f 98//98 68//68 46//46
f 85//85 39//39 68//68
f 57//57 126//126 127//127
f 59//59 69//69 123//123
f 48//48 52//52 41//41
f 61//61 77//77 38//38
f 77//77 42//42 38//38
f 95//95 56//56 78//78
f 43//43 107//107 73//73
f 81//81 54//54 47//47
f 44//44 38//38 45//45
f 39//39 89//89 55//55
f 59//59 46//46 37//37
f 91//91 66//66 56//56
f 113//113 90//90 135//135
f 57//57 127//127 70//70
f 70//70 120//120 57//57
f 62//62 57//57 120//120
f 120//120 71//71 62//62
f 98//98 46//46 121//121
f 41//41 42//42 78//78
f 47//47 52//52 101//101
f 76//76 48//48 41//41
f 52//52 47//47 54//54
f 49//49 44//44 107//107
f 44//44 49//49 38//38
f 44//44 45//45 50//50
f 44//44 51//51 107//107
f 51//51 44//44 50//50
f 52//52 54//54 108//108
f 52//52 108//108 45//45
f 52//52 45//45 38//38
f 53//53 54//54 81//81
f 84//84 111//111 83//83
f 111//111 84//84 131//131
f 83//83 53//53 81//81
f 89//89 39//39 85//85
f 60//60 113//113 135//135
f 55//55 89//89 135//135
f 90//90 55//55 135//135
f 90//90 39//39 55//55
f 115//115 59//59 37//37
f 60//60 75//75 67//67
f 66//66 115//115 37//37
f 56//56 66//66 67//67
f 72//72 57//57 62//62
f 57//57 72//72 126//126
f 58//58 62//62 102//102
f 71//71 102//102 62//62
f 59//59 122//122 46//46
f 122//122 59//59 123//123
f 122//122 121//121 46//46
f 99//99 60//60 135//135
f 103//103 47//47 101//101
f 102//102 61//61 58//58
f 73//73 107//107 106//106
f 80//80 72//72 62//62
f 107//107 63//63 49//49
f 133//133 137//137 106//106
f 108//108 54//54 53//53
f 88//88 64//64 82//82
f 65//65 130//130 128//128
f 100//100 84//84 81//81
f 84//84 129//129 131//131
f 112//112 66//66 37//37
f 76//76 78//78 67//67
f 60//60 67//67 113//113
f 68//68 98//98 128//128
f 127//127 69//69 70//70
f 123//123 69//69 127//127
f 120//120 94//94 71//71
f 91//91 56//56 114//114
f 86//86 137//137 133//133
f 72//72 87//87 126//126
f 73//73 74//74 87//87
f 101//101 48//48 75//75
f 75//75 48//48 76//76
f 75//75 76//76 67//67
f 102//102 79//79 77//77
f 79//79 95//95 78//78
f 94//94 79//79 102//102
f 79//79 94//94 95//95
f 41//41 78//78 76//76
f 79//79 78//78 42//42
f 42//42 77//77 79//79
f 87//87 72//72 80//80
f 81//81 47//47 100//100
f 133//133 106//106 105//105
f 137//137 73//73 106//106
f 131//131 130//130 88//88
f 64//64 110//110 119//119
f 88//88 82//82 111//111
f 111//111 82//82 83//83
f 81//81 84//84 83//83
f 85//85 129//129 84//84
f 85//85 68//68 129//129
f 118//118 64//64 109//109
f 89//89 85//85 84//84
f 117//117 86//86 133//133
f 74//74 126//126 87//87
f 48//48 101//101 52//52
f 96//96 94//94 93//93
f 43//43 73//73 80//80
f 80//80 73//73 87//87
f 50//50 105//105 51//51
f 63//63 107//107 43//43
f 62//62 104//104 80//80
f 104//104 43//43 80//80
f 104//104 49//49 63//63
f 130//130 65//65 88//88
f 109//109 108//108 118//118
f 105//105 50//50 119//119
f 65//65 133//133 110//110
f 110//110 133//133 119//119
f 138//138 84//84 100//100
f 89//89 84//84 138//138
f 90//90 113//113 40//40
f 66//66 91//91 115//115
f 92//92 67//67 66//66
f 92//92 112//112 40//40
f 120//120 93//93 94//94
f 96//96 93//93 114//114
f 56//56 95//95 96//96
f 96//96 114//114 56//56
f 97//97 128//128 98//98
f 103//103 60//60 99//99
f 99//99 100//100 103//103
f 60//60 103//103 75//75
f 101//101 75//75 103//103
f 61//61 102//102 77//77
f 94//94 102//102 71//71
f 94//94 96//96 95//95
f 100//100 47//47 103//103
f 104//104 63//63 43//43
f 104//104 62//62 58//58
f 49//49 104//104 58//58
f 133//133 105//105 119//119
f 106//106 51//51 105//105
f 51//51 106//106 107//107
f 83//83 118//118 53//53
f 108//108 109//109 45//45
f 109//109 50//50 45//45
f 65//65 110//110 88//88
f 88//88 110//110 64//64
f 111//111 131//131 88//88
f 66//66 112//112 92//92
f 92//92 113//113 67//67
f 136//136 114//114 70//70
f 114//114 93//93 70//70
f 91//91 136//136 115//115
f 69//69 136//136 70//70
f 125//125 116//116 117//117
f 132//132 73//73 137//137
f 74//74 73//73 132//132
f 97//97 65//65 128//128
f 138//138 100//100 99//99
f 64//64 118//118 82//82
f 108//108 53//53 118//118
f 64//64 119//119 50//50
f 109//109 64//64 50//50
f 91//91 114//114 136//136
f 70//70 93//93 120//120
f 59//59 136//136 69//69
f 124//124 121//121 122//122
f 122//122 123//123 124//124
f 134//134 121//121 124//124
f 97//97 125//125 117//117
f 121//121 116//116 98//98
f 116//116 125//125 98//98
f 125//125 97//97 98//98
f 97//97 117//117 65//65
f 74//74 124//124 126//126
f 123//123 127//127 124//124
f 118//118 83//83 82//82
f 128//128 130//130 129//129
f 129//129 130//130 131//131
f 129//129 68//68 128//128
f 134//134 74//74 132//132
f 117//117 116//116 86//86
f 121//121 132//132 116//116
f 132//132 121//121 134//134
f 65//65 117//117 133//133
f 74//74 134//134 124//124
f 127//127 126//126 124//124
f 135//135 138//138 99//99
f 59//59 115//115 136//136
f 86//86 132//132 137//137
f 135//135 89//89 138//138
f 132//132 86//86 116//116
# 264 faces, 0 coords texture

# End of File