####
#
# OBJ File Generated by Meshlab
#
####
# Object train_gripper.obj
#
# Vertices: 102
# Faces: 200
#
####
vn -0.000602 0.562379 0.142559
v -0.090129 0.016735 0.064432
vn -0.002043 1.907724 0.483595
v 0.000559 0.031590 0.006214
vn -0.095410 -1.363877 -0.038735
v 0.001987 -0.031598 0.001153
vn 0.170716 1.048545 -0.031482
v 0.097407 0.017585 0.051985
vn 0.187103 -1.116296 -0.060381
v 0.095525 -0.017054 0.022121
vn 0.304763 -1.818281 -0.098352
v 0.091906 -0.016804 0.006295
vn -0.044475 -0.008165 0.178782
v -0.092808 -0.000113 0.065962
vn -0.512754 -0.094138 2.061209
v -0.093712 -0.012567 0.065168
vn 0.296884 1.797037 -0.067979
v 0.091603 0.016956 0.005563
vn 0.111275 1.687855 0.253090
v 0.089271 0.017134 0.063614
vn 0.124151 -0.907845 -0.592149
v 0.083586 -0.003637 -0.024606
vn 0.161188 -1.552299 0.136536
v 0.090700 -0.017255 0.063082
vn 0.012845 -0.123698 0.010880
v 0.000579 -0.031636 0.005973
vn 0.079670 -0.020279 0.000540
v 0.103990 -0.000041 0.005691
vn 0.268812 -0.571099 -0.339654
v 0.087533 -0.016812 -0.001206
vn 0.062789 0.099995 -0.004301
v 0.096802 0.017033 0.030322
vn 0.010242 0.151853 -0.132338
v 0.082966 0.003810 -0.024449
vn 0.020959 0.310769 -0.270831
v -0.042042 0.028015 -0.006350
vn -0.188258 1.142341 0.077917
v -0.081181 0.025448 0.003501
vn -0.285493 1.732362 0.118161
v -0.090401 0.023869 0.004368
vn -0.491585 1.834744 0.129753
v -0.093692 0.020671 0.043308
vn -0.096057 1.286423 -0.018207
v 0.001861 0.031616 0.001180
vn -0.003540 0.060411 -0.097698
v 0.045520 0.001917 -0.025659
vn -0.228387 -0.029979 -1.547400
v -0.080260 -0.000834 -0.007322
vn -0.024895 -0.003268 -0.168670
v 0.045870 -0.001500 -0.025925
vn -0.061739 0.202314 -0.650420
v -0.077901 0.022959 -0.007399
vn -0.220002 0.720935 -2.317729
v -0.074378 0.024817 -0.007156
vn 0.373849 -2.269726 -0.668420
v 0.082236 -0.016533 -0.005118
vn 0.564362 0.109826 -0.303500
v 0.099451 0.000032 -0.017161
vn 1.546543 0.300961 -0.831693
v 0.101195 0.003602 -0.012628
vn 0.387161 -0.395182 0.031558
v 0.098554 -0.016632 0.054734
vn 1.424582 -1.454097 0.116119
v 0.097908 -0.017510 0.051666
vn -0.592079 0.020915 0.746726
v -0.097471 -0.001617 0.062307
vn -0.000020 0.544224 1.524496
v 0.091780 0.015718 0.064913
vn -0.000000 0.004440 0.012438
v -0.092672 0.013540 0.065688
vn 0.000041 -0.538089 0.135438
v -0.092016 -0.018449 0.058393
vn 0.795919 -0.532871 -1.126027
v 0.087766 -0.003215 -0.023884
vn 0.035899 0.173463 -0.111245
v 0.085132 0.016558 -0.003873
vn -0.976860 0.559189 -0.047863
v -0.100285 0.016218 0.045870
vn -1.627867 0.931847 -0.079760
v -0.098494 0.019269 0.044942
vn -1.101224 0.115111 1.047177
v -0.100035 0.009942 0.058341
vn 0.000326 0.006973 -0.089377
v 0.084002 0.001843 -0.025525
vn 2.010629 0.594591 -0.019833
v 0.102716 0.003495 -0.008029
vn -0.210168 -1.355331 -0.035017
v -0.085892 -0.024495 -0.001833
vn 1.257513 -0.019230 0.092057
v 0.099983 -0.009324 0.058489
vn -1.394647 -0.022788 -0.277100
v -0.098496 -0.000016 0.027082
vn 0.724292 0.478734 0.530613
v 0.099416 0.015805 0.054970
vn 1.269659 0.839203 0.930146
v 0.100188 0.012506 0.056894
vn 0.247186 0.178907 -0.025042
v 0.099538 0.016230 0.051584
vn 0.243227 0.496310 0.132245
v 0.093848 0.017607 0.058448
vn -0.846944 0.013918 0.587959
v -0.100426 -0.004494 0.058119
vn -0.520923 0.014031 -0.114716
v -0.094615 -0.000314 0.007575
vn -1.468884 0.039565 -0.323474
v -0.094333 0.021343 0.008942
vn -0.593220 -0.032001 -1.118417
v -0.080174 -0.022761 -0.006910
vn -0.758422 -0.040913 -1.429877
v -0.085434 -0.022733 -0.004120
vn -1.008290 0.037436 -0.767321
v -0.088250 0.022314 -0.001933
vn -0.666359 0.014163 -1.331732
v -0.086562 -0.000337 -0.004163
vn -0.498172 0.044715 -1.436740
v -0.083355 0.022377 -0.005526
vn -0.097472 -1.380209 -2.311207
v -0.041784 -0.028011 -0.006396
vn -0.138280 -1.609198 -1.090446
v -0.075770 -0.025981 -0.005082
vn 1.278442 0.126551 1.066596
v 0.096656 0.000470 0.063078
vn -0.181549 0.307266 0.161055
v -0.092906 0.015397 0.064556
vn -0.955484 1.617127 0.847625
v -0.094602 0.018556 0.056617
vn -0.319622 0.540951 0.283542
v -0.099067 0.017129 0.054305
vn -0.080506 0.340843 -0.104212
v -0.075298 0.026034 -0.005031
vn -0.918792 0.787041 -0.355051
v -0.091795 0.021483 0.002684
vn -1.365336 -0.017864 -0.706708
v -0.090995 -0.000173 0.000577
vn 0.015957 -0.777436 -1.716269
v 0.082548 -0.000868 -0.025870
vn 0.397967 -0.258301 0.049293
v 0.099629 -0.016013 0.049301
vn 0.268525 -0.289929 -0.065971
v 0.102598 -0.003430 -0.008964
vn 1.115101 -0.045344 0.905121
v 0.100301 0.001191 0.058623
vn 0.342689 0.296531 -1.116537
v 0.087973 0.003076 -0.023979
vn 0.354089 0.255460 0.651841
v 0.094063 0.013139 0.064683
vn 0.717647 0.517751 1.321112
v 0.091927 0.013425 0.065731
vn -0.903929 0.806766 0.679677
v -0.100200 0.015551 0.054673
vn -0.257547 0.225688 -0.028568
v -0.097011 0.019802 0.020914
vn -0.276732 0.287765 -0.010688
v -0.093736 0.022708 0.014340
vn -0.151353 1.134311 -0.026406
v -0.085740 0.024729 -0.001232
vn 0.617646 -0.223237 -0.232482
v 0.101158 -0.003617 -0.012610
vn 0.685193 -0.247650 -0.257907
v 0.103743 -0.000017 -0.009199
vn 0.830022 -0.114772 0.802153
v 0.092496 -0.012988 0.065712
vn -1.550240 -0.030052 -0.075566
v -0.100168 -0.014623 0.055735
vn 0.944020 -0.353712 0.715794
v 0.100091 -0.014017 0.056027
vn 1.107799 -0.067084 1.407129
v 0.092945 -0.000506 0.065953
vn 0.278609 -0.530240 0.447665
v 0.093442 -0.014617 0.064500
vn 0.589165 -1.121282 0.946663
v 0.090706 -0.015472 0.065190
vn -0.446211 -1.325093 0.507638
v -0.093209 -0.016046 0.063617
vn -1.331751 -1.043416 -0.332508
v -0.092897 -0.023026 0.009877
vn -0.086937 -0.455547 0.017243
v -0.082065 -0.025270 0.005197
vn -1.676218 -0.897903 -0.662707
v -0.091166 -0.023556 0.004608
vn -0.368679 -0.658579 0.859597
v -0.090252 -0.016767 0.064332
vn -0.340997 -0.609131 0.795057
v -0.091276 -0.014422 0.065690
vn -0.570727 0.757781 -1.426389
v -0.081703 0.024515 -0.005051
vn -0.095409 -0.191661 -0.166761
v -0.076668 -0.024650 -0.006932
vn -1.814508 -1.242187 -0.233303
v -0.095442 -0.021822 0.021756
vn -0.566984 -0.388150 -0.072901
v -0.097697 -0.019067 0.024627
vn -0.257987 -0.304804 0.039328
v -0.099518 -0.018193 0.043814
vn -1.345786 -1.590007 0.205153
v -0.097261 -0.019229 0.050588
vn -0.416090 -0.491599 0.063429
v -0.099363 -0.016995 0.054115
vn -1.059727 -0.041655 -0.459987
v -0.090927 -0.021325 0.000980
vn -1.423574 -0.055956 -0.617919
v -0.094668 -0.020658 0.009538
vn 0.256778 -0.593509 -1.376199
v 0.087975 -0.000627 -0.024962
# 102 vertices, 0 vertices normals

f 1//1 10//10 2//2
f 5//5 32//32 3//3
f 60//60 3//3 13//13
f 16//16 22//22 4//4
f 22//22 2//2 4//4
f 63//63 1//1 2//2
f 6//6 3//3 15//15
f 13//13 3//3 32//32
f 5//5 3//3 6//6
f 49//49 14//14 80//80
f 79//79 70//70 6//6
f 89//89 60//60 13//13
f 59//59 3//3 60//60
f 7//7 8//8 92//92
f 12//12 86//86 91//91
f 9//9 22//22 16//16
f 10//10 50//50 2//2
f 50//50 4//4 2//2
f 48//48 14//14 49//49
f 75//75 40//40 39//39
f 23//23 18//18 17//17
f 21//21 2//2 19//19
f 3//3 11//11 28//28
f 12//12 13//13 32//32
f 83//83 69//69 14//14
f 79//79 15//15 37//37
f 7//7 92//92 81//81
f 81//81 84//84 7//7
f 35//35 7//7 84//84
f 84//84 74//74 35//35
f 89//89 13//13 98//98
f 16//16 4//4 49//49
f 17//17 22//22 38//38
f 43//43 9//9 16//16
f 22//22 17//17 18//18
f 63//63 21//21 40//40
f 21//21 63//63 2//2
f 21//21 19//19 20//20
f 21//21 77//77 40//40
f 77//77 21//21 20//20
f 22//22 18//18 65//65
f 22//22 65//65 19//19
f 22//22 19//19 2//2
f 27//27 18//18 23//23
f 25//25 24//24 26//26
f 24//24 25//25 54//54
f 26//26 27//27 23//23
f 11//11 3//3 59//59
f 29//29 79//79 37//37
f 28//28 11//11 37//37
f 15//15 28//28 37//37
f 15//15 3//3 28//28
f 31//31 12//12 32//32
f 29//29 30//30 80//80
f 69//69 31//31 32//32
f 14//14 69//69 80//80
f 33//33 7//7 35//35
f 7//7 33//33 8//8
f 1//1 35//35 34//34
f 74//74 34//34 35//35
f 12//12 36//36 13//13
f 36//36 12//12 91//91
f 36//36 98//98 13//13
f 102//102 29//29 37//37
f 72//72 17//17 38//38
f 34//34 10//10 1//1
f 39//39 40//40 76//76
f 41//41 33//33 35//35
f 40//40 64//64 63//63
f 52//52 46//46 76//76
f 65//65 18//18 27//27
f 57//57 56//56 58//58
f 100//100 55//55 44//44
f 42//42 25//25 23//23
f 25//25 94//94 54//54
f 5//5 69//69 32//32
f 43//43 49//49 80//80
f 29//29 80//80 79//79
f 60//60 89//89 44//44
f 92//92 86//86 81//81
f 91//91 86//86 92//92
f 84//84 73//73 74//74
f 83//83 14//14 45//45
f 96//96 46//46 52//52
f 33//33 51//51 8//8
f 39//39 82//82 51//51
f 38//38 9//9 30//30
f 30//30 9//9 43//43
f 30//30 43//43 80//80
f 34//34 47//47 50//50
f 47//47 48//48 49//49
f 73//73 47//47 34//34
f 47//47 73//73 48//48
f 16//16 49//49 43//43
f 47//47 49//49 4//4
f 4//4 50//50 47//47
f 51//51 33//33 41//41
f 23//23 17//17 42//42
f 52//52 76//76 53//53
f 46//46 39//39 76//76
f 54//54 55//55 57//57
f 56//56 67//67 66//66
f 57//57 58//58 24//24
f 24//24 58//58 26//26
f 23//23 25//25 26//26
f 59//59 94//94 25//25
f 59//59 60//60 94//94
f 93//93 56//56 78//78
f 11//11 59//59 25//25
f 101//101 96//96 52//52
f 82//82 8//8 51//51
f 9//9 38//38 22//22
f 71//71 73//73 61//61
f 75//75 39//39 41//41
f 41//41 39//39 51//51
f 20//20 53//53 77//77
f 64//64 40//40 75//75
f 35//35 62//62 41//41
f 62//62 75//75 41//41
f 62//62 63//63 64//64
f 55//55 100//100 57//57
f 78//78 65//65 93//93
f 53//53 20//20 66//66
f 100//100 52//52 67//67
f 67//67 52//52 66//66
f 68//68 25//25 42//42
f 11//11 25//25 68//68
f 15//15 79//79 6//6
f 69//69 83//83 31//31
f 70//70 80//80 69//69
f 70//70 5//5 6//6
f 84//84 61//61 73//73
f 71//71 61//61 45//45
f 14//14 48//48 71//71
f 71//71 45//45 14//14
f 90//90 44//44 89//89
f 72//72 29//29 102//102
f 102//102 42//42 72//72
f 29//29 72//72 30//30
f 38//38 30//30 72//72
f 10//10 34//34 50//50
f 73//73 34//34 74//74
f 73//73 71//71 48//48
f 42//42 17//17 72//72
f 62//62 64//64 75//75
f 62//62 35//35 1//1
f 63//63 62//62 1//1
f 52//52 53//53 66//66
f 76//76 77//77 53//53
f 77//77 76//76 40//40
f 26//26 93//93 27//27
f 65//65 78//78 19//19
f 78//78 20//20 19//19
f 100//100 67//67 57//57
f 57//57 67//67 56//56
f 24//24 54//54 57//57
f 69//69 5//5 70//70
f 70//70 79//79 80//80
f 85//85 45//45 81//81
f 45//45 61//61 81//81
f 83//83 85//85 31//31
f 86//86 85//85 81//81
f 88//88 95//95 101//101
f 97//97 39//39 46//46
f 82//82 39//39 97//97
f 90//90 100//100 44//44
f 68//68 42//42 102//102
f 56//56 93//93 58//58
f 65//65 27//27 93//93
f 56//56 66//66 20//20
f 78//78 56//56 20//20
f 83//83 45//45 85//85
f 81//81 61//61 84//84
f 12//12 85//85 86//86
f 87//87 98//98 36//36
f 36//36 91//91 87//87
f 99//99 98//98 87//87
f 90//90 88//88 101//101
f 98//98 95//95 89//89
f 95//95 88//88 89//89
f 88//88 90//90 89//89
f 90//90 101//101 100//100
f 82//82 87//87 8//8
f 91//91 92//92 87//87
f 93//93 26//26 58//58
f 44//44 55//55 94//94
f 94//94 55//55 54//54
f 94//94 60//60 44//44
f 99//99 82//82 97//97
f 101//101 95//95 96//96
f 98//98 97//97 95//95
f 97//97 98//98 99//99
f 100//100 101//101 52//52
f 82//82 99//99 87//87
f 92//92 8//8 87//87
f 37//37 68//68 102//102
f 12//12 31//31 85//85
f 96//96 97//97 46//46
f 37//37 11//11 68//68
f 97//97 96//96 95//95
# 200 faces, 0 coords texture

# End of File