####
#
# OBJ File Generated by Meshlab
#
####
# Object hand_gripper_flipped.obj
#
# Vertices: 109
# Faces: 214
#
####
vn 5.404009 -2.196047 1.565696
v 0.016558 -0.003873 0.085132 0.749020 0.749020 0.749020
vn -4.463281 -1.073414 -3.113682
v -0.023556 0.004608 -0.091166 0.749020 0.749020 0.749020
vn -5.621538 -1.727595 -0.789174
v -0.025981 -0.005082 -0.075770 0.749020 0.749020 0.749020
vn -2.105891 -4.268874 -3.076895
v -0.022733 -0.004120 -0.085434 0.749020 0.749020 0.749020
vn -1.719946 -3.071877 -4.530940
v -0.021325 0.000980 -0.090927 0.749020 0.749020 0.749020
vn -1.815441 -5.083654 -1.893519
v -0.022761 -0.006910 -0.080174 0.749020 0.749020 0.749020
vn -4.732018 -1.963357 -2.314426
v -0.024495 -0.001833 -0.085892 0.749020 0.749020 0.749020
vn -3.329872 -4.453472 -1.029841
v -0.024650 -0.006932 -0.076668 0.749020 0.749020 0.749020
vn 4.767893 -3.002299 -0.253264
v 0.028015 -0.006350 -0.042042 0.749020 0.749020 0.749020
vn -6.181827 0.489640 0.068758
v -0.031636 0.005973 0.000579 0.749020 0.749020 0.749020
vn -5.460188 3.068622 0.028367
v -0.008623 0.111882 -0.033323 0.749020 0.749020 0.749020
vn -5.416562 1.800805 1.691738
v -0.017255 0.063082 0.090700 0.749020 0.749020 0.749020
vn 1.930171 -5.668326 -0.264933
v 0.001917 -0.025659 0.045520 0.749020 0.749020 0.749020
vn 4.098356 -4.403510 0.584769
v 0.003810 -0.024449 0.082966 0.749020 0.749020 0.749020
vn 3.125613 -4.232303 2.046420
v 0.003076 -0.023979 0.087973 0.749020 0.749020 0.749020
vn 1.795887 -5.675615 0.748152
v 0.001843 -0.025525 0.084002 0.749020 0.749020 0.749020
vn -5.334661 0.330052 2.472998
v -0.017510 0.051666 0.097908 0.749020 0.749020 0.749020
vn -4.409106 1.405238 3.511634
v -0.016632 0.054734 0.098554 0.749020 0.749020 0.749020
vn -0.014344 -1.260308 5.473115
v -0.000017 -0.009199 0.103743 0.749020 0.749020 0.749020
vn -3.276835 -0.072350 4.928498
v -0.016013 0.049301 0.099629 0.749020 0.749020 0.749020
vn 3.115019 -2.509578 3.946792
v 0.003602 -0.012628 0.101195 0.749020 0.749020 0.749020
vn -4.726466 -3.023452 -0.267020
v -0.028011 -0.006396 -0.041784 0.749020 0.749020 0.749020
vn -0.918530 -5.907595 0.397178
v -0.000868 -0.025870 0.082548 0.749020 0.749020 0.749020
vn -1.475663 -5.659359 -0.242091
v -0.001500 -0.025925 0.045870 0.749020 0.749020 0.749020
vn -3.063518 -1.101958 4.970579
v -0.003430 -0.008964 0.102598 0.749020 0.749020 0.749020
vn -5.039922 -0.455813 2.932111
v -0.017054 0.022121 0.095525 0.749020 0.749020 0.749020
vn -6.201014 0.262659 -0.798886
v -0.025270 0.005197 -0.082065 0.749020 0.749020 0.749020
vn -4.922119 -0.324941 -3.044175
v -0.023026 0.009877 -0.092897 0.749020 0.749020 0.749020
vn -1.846957 -1.426220 -5.368663
v -0.020658 0.009538 -0.094668 0.749020 0.749020 0.749020
vn 2.339715 -1.339358 -4.961367
v 0.021343 0.008942 -0.094333 0.749020 0.749020 0.749020
vn 1.939863 -2.602623 -4.776813
v 0.021483 0.002684 -0.091795 0.749020 0.749020 0.749020
vn 0.001984 -3.588691 -5.075887
v -0.000173 0.000577 -0.090995 0.749020 0.749020 0.749020
vn -0.018992 -4.944762 -3.696941
v -0.000337 -0.004163 -0.086562 0.749020 0.749020 0.749020
vn -0.023652 -5.906972 -1.862131
v -0.000834 -0.007322 -0.080260 0.749020 0.749020 0.749020
vn -5.604258 2.280623 -1.573503
v -0.016767 0.064332 -0.090252 0.749020 0.749020 0.749020
vn -5.848979 1.556907 -1.167233
v -0.018449 0.058393 -0.092016 0.749020 0.749020 0.749020
vn -5.559573 2.331893 -0.764010
v -0.008841 0.111518 -0.047298 0.749020 0.749020 0.749020
vn 4.948631 -0.379169 2.917719
v 0.017033 0.030322 0.096802 0.749020 0.749020 0.749020
vn 5.272617 -0.953377 2.535197
v 0.016956 0.005563 0.091603 0.749020 0.749020 0.749020
vn 3.055938 -0.916058 5.047512
v 0.003495 -0.008029 0.102716 0.749020 0.749020 0.749020
vn 5.445521 2.430841 -1.782606
v 0.016735 0.064432 -0.090129 0.749020 0.749020 0.749020
vn 1.344322 4.139531 -4.461942
v 0.013540 0.065688 -0.092672 0.749020 0.749020 0.749020
vn 5.477949 -1.813629 0.313088
v 0.031616 0.001180 0.001861 0.749020 0.749020 0.749020
vn -0.044271 -0.047744 5.984294
v -0.000041 0.005691 0.103990 0.749020 0.749020 0.749020
vn 3.348465 0.178158 4.634720
v 0.016230 0.051584 0.099538 0.749020 0.749020 0.749020
vn 5.631732 0.396948 2.148919
v 0.017585 0.051985 0.097407 0.749020 0.749020 0.749020
vn -3.681365 -4.577591 0.745573
v -0.003637 -0.024606 0.083586 0.749020 0.749020 0.749020
vn -0.514595 -5.197467 2.215904
v -0.000627 -0.024962 0.087975 0.749020 0.749020 0.749020
vn -0.004486 -3.638998 3.560360
v 0.000032 -0.017161 0.099451 0.749020 0.749020 0.749020
vn -5.447324 -1.743005 1.930929
v -0.016812 -0.001206 0.087533 0.749020 0.749020 0.749020
vn -5.326958 -0.907155 2.570573
v -0.016804 0.006295 0.091906 0.749020 0.749020 0.749020
vn -3.149581 -2.565366 3.915506
v -0.003617 -0.012610 0.101158 0.749020 0.749020 0.749020
vn -3.509304 -4.169977 1.978530
v -0.003215 -0.023884 0.087766 0.749020 0.749020 0.749020
vn -5.447198 -2.652845 1.204080
v -0.016533 -0.005118 0.082236 0.749020 0.749020 0.749020
vn -5.481772 -1.841023 0.326575
v -0.031597 0.001153 0.001987 0.749020 0.749020 0.749020
vn -0.001510 -2.048330 -5.865093
v -0.000314 0.007575 -0.094615 0.749020 0.749020 0.749020
vn 2.257443 -0.658095 -5.262693
v 0.019802 0.020914 -0.097011 0.749020 0.749020 0.749020
vn -0.309709 1.853575 -5.541230
v -0.004494 0.058119 -0.100426 0.749020 0.749020 0.749020
vn 0.755459 2.441592 -5.247948
v 0.009942 0.058341 -0.100035 0.749020 0.749020 0.749020
vn -0.073342 3.997487 -4.789099
v -0.001617 0.062307 -0.097471 0.749020 0.749020 0.749020
vn -1.462071 3.981533 -4.480792
v -0.012567 0.065168 -0.093713 0.749020 0.749020 0.749020
vn -3.878112 2.984332 -3.157692
v -0.016046 0.063617 -0.093209 0.749020 0.749020 0.749020
vn 6.216242 0.245045 -0.735303
v 0.025448 0.003501 -0.081180 0.749020 0.749020 0.749020
vn 6.120354 0.702271 -0.986895
v 0.020671 0.043308 -0.093692 0.749020 0.749020 0.749020
vn 5.155574 -0.069092 -2.838833
v 0.022708 0.014340 -0.093736 0.749020 0.749020 0.749020
vn 4.995335 -0.905981 -2.735762
v 0.023869 0.004368 -0.090401 0.749020 0.749020 0.749020
vn 4.232940 -3.453557 -1.905662
v 0.024515 -0.005051 -0.081703 0.749020 0.749020 0.749020
vn 2.150797 -3.530150 -3.799151
v 0.022314 -0.001933 -0.088250 0.749020 0.749020 0.749020
vn 5.140047 -1.652483 -2.133895
v 0.024729 -0.001232 -0.085740 0.749020 0.749020 0.749020
vn 1.576485 -4.963195 -2.775732
v 0.022377 -0.005526 -0.083355 0.749020 0.749020 0.749020
vn 5.661301 -1.715979 -0.759282
v 0.026034 -0.005031 -0.075298 0.749020 0.749020 0.749020
vn 3.609301 -4.548373 -0.691436
v 0.024817 -0.007156 -0.074378 0.749020 0.749020 0.749020
vn 1.693512 -5.501836 -1.420775
v 0.022959 -0.007399 -0.077901 0.749020 0.749020 0.749020
vn 5.839783 1.690599 1.068274
v 0.017134 0.063614 0.089271 0.749020 0.749020 0.749020
vn 6.182970 0.541222 0.068681
v 0.031590 0.006214 0.000559 0.749020 0.749020 0.749020
vn 5.562792 1.463814 1.770433
v 0.017607 0.058448 0.093848 0.749020 0.749020 0.749020
vn 5.523664 2.328761 0.910091
v 0.008428 0.109564 0.055371 0.749020 0.749020 0.749020
vn -1.965290 1.663508 5.019608
v -0.014017 0.056027 0.100091 0.749020 0.749020 0.749020
vn -2.695001 -0.048381 -4.770466
v -0.018193 0.043814 -0.099518 0.749020 0.749020 0.749020
vn -1.540083 1.662413 -5.097763
v -0.014623 0.055735 -0.100168 0.749020 0.749020 0.749020
vn 1.550674 -0.145111 -5.787153
v 0.016218 0.045870 -0.100285 0.749020 0.749020 0.749020
vn -0.018097 -0.876525 -6.207037
v -0.000016 0.027082 -0.098496 0.749020 0.749020 0.749020
vn -1.869778 -0.668158 -5.594723
v -0.019067 0.024627 -0.097697 0.749020 0.749020 0.749020
vn -3.701415 1.427915 -4.057768
v -0.016995 0.054115 -0.099363 0.749020 0.749020 0.749020
vn -4.847973 -0.057314 -3.077443
v -0.021822 0.021756 -0.095442 0.749020 0.749020 0.749020
vn -5.434836 0.904228 -2.190642
v -0.019229 0.050588 -0.097261 0.749020 0.749020 0.749020
vn 4.353826 1.580622 -3.661035
v 0.017129 0.054305 -0.099067 0.749020 0.749020 0.749020
vn 4.545667 0.342565 -3.450875
v 0.019269 0.044942 -0.098494 0.749020 0.749020 0.749020
vn 5.556068 1.685252 -1.628482
v 0.018556 0.056617 -0.094602 0.749020 0.749020 0.749020
vn 1.980273 1.445276 -5.028529
v 0.015551 0.054673 -0.100200 0.749020 0.749020 0.749020
vn 3.443494 3.254205 -3.471415
v 0.015397 0.064556 -0.092906 0.749020 0.749020 0.749020
vn 4.611240 2.975044 -1.174681
v 0.008616 0.112257 -0.047369 0.749020 0.749020 0.749020
vn 1.315954 2.009712 5.213603
v 0.012506 0.056894 0.100188 0.749020 0.749020 0.749020
vn 4.348486 2.891634 3.009059
v 0.015718 0.064913 0.091780 0.749020 0.749020 0.749020
vn 3.367543 1.409205 4.227413
v 0.015805 0.054970 0.099416 0.749020 0.749020 0.749020
vn -3.073462 3.309291 3.870693
v -0.014617 0.064500 0.093442 0.749020 0.749020 0.749020
vn -4.525615 2.907226 1.361527
v -0.009029 0.110319 0.055289 0.749020 0.749020 0.749020
vn 1.984178 3.627007 4.464511
v 0.013139 0.064683 0.094063 0.749020 0.749020 0.749020
vn 3.565039 3.766214 1.828013
v 0.007364 0.111344 0.055648 0.749020 0.749020 0.749020
vn -0.059483 3.980703 4.858263
v 0.000470 0.063078 0.096656 0.749020 0.749020 0.749020
vn -0.664736 2.431068 5.357916
v -0.009324 0.058489 0.099983 0.749020 0.749020 0.749020
vn 0.095928 2.241738 5.492411
v 0.001191 0.058623 0.100301 0.749020 0.749020 0.749020
vn -1.729898 5.733057 0.086376
v -0.005481 0.114653 -0.033289 0.749020 0.749020 0.749020
vn 1.186851 4.639482 2.110309
v 0.004865 0.112830 0.055689 0.749020 0.749020 0.749020
vn -1.597630 4.332155 1.942200
v -0.006253 0.112794 0.055577 0.749020 0.749020 0.749020
vn -3.659159 3.863001 -1.616530
v -0.007778 0.113295 -0.047598 0.749020 0.749020 0.749020
vn -1.228010 4.775885 -1.909396
v -0.005278 0.114778 -0.047673 0.749020 0.749020 0.749020
vn 2.288873 5.330645 0.096637
v 0.006138 0.114506 -0.033359 0.749020 0.749020 0.749020
vn 1.610987 4.466856 -1.767030
v 0.005840 0.114732 -0.047654 0.749020 0.749020 0.749020
# 109 vertices, 0 vertices normals

f 12//12 97//97 10//10
f 10//10 17//17 12//12
f 21//21 15//15 1//1
f 3//3 55//55 10//10
f 22//22 55//55 3//3
f 55//55 17//17 10//10
f 17//17 55//55 26//26
f 29//29 83//83 56//56
f 32//32 33//33 5//5
f 29//29 56//56 5//5
f 32//32 5//5 56//56
f 30//30 31//31 56//56
f 56//56 31//31 32//32
f 13//13 24//24 73//73
f 24//24 13//13 23//23
f 86//86 10//10 36//36
f 36//36 62//62 86//86
f 11//11 97//97 106//106
f 62//62 106//106 107//107
f 1//1 43//43 39//39
f 21//21 1//1 39//39
f 21//21 39//39 40//40
f 60//60 61//61 107//107
f 62//62 107//107 61//61
f 1//1 14//14 43//43
f 15//15 14//14 1//1
f 9//9 43//43 14//14
f 13//13 9//9 14//14
f 40//40 45//45 44//44
f 15//15 21//21 49//49
f 57//57 30//30 56//56
f 30//30 57//57 65//65
f 86//86 27//27 10//10
f 10//10 27//27 3//3
f 91//91 59//59 42//42
f 91//91 90//90 59//59
f 27//27 7//7 3//3
f 28//28 29//29 2//2
f 5//5 2//2 29//29
f 7//7 2//2 5//5
f 27//27 28//28 2//2
f 27//27 2//2 7//7
f 9//9 71//71 43//43
f 24//24 34//34 73//73
f 6//6 34//34 24//24
f 33//33 34//34 6//6
f 8//8 24//24 22//22
f 8//8 6//6 24//24
f 3//3 8//8 22//22
f 7//7 8//8 3//3
f 5//5 33//33 4//4
f 6//6 4//4 33//33
f 4//4 7//7 5//5
f 8//8 4//4 6//6
f 7//7 4//4 8//8
f 73//73 72//72 13//13
f 13//13 72//72 9//9
f 72//72 71//71 9//9
f 36//36 10//10 37//37
f 97//97 37//37 10//10
f 11//11 37//37 97//97
f 106//106 37//37 11//11
f 62//62 37//37 106//106
f 17//17 18//18 12//12
f 12//12 96//96 97//97
f 18//18 96//96 12//12
f 18//18 78//78 96//96
f 13//13 16//16 23//23
f 14//14 16//16 13//13
f 14//14 15//15 16//16
f 45//45 93//93 44//44
f 49//49 48//48 15//15
f 16//16 48//48 23//23
f 16//16 15//15 48//48
f 20//20 17//17 26//26
f 25//25 20//20 26//26
f 17//17 20//20 18//18
f 18//18 20//20 78//78
f 78//78 20//20 44//44
f 44//44 19//19 40//40
f 25//25 19//19 44//44
f 44//44 20//20 25//25
f 40//40 19//19 21//21
f 49//49 21//21 19//19
f 49//49 19//19 52//52
f 52//52 19//19 25//25
f 55//55 47//47 54//54
f 47//47 55//55 22//22
f 48//48 47//47 23//23
f 24//24 23//23 47//47
f 24//24 47//47 22//22
f 25//25 26//26 51//51
f 25//25 51//51 52//52
f 55//55 51//51 26//26
f 27//27 86//86 85//85
f 27//27 85//85 28//28
f 85//85 83//83 29//29
f 28//28 85//85 29//29
f 61//61 80//80 62//62
f 65//65 66//66 30//30
f 66//66 31//31 30//30
f 66//66 68//68 31//31
f 68//68 66//66 69//69
f 32//32 68//68 33//33
f 31//31 68//68 32//32
f 68//68 70//70 33//33
f 34//34 70//70 73//73
f 70//70 34//34 33//33
f 36//36 35//35 62//62
f 35//35 37//37 62//62
f 37//37 35//35 36//36
f 39//39 46//46 38//38
f 46//46 39//39 43//43
f 45//45 38//38 46//46
f 39//39 38//38 40//40
f 40//40 38//38 45//45
f 91//91 41//41 89//89
f 92//92 89//89 41//41
f 92//92 41//41 91//91
f 109//109 91//91 42//42
f 91//91 109//109 92//92
f 107//107 109//109 60//60
f 60//60 109//109 59//59
f 59//59 109//109 42//42
f 46//46 43//43 75//75
f 46//46 75//75 76//76
f 77//77 75//75 92//92
f 92//92 75//75 89//89
f 89//89 75//75 64//64
f 71//71 75//75 43//43
f 102//102 78//78 44//44
f 93//93 102//102 44//44
f 95//95 93//93 45//45
f 76//76 95//95 46//46
f 46//46 95//95 45//45
f 94//94 95//95 76//76
f 47//47 53//53 54//54
f 48//48 53//53 47//47
f 49//49 52//52 53//53
f 49//49 53//53 48//48
f 51//51 50//50 52//52
f 53//53 52//52 50//50
f 53//53 50//50 54//54
f 54//54 50//50 55//55
f 55//55 50//50 51//51
f 82//82 81//81 57//57
f 83//83 82//82 56//56
f 56//56 82//82 57//57
f 57//57 88//88 65//65
f 81//81 88//88 57//57
f 64//64 65//65 88//88
f 90//90 88//88 81//81
f 64//64 88//88 89//89
f 59//59 58//58 60//60
f 61//61 60//60 58//58
f 58//58 80//80 61//61
f 59//59 90//90 58//58
f 81//81 58//58 90//90
f 80//80 58//58 79//79
f 62//62 84//84 86//86
f 80//80 84//84 62//62
f 64//64 63//63 65//65
f 65//65 63//63 66//66
f 75//75 63//63 64//64
f 75//75 71//71 63//63
f 69//69 63//63 71//71
f 66//66 63//63 69//69
f 68//68 69//69 67//67
f 67//67 70//70 68//68
f 69//69 71//71 67//67
f 72//72 67//67 71//71
f 72//72 73//73 67//67
f 70//70 67//67 73//73
f 92//92 99//99 77//77
f 94//94 77//77 99//99
f 75//75 74//74 76//76
f 77//77 74//74 75//75
f 94//94 76//76 74//74
f 94//94 74//74 77//77
f 96//96 78//78 101//101
f 102//102 101//101 78//78
f 58//58 81//81 79//79
f 82//82 79//79 81//81
f 82//82 83//83 79//79
f 79//79 84//84 80//80
f 85//85 79//79 83//83
f 85//85 86//86 79//79
f 84//84 79//79 86//86
f 88//88 87//87 89//89
f 87//87 88//88 90//90
f 91//91 89//89 87//87
f 91//91 87//87 90//90
f 109//109 108//108 92//92
f 92//92 108//108 99//99
f 102//102 93//93 98//98
f 99//99 98//98 94//94
f 95//95 98//98 93//93
f 95//95 94//94 98//98
f 96//96 105//105 97//97
f 101//101 105//105 96//96
f 106//106 97//97 105//105
f 98//98 104//104 102//102
f 99//99 104//104 98//98
f 108//108 104//104 99//99
f 101//101 102//102 100//100
f 100//100 105//105 101//101
f 104//104 100//100 102//102
f 105//105 100//100 104//104
f 104//104 103//103 105//105
f 106//106 103//103 107//107
f 105//105 103//103 106//106
f 104//104 108//108 103//103
f 109//109 107//107 103//103
f 108//108 109//109 103//103
# 214 faces, 0 coords texture

# End of File