####
#
# OBJ File Generated by Meshlab
#
####
# Object hand_flipped.obj
#
# Vertices: 203
# Faces: 200
#
####
vn 0.007209 0.007820 0.000020
v 0.016735 0.064432 -0.090129 0.752941 0.752941 0.752941
vn 1.683117 1.825872 0.004582
v 0.017134 0.063614 0.089271 0.752941 0.752941 0.752941
vn 6.164147 0.613388 0.058863
v 0.031590 0.006214 0.000559 0.752941 0.752941 0.752941
vn -2.082497 -0.342941 2.446997
v -0.017054 0.022121 0.095525 0.752941 0.752941 0.752941
vn -2.104650 0.066095 1.921541
v -0.017510 0.051666 0.097908 0.752941 0.752941 0.752941
vn -5.481654 -1.840576 0.326399
v -0.031598 0.001153 0.001987 0.752941 0.752941 0.752941
vn -2.764245 -1.738376 -0.515827
v -0.025981 -0.005082 -0.075770 0.752941 0.752941 0.752941
vn -6.162560 0.572412 0.067744
v -0.031636 0.005973 0.000579 0.752941 0.752941 0.752941
vn 1.910768 -0.289925 2.493927
v 0.017033 0.030322 0.096802 0.752941 0.752941 0.752941
vn 2.132896 -1.804252 0.161101
v 0.031616 0.001180 0.001861 0.752941 0.752941 0.752941
vn 3.040298 0.340019 1.800433
v 0.017585 0.051985 0.097407 0.752941 0.752941 0.752941
vn 5.551088 1.712818 -1.569816
v 0.018556 0.056617 -0.094602 0.752941 0.752941 0.752941
vn -2.532905 -0.713003 2.099808
v -0.016804 0.006295 0.091906 0.752941 0.752941 0.752941
vn -5.447317 -1.743028 1.930958
v -0.016812 -0.001206 0.087533 0.752941 0.752941 0.752941
vn 2.554006 0.121030 1.646744
v 0.016230 0.051584 0.099538 0.752941 0.752941 0.752941
vn -0.002291 -0.049145 5.982444
v -0.000041 0.005691 0.103990 0.752941 0.752941 0.752941
vn -0.853622 -0.624017 2.738667
v -0.000017 -0.009199 0.103743 0.752941 0.752941 0.752941
vn -0.539433 -1.061471 2.151890
v -0.003617 -0.012610 0.101158 0.752941 0.752941 0.752941
vn -1.127443 -0.596278 3.238273
v -0.003430 -0.008964 0.102598 0.752941 0.752941 0.752941
vn -6.201013 0.262659 -0.798887
v -0.025270 0.005197 -0.082065 0.752941 0.752941 0.752941
vn -1.763072 -2.681198 -0.076785
v -0.028011 -0.006396 -0.041784 0.752941 0.752941 0.752941
vn 0.032977 2.387708 -1.882196
v -0.000113 0.065962 -0.092808 0.752941 0.752941 0.752941
vn -1.003521 2.608273 -2.682385
v -0.012567 0.065168 -0.093712 0.752941 0.752941 0.752941
vn -1.144704 1.794512 -0.962768
v -0.014422 0.065690 -0.091276 0.752941 0.752941 0.752941
vn -1.573424 1.043630 0.974046
v -0.017255 0.063082 0.090700 0.752941 0.752941 0.752941
vn -0.320526 0.633735 0.259989
v -0.015472 0.065190 0.090706 0.752941 0.752941 0.752941
vn -2.793985 0.893819 -0.345189
v -0.016767 0.064332 -0.090252 0.752941 0.752941 0.752941
vn 2.561235 -0.746608 2.085634
v 0.016956 0.005563 0.091603 0.752941 0.752941 0.752941
vn 5.562792 1.463814 1.770433
v 0.017607 0.058448 0.093848 0.752941 0.752941 0.752941
vn 0.153728 0.927879 1.195845
v 0.012506 0.056894 0.100188 0.752941 0.752941 0.752941
vn 1.181895 1.289134 -1.721758
v 0.015551 0.054673 -0.100200 0.752941 0.752941 0.752941
vn 2.944839 0.367240 -0.810210
v 0.019269 0.044942 -0.098494 0.752941 0.752941 0.752941
vn 0.011087 -0.174975 -3.196235
v 0.016218 0.045870 -0.100285 0.752941 0.752941 0.752941
vn 1.927242 -5.668546 -0.260110
v 0.001917 -0.025659 0.045520 0.752941 0.752941 0.752941
vn 2.909258 -0.309328 -0.185568
v 0.028015 -0.006350 -0.042042 0.752941 0.752941 0.752941
vn 4.098356 -4.403511 0.584769
v 0.003810 -0.024449 0.082966 0.752941 0.752941 0.752941
vn 6.120401 0.701759 -0.986829
v 0.020671 0.043308 -0.093692 0.752941 0.752941 0.752941
vn 6.215599 0.247304 -0.737071
v 0.025448 0.003501 -0.081181 0.752941 0.752941 0.752941
vn -3.644294 -4.585612 0.776407
v -0.003637 -0.024606 0.083586 0.752941 0.752941 0.752941
vn -5.447186 -2.652876 1.204123
v -0.016533 -0.005118 0.082236 0.752941 0.752941 0.752941
vn -0.940821 0.716486 0.997936
v -0.014017 0.056027 0.100091 0.752941 0.752941 0.752941
vn -3.276857 -0.072273 4.928493
v -0.016013 0.049301 0.099629 0.752941 0.752941 0.752941
vn -0.629078 -1.518776 0.295102
v -0.003215 -0.023884 0.087766 0.752941 0.752941 0.752941
vn -0.202044 1.682849 1.669963
v -0.012988 0.065712 0.092496 0.752941 0.752941 0.752941
vn -0.029088 2.548886 1.941736
v -0.000506 0.065953 0.092945 0.752941 0.752941 0.752941
vn 0.471296 1.764923 -1.927407
v 0.013540 0.065688 -0.092672 0.752941 0.752941 0.752941
vn 0.582493 2.566876 1.337395
v 0.013425 0.065731 0.091927 0.752941 0.752941 0.752941
vn -1.972844 0.224813 -1.580302
v -0.019229 0.050588 -0.097261 0.752941 0.752941 0.752941
vn 2.039212 -0.325355 0.349010
v 0.016558 -0.003873 0.085132 0.752941 0.752941 0.752941
vn 3.046910 -0.905009 5.050331
v 0.003495 -0.008029 0.102716 0.752941 0.752941 0.752941
vn 2.262134 -1.035360 -2.279894
v 0.023869 0.004368 -0.090401 0.752941 0.752941 0.752941
vn 2.226078 -0.270837 -2.356604
v 0.022708 0.014340 -0.093736 0.752941 0.752941 0.752941
vn 5.661497 -1.711269 -0.755595
v 0.026034 -0.005031 -0.075298 0.752941 0.752941 0.752941
vn 2.712400 -1.945236 -0.461016
v 0.024817 -0.007156 -0.074378 0.752941 0.752941 0.752941
vn -1.471632 -5.659034 -0.236663
v -0.001500 -0.025925 0.045870 0.752941 0.752941 0.752941
vn -0.023652 -5.906972 -1.862131
v -0.000834 -0.007322 -0.080260 0.752941 0.752941 0.752941
vn 1.432567 -2.066143 -0.689697
v 0.022959 -0.007399 -0.077901 0.752941 0.752941 0.752941
vn -1.616740 -1.645501 -0.881410
v -0.022761 -0.006910 -0.080174 0.752941 0.752941 0.752941
vn -0.116102 -0.304391 0.563343
v 0.000032 -0.017161 0.099451 0.752941 0.752941 0.752941
vn -1.058066 0.750938 1.017538
v -0.016632 0.054734 0.098554 0.752941 0.752941 0.752941
vn 2.551217 -1.466017 1.741626
v 0.003602 -0.012628 0.101195 0.752941 0.752941 0.752941
vn -0.059924 4.236147 -4.517766
v -0.001617 0.062307 -0.097471 0.752941 0.752941 0.752941
vn 0.438981 0.476214 0.001195
v 0.015718 0.064913 0.091780 0.752941 0.752941 0.752941
vn -5.833839 1.623549 -1.056807
v -0.018449 0.058393 -0.092016 0.752941 0.752941 0.752941
vn 0.585314 -2.705261 1.148512
v -0.000627 -0.024962 0.087975 0.752941 0.752941 0.752941
vn 0.889297 -2.743668 1.223477
v 0.003076 -0.023979 0.087973 0.752941 0.752941 0.752941
vn 0.080151 -0.553630 -3.074022
v 0.019802 0.020914 -0.097011 0.752941 0.752941 0.752941
vn 0.040884 0.071578 -2.544186
v 0.009942 0.058341 -0.100035 0.752941 0.752941 0.752941
vn 1.173442 0.171593 -1.578600
v 0.017129 0.054305 -0.099067 0.752941 0.752941 0.752941
vn -0.001510 -2.048330 -5.865094
v -0.000314 0.007575 -0.094615 0.752941 0.752941 0.752941
vn -0.018097 -0.876525 -6.207037
v -0.000016 0.027082 -0.098496 0.752941 0.752941 0.752941
vn -0.018992 -4.944763 -3.696941
v -0.000337 -0.004163 -0.086562 0.752941 0.752941 0.752941
vn 2.058186 -1.388873 -1.716510
v 0.022314 -0.001933 -0.088250 0.752941 0.752941 0.752941
vn 1.479124 -2.116600 -1.305678
v 0.022377 -0.005526 -0.083355 0.752941 0.752941 0.752941
vn -0.102361 -1.883272 -2.589701
v -0.021325 0.000980 -0.090927 0.752941 0.752941 0.752941
vn -0.089396 -2.411989 -1.682963
v -0.022733 -0.004120 -0.085434 0.752941 0.752941 0.752941
vn -2.535349 -0.044423 -0.431827
v -0.024495 -0.001833 -0.085892 0.752941 0.752941 0.752941
vn 1.794052 -5.675854 0.743785
v 0.001843 -0.025525 0.084002 0.752941 0.752941 0.752941
vn -2.675175 -1.789693 -0.740649
v -0.024650 -0.006932 -0.076668 0.752941 0.752941 0.752941
vn 1.116660 1.085917 1.414252
v 0.013139 0.064683 0.094063 0.752941 0.752941 0.752941
vn -0.554111 2.253541 2.617789
v -0.009324 0.058489 0.099983 0.752941 0.752941 0.752941
vn -1.799123 -0.185880 -2.434698
v -0.019067 0.024627 -0.097697 0.752941 0.752941 0.752941
vn -0.024055 -0.074322 -2.922965
v -0.004494 0.058119 -0.100426 0.752941 0.752941 0.752941
vn -1.261549 1.728987 -2.348758
v -0.014623 0.055735 -0.100168 0.752941 0.752941 0.752941
vn 0.582143 0.149293 2.115609
v 0.015805 0.054970 0.099416 0.752941 0.752941 0.752941
vn 2.245224 -0.439287 -2.067770
v 0.021343 0.008942 -0.094333 0.752941 0.752941 0.752941
vn 0.001984 -3.588691 -5.075886
v -0.000173 0.000577 -0.090995 0.752941 0.752941 0.752941
vn 1.841604 -0.975373 -1.973849
v 0.021483 0.002684 -0.091795 0.752941 0.752941 0.752941
vn 4.232940 -3.453557 -1.905662
v 0.024515 -0.005051 -0.081703 0.752941 0.752941 0.752941
vn 2.995732 -0.133593 -0.494988
v 0.024729 -0.001232 -0.085740 0.752941 0.752941 0.752941
vn -1.765611 -0.503367 -2.412752
v -0.020658 0.009538 -0.094668 0.752941 0.752941 0.752941
vn -0.018116 0.207561 2.972148
v 0.001191 0.058623 0.100301 0.752941 0.752941 0.752941
vn 0.016353 4.423668 4.366240
v 0.000470 0.063078 0.096656 0.752941 0.752941 0.752941
vn 0.918380 1.583423 -0.371786
v 0.015397 0.064556 -0.092906 0.752941 0.752941 0.752941
vn -1.221073 -2.828953 0.239906
v -0.000868 -0.025870 0.082548 0.752941 0.752941 0.752941
vn -1.736515 -1.134348 -2.596203
v -0.023556 0.004608 -0.091166 0.752941 0.752941 0.752941
vn -1.808612 1.198703 1.209524
v -0.014617 0.064500 0.093442 0.752941 0.752941 0.752941
vn -2.983365 0.166764 -0.545995
v -0.023026 0.009877 -0.092897 0.752941 0.752941 0.752941
vn -0.117803 0.006039 -0.072200
v -0.021822 0.021756 -0.095442 0.752941 0.752941 0.752941
vn -0.066494 0.010367 -0.175066
v -0.018193 0.043814 -0.099518 0.752941 0.752941 0.752941
vn -1.662536 2.486189 -2.121500
v -0.016046 0.063617 -0.093209 0.752941 0.752941 0.752941
vn -0.491490 0.063419 -0.415942
v -0.016995 0.054115 -0.099363 0.752941 0.752941 0.752941
vn 1.057853 2.482947 -0.102741
v 0.016735 0.064432 -0.090129 0.752941 0.752941 0.752941
vn 1.032984 0.512470 -0.474825
v 0.016735 0.064432 -0.090129 0.752941 0.752941 0.752941
vn 2.015680 0.489849 -0.015712
v 0.016735 0.064432 -0.090129 0.752941 0.752941 0.752941
vn 3.479826 0.892388 0.541869
v 0.017134 0.063614 0.089271 0.752941 0.752941 0.752941
vn -2.957419 -0.112876 0.485145
v -0.017054 0.022121 0.095525 0.752941 0.752941 0.752941
vn -3.230010 0.263965 0.551463
v -0.017510 0.051666 0.097908 0.752941 0.752941 0.752941
vn -2.857293 0.010780 -0.273350
v -0.025981 -0.005082 -0.075770 0.752941 0.752941 0.752941
vn 0.100020 -0.004302 0.062788
v 0.017033 0.030322 0.096802 0.752941 0.752941 0.752941
vn 2.920863 -0.095926 0.478091
v 0.017033 0.030322 0.096802 0.752941 0.752941 0.752941
vn 3.344803 -0.007259 0.147010
v 0.031616 0.001180 0.001861 0.752941 0.752941 0.752941
vn 2.591276 0.060781 0.350207
v 0.017585 0.051985 0.097407 0.752941 0.752941 0.752941
vn -2.794047 -0.194163 0.470796
v -0.016804 0.006295 0.091906 0.752941 0.752941 0.752941
vn 0.794434 0.057036 2.987984
v 0.016230 0.051584 0.099538 0.752941 0.752941 0.752941
vn 0.846305 -0.635806 2.734693
v -0.000017 -0.009199 0.103743 0.752941 0.752941 0.752941
vn -2.610147 -1.503895 1.763617
v -0.003617 -0.012610 0.101158 0.752941 0.752941 0.752941
vn -1.940613 -0.512835 1.730637
v -0.003430 -0.008964 0.102598 0.752941 0.752941 0.752941
vn -0.053676 -0.036379 -0.004613
v -0.028011 -0.006396 -0.041784 0.752941 0.752941 0.752941
vn -2.909682 -0.306210 -0.185636
v -0.028011 -0.006396 -0.041784 0.752941 0.752941 0.752941
vn -0.004609 3.203198 -0.044347
v -0.000113 0.065962 -0.092808 0.752941 0.752941 0.752941
vn -0.094135 2.060957 -0.513319
v -0.012567 0.065168 -0.093712 0.752941 0.752941 0.752941
vn -0.674534 3.529663 -0.201232
v -0.014422 0.065690 -0.091276 0.752941 0.752941 0.752941
vn -2.312127 0.322709 0.221285
v -0.017255 0.063082 0.090700 0.752941 0.752941 0.752941
vn -1.195622 1.011277 0.003761
v -0.017255 0.063082 0.090700 0.752941 0.752941 0.752941
vn -1.121315 0.946761 0.589179
v -0.015472 0.065190 0.090706 0.752941 0.752941 0.752941
vn -1.649179 3.152357 0.006999
v -0.015472 0.065190 0.090706 0.752941 0.752941 0.752941
vn -0.658843 0.859792 -0.368542
v -0.016767 0.064332 -0.090252 0.752941 0.752941 0.752941
vn -0.975923 1.674217 -0.000954
v -0.016767 0.064332 -0.090252 0.752941 0.752941 0.752941
vn 2.710529 -0.213676 0.453220
v 0.016956 0.005563 0.091603 0.752941 0.752941 0.752941
vn 0.839457 0.930022 1.269439
v 0.012506 0.056894 0.100188 0.752941 0.752941 0.752941
vn 0.322769 0.151811 2.748320
v 0.012506 0.056894 0.100188 0.752941 0.752941 0.752941
vn -0.054080 0.017386 -2.224873
v 0.015551 0.054673 -0.100200 0.752941 0.752941 0.752941
vn 0.764032 0.102288 -1.081662
v 0.015551 0.054673 -0.100200 0.752941 0.752941 0.752941
vn 1.600828 -0.024675 -2.640666
v 0.019269 0.044942 -0.098494 0.752941 0.752941 0.752941
vn 1.533494 0.041521 -2.590822
v 0.016218 0.045870 -0.100285 0.752941 0.752941 0.752941
vn 0.064150 -0.039064 -0.005371
v 0.028015 -0.006350 -0.042042 0.752941 0.752941 0.752941
vn 1.794486 -2.653907 -0.062325
v 0.028015 -0.006350 -0.042042 0.752941 0.752941 0.752941
vn -0.353789 0.715799 0.944086
v -0.014017 0.056027 0.100091 0.752941 0.752941 0.752941
vn -0.650344 0.225831 3.078384
v -0.014017 0.056027 0.100091 0.752941 0.752941 0.752941
vn -2.857131 -2.667365 1.653147
v -0.003215 -0.023884 0.087766 0.752941 0.752941 0.752941
vn -0.477748 0.944589 0.387517
v -0.012988 0.065712 0.092496 0.752941 0.752941 0.752941
vn -0.227271 2.542683 0.001433
v -0.012988 0.065712 0.092496 0.752941 0.752941 0.752941
vn -0.005557 3.032229 -0.000299
v -0.000506 0.065953 0.092945 0.752941 0.752941 0.752941
vn 0.747669 3.095111 -0.151962
v 0.013540 0.065688 -0.092672 0.752941 0.752941 0.752941
vn 0.533471 3.066197 -0.000382
v 0.013425 0.065731 0.091927 0.752941 0.752941 0.752941
vn -0.996835 0.373968 -0.419425
v -0.019229 0.050588 -0.097261 0.752941 0.752941 0.752941
vn -2.465157 0.305447 -0.190915
v -0.019229 0.050588 -0.097261 0.752941 0.752941 0.752941
vn 3.364797 -1.870692 1.216686
v 0.016558 -0.003873 0.085132 0.752941 0.752941 0.752941
vn 2.733539 0.143948 -0.448136
v 0.023869 0.004368 -0.090401 0.752941 0.752941 0.752941
vn 2.937768 0.207224 -0.423365
v 0.022708 0.014340 -0.093736 0.752941 0.752941 0.752941
vn 0.896901 -2.603136 -0.230419
v 0.024817 -0.007156 -0.074378 0.752941 0.752941 0.752941
vn 0.260945 -3.435694 -0.731077
v 0.022959 -0.007399 -0.077901 0.752941 0.752941 0.752941
vn -0.198702 -3.438153 -1.012109
v -0.022761 -0.006910 -0.080174 0.752941 0.752941 0.752941
vn 0.109723 -0.303525 0.564315
v 0.000032 -0.017161 0.099451 0.752941 0.752941 0.752941
vn 1.155514 -1.332444 1.097926
v 0.000032 -0.017161 0.099451 0.752941 0.752941 0.752941
vn 0.060160 -0.226317 0.150388
v 0.000032 -0.017161 0.099451 0.752941 0.752941 0.752941
vn -1.213781 -1.472321 1.184387
v 0.000032 -0.017161 0.099451 0.752941 0.752941 0.752941
vn -1.357101 0.215241 1.869256
v -0.016632 0.054734 0.098554 0.752941 0.752941 0.752941
vn -1.993939 0.439059 0.624839
v -0.016632 0.054734 0.098554 0.752941 0.752941 0.752941
vn 0.563802 -1.043560 2.205166
v 0.003602 -0.012628 0.101195 0.752941 0.752941 0.752941
vn 2.082091 1.199860 1.352417
v 0.015718 0.064913 0.091780 0.752941 0.752941 0.752941
vn 0.249597 0.637455 0.346178
v 0.015718 0.064913 0.091780 0.752941 0.752941 0.752941
vn 0.550681 1.541870 -0.000024
v 0.015718 0.064913 0.091780 0.752941 0.752941 0.752941
vn -0.593862 -1.375963 0.256586
v -0.000627 -0.024962 0.087975 0.752941 0.752941 0.752941
vn -0.526753 -1.112159 0.786257
v -0.000627 -0.024962 0.087975 0.752941 0.752941 0.752941
vn 2.236316 -1.488635 0.822943
v 0.003076 -0.023979 0.087973 0.752941 0.752941 0.752941
vn 2.177292 -0.104465 -2.188672
v 0.019802 0.020914 -0.097011 0.752941 0.752941 0.752941
vn 0.686237 2.236156 -2.705217
v 0.009942 0.058341 -0.100035 0.752941 0.752941 0.752941
vn 3.180383 1.409029 -2.082434
v 0.017129 0.054305 -0.099067 0.752941 0.752941 0.752941
vn 0.092611 -2.141276 -2.082641
v 0.022314 -0.001933 -0.088250 0.752941 0.752941 0.752941
vn 0.097361 -2.846596 -1.470055
v 0.022377 -0.005526 -0.083355 0.752941 0.752941 0.752941
vn -1.617585 -1.188605 -1.941239
v -0.021325 0.000980 -0.090927 0.752941 0.752941 0.752941
vn -2.016496 -1.856885 -1.393932
v -0.022733 -0.004120 -0.085434 0.752941 0.752941 0.752941
vn -2.196669 -1.918934 -1.882599
v -0.024495 -0.001833 -0.085892 0.752941 0.752941 0.752941
vn -0.654699 -2.663779 -0.289191
v -0.024650 -0.006932 -0.076668 0.752941 0.752941 0.752941
vn 0.457293 3.139830 2.274666
v 0.013139 0.064683 0.094063 0.752941 0.752941 0.752941
vn -0.063051 0.190876 2.661131
v -0.009324 0.058489 0.099983 0.752941 0.752941 0.752941
vn -0.070655 -0.482278 -3.160026
v -0.019067 0.024627 -0.097697 0.752941 0.752941 0.752941
vn -0.276251 1.943472 -2.618883
v -0.004494 0.058119 -0.100426 0.752941 0.752941 0.752941
vn -0.250055 0.038988 -0.658349
v -0.014623 0.055735 -0.100168 0.752941 0.752941 0.752941
vn -0.038844 -0.096640 -2.090874
v -0.014623 0.055735 -0.100168 0.752941 0.752941 0.752941
vn 2.785400 1.259912 2.111804
v 0.015805 0.054970 0.099416 0.752941 0.752941 0.752941
vn 0.094491 -0.900071 -2.893597
v 0.021343 0.008942 -0.094333 0.752941 0.752941 0.752941
vn 0.098260 -1.627249 -2.802963
v 0.021483 0.002684 -0.091795 0.752941 0.752941 0.752941
vn 2.144311 -1.518942 -1.638939
v 0.024729 -0.001232 -0.085740 0.752941 0.752941 0.752941
vn -0.081345 -0.922853 -2.955911
v -0.020658 0.009538 -0.094668 0.752941 0.752941 0.752941
vn 0.110213 2.037536 2.513094
v 0.001191 0.058623 0.100301 0.752941 0.752941 0.752941
vn 2.304256 2.120270 -2.433158
v 0.015397 0.064556 -0.092906 0.752941 0.752941 0.752941
vn 0.301792 -3.070339 0.165823
v -0.000868 -0.025870 0.082548 0.752941 0.752941 0.752941
vn -2.726766 0.060934 -0.517478
v -0.023556 0.004608 -0.091166 0.752941 0.752941 0.752941
vn -0.533204 1.054234 0.432499
v -0.014617 0.064500 0.093442 0.752941 0.752941 0.752941
vn -0.320945 1.524740 1.660904
v -0.014617 0.064500 0.093442 0.752941 0.752941 0.752941
vn -1.938754 -0.491705 -2.498180
v -0.023026 0.009877 -0.092897 0.752941 0.752941 0.752941
vn -2.947248 0.227644 -0.477877
v -0.021822 0.021756 -0.095442 0.752941 0.752941 0.752941
vn -1.782923 -0.290997 -2.527366
v -0.021822 0.021756 -0.095442 0.752941 0.752941 0.752941
vn -2.480395 0.150866 -1.591337
v -0.018193 0.043814 -0.099518 0.752941 0.752941 0.752941
vn -0.087070 -0.006972 -0.115253
v -0.018193 0.043814 -0.099518 0.752941 0.752941 0.752941
vn -0.063586 -0.204831 -2.888658
v -0.018193 0.043814 -0.099518 0.752941 0.752941 0.752941
vn -2.059267 0.780789 -0.747184
v -0.016046 0.063617 -0.093209 0.752941 0.752941 0.752941
vn -0.797236 0.124302 -2.098979
v -0.016995 0.054115 -0.099363 0.752941 0.752941 0.752941
vn -0.665516 0.580248 -0.793296
v -0.016995 0.054115 -0.099363 0.752941 0.752941 0.752941
vn -1.747174 0.659946 -0.749551
v -0.016995 0.054115 -0.099363 0.752941 0.752941 0.752941
# 203 vertices, 0 vertices normals

f 105//105 106//106 3//3
f 107//107 108//108 6//6
f 109//109 6//6 8//8
f 111//111 112//112 113//113
f 112//112 3//3 113//113
f 12//12 105//105 3//3
f 114//114 6//6 14//14
f 8//8 6//6 108//108
f 107//107 6//6 114//114
f 115//115 16//16 116//116
f 117//117 118//118 13//13
f 20//20 109//109 8//8
f 120//120 6//6 109//109
f 121//121 122//122 123//123
f 125//125 127//127 129//129
f 130//130 112//112 111//111
f 106//106 29//29 3//3
f 29//29 113//113 3//3
f 132//132 16//16 115//115
f 134//134 135//135 136//136
f 34//34 138//138 36//36
f 37//37 3//3 38//38
f 6//6 39//39 40//40
f 124//124 8//8 108//108
f 140//140 42//42 16//16
f 117//117 14//14 141//141
f 121//121 123//123 143//143
f 143//143 144//144 121//121
f 145//145 121//121 144//144
f 144//144 146//146 145//145
f 20//20 8//8 148//148
f 110//110 11//11 15//15
f 36//36 10//10 149//149
f 50//50 28//28 9//9
f 10//10 36//36 138//138
f 12//12 37//37 32//32
f 37//37 12//12 3//3
f 37//37 38//38 150//150
f 37//37 151//151 32//32
f 151//151 37//37 150//150
f 112//112 35//35 53//53
f 112//112 53//53 38//38
f 112//112 38//38 3//3
f 152//152 138//138 34//34
f 55//55 56//56 153//153
f 56//56 55//55 154//154
f 153//153 152//152 34//34
f 39//39 6//6 21//21
f 158//158 117//117 141//141
f 40//40 39//39 141//141
f 14//14 40//40 141//141
f 14//14 6//6 40//40
f 160//160 124//124 108//108
f 155//155 161//161 116//116
f 42//42 159//159 5//5
f 16//16 42//42 17//17
f 62//62 22//22 46//46
f 22//22 62//62 23//23
f 103//103 145//145 164//164
f 146//146 164//164 145//145
f 124//124 64//64 8//8
f 64//64 124//124 27//27
f 64//64 148//148 8//8
f 166//166 158//158 141//141
f 167//167 36//36 149//149
f 63//63 2//2 1//1
f 136//136 135//135 168//168
f 169//169 62//62 46//46
f 32//32 170//170 12//12
f 70//70 71//71 67//67
f 53//53 137//137 54//54
f 72//72 171//171 172//172
f 173//173 174//174 175//175
f 78//78 55//55 34//34
f 55//55 176//176 154//154
f 4//4 42//42 5//5
f 50//50 115//115 116//116
f 59//59 17//17 18//18
f 109//109 20//20 77//77
f 123//123 127//127 143//143
f 129//129 127//127 123//123
f 45//45 177//177 47//47
f 140//140 16//16 178//178
f 179//179 71//71 70//70
f 62//62 180//180 23//23
f 33//33 182//182 83//83
f 149//149 28//28 61//61
f 61//61 28//28 50//50
f 161//161 50//50 116//116
f 162//162 183//183 29//29
f 85//85 132//132 115//115
f 80//80 183//183 162//162
f 183//183 80//80 131//131
f 9//9 115//115 50//50
f 183//183 15//15 11//11
f 11//11 29//29 183//183
f 180//180 62//62 169//169
f 34//34 36//36 78//78
f 70//70 67//67 184//184
f 71//71 33//33 67//67
f 154//154 76//76 72//72
f 171//171 87//87 185//185
f 72//72 172//172 56//56
f 56//56 172//172 153//153
f 34//34 55//55 153//153
f 21//21 176//176 55//55
f 119//119 7//7 79//79
f 89//89 73//73 186//186
f 39//39 21//21 55//55
f 187//187 179//179 70//70
f 84//84 23//23 180//180
f 130//130 49//49 112//112
f 188//188 177//177 93//93
f 133//133 33//33 68//68
f 68//68 33//33 83//83
f 51//51 86//86 52//52
f 69//69 135//135 134//134
f 46//46 189//189 169//169
f 189//189 31//31 169//169
f 189//189 12//12 170//170
f 76//76 75//75 72//72
f 90//90 53//53 89//89
f 86//86 51//51 88//88
f 75//75 70//70 87//87
f 87//87 70//70 185//185
f 190//190 55//55 78//78
f 39//39 55//55 95//95
f 14//14 117//117 13//13
f 42//42 140//140 159//159
f 19//19 17//17 42//42
f 118//118 4//4 13//13
f 45//45 93//93 177//177
f 188//188 93//93 81//81
f 16//16 132//132 92//92
f 92//92 178//178 16//16
f 191//191 77//77 20//20
f 66//66 157//157 65//65
f 65//65 78//78 66//66
f 156//156 167//167 61//61
f 149//149 61//61 167//167
f 106//106 162//162 29//29
f 177//177 163//163 47//47
f 177//177 188//188 30//30
f 78//78 36//36 66//66
f 189//189 170//170 31//31
f 94//94 145//145 103//103
f 12//12 189//189 104//104
f 70//70 184//184 185//185
f 168//168 52//52 86//86
f 52//52 168//168 135//135
f 57//57 89//89 54//54
f 53//53 90//90 38//38
f 90//90 150//150 38//38
f 75//75 87//87 72//72
f 72//72 87//87 171//171
f 56//56 154//154 72//72
f 42//42 4//4 118//118
f 19//19 18//18 17//17
f 193//193 81//81 44//44
f 81//81 93//93 44//44
f 41//41 97//97 60//60
f 26//26 192//192 142//142
f 194//194 196//196 91//91
f 199//199 33//33 71//71
f 182//182 33//33 199//199
f 96//96 173//173 175//175
f 190//190 78//78 65//65
f 73//73 89//89 74//74
f 53//53 54//54 89//89
f 73//73 88//88 51//51
f 186//186 73//73 51//51
f 139//139 81//81 193//193
f 44//44 93//93 45//45
f 25//25 97//97 126//126
f 200//200 147//147 64//64
f 64//64 27//27 200//200
f 203//203 147//147 200//200
f 96//96 194//194 91//91
f 148//148 195//195 20//20
f 195//195 98//98 20//20
f 98//98 191//191 20//20
f 96//96 91//91 173//173
f 84//84 101//101 23//23
f 128//128 24//24 101//101
f 89//89 57//57 74//74
f 175//175 174//174 79//79
f 79//79 174//174 58//58
f 79//79 7//7 175//175
f 201//201 181//181 100//100
f 91//91 196//196 82//82
f 48//48 197//197 99//99
f 197//197 48//48 102//102
f 75//75 187//187 70//70
f 84//84 202//202 101//101
f 24//24 23//23 101//101
f 43//43 95//95 165//165
f 25//25 60//60 97//97
f 179//179 199//199 71//71
f 43//43 39//39 95//95
f 198//198 82//82 196//196
# 200 faces, 0 coords texture

# End of File