<?xml version="1.0" encoding="UTF-8" standalone="no"?>
<!DOCTYPE svg PUBLIC "-//W3C//DTD SVG 1.1//EN"
 "http://www.w3.org/Graphics/SVG/1.1/DTD/svg11.dtd">
<!-- Generated by graphviz version 2.43.0 (0)
 -->
<!-- Title: %3 Pages: 1 -->
<svg width="474pt" height="346pt"
 viewBox="0.00 0.00 474.00 346.00" xmlns="http://www.w3.org/2000/svg" xmlns:xlink="http://www.w3.org/1999/xlink">
<g id="graph0" class="graph" transform="scale(1 1) rotate(0) translate(4 342)">
<title>%3</title>
<polygon fill="white" stroke="transparent" points="-4,4 -4,-342 470,-342 470,4 -4,4"/>
<!-- depth -->
<g id="node1" class="node">
<title>depth</title>
<path fill="#76b900" stroke="#76b900" d="M82,-338C82,-338 12,-338 12,-338 6,-338 0,-332 0,-326 0,-326 0,-314 0,-314 0,-308 6,-302 12,-302 12,-302 82,-302 82,-302 88,-302 94,-308 94,-314 94,-314 94,-326 94,-326 94,-332 88,-338 82,-338"/>
<text text-anchor="middle" x="47" y="-316.9" font-family="Times,serif" font-size="12.00" fill="white">Depth Image</text>
</g>
<!-- project_pc -->
<g id="node6" class="node">
<title>project_pc</title>
<path fill="#cccccc" stroke="#cccccc" d="M168,-265C168,-265 54,-265 54,-265 48,-265 42,-259 42,-253 42,-253 42,-241 42,-241 42,-235 48,-229 54,-229 54,-229 168,-229 168,-229 174,-229 180,-235 180,-241 180,-241 180,-253 180,-253 180,-259 174,-265 168,-265"/>
<text text-anchor="middle" x="111" y="-243.9" font-family="Times,serif" font-size="12.00">Depth to PointCloud</text>
</g>
<!-- depth&#45;&gt;project_pc -->
<g id="edge1" class="edge">
<title>depth&#45;&gt;project_pc</title>
<path fill="none" stroke="#708090" d="M62.49,-301.81C70.43,-293 80.24,-282.13 88.95,-272.46"/>
<polygon fill="#708090" stroke="#708090" points="91.55,-274.8 95.65,-265.03 86.35,-270.11 91.55,-274.8"/>
</g>
<!-- intrinsics -->
<g id="node2" class="node">
<title>intrinsics</title>
<path fill="#76b900" stroke="#76b900" d="M225.5,-338C225.5,-338 124.5,-338 124.5,-338 118.5,-338 112.5,-332 112.5,-326 112.5,-326 112.5,-314 112.5,-314 112.5,-308 118.5,-302 124.5,-302 124.5,-302 225.5,-302 225.5,-302 231.5,-302 237.5,-308 237.5,-314 237.5,-314 237.5,-326 237.5,-326 237.5,-332 231.5,-338 225.5,-338"/>
<text text-anchor="middle" x="175" y="-316.9" font-family="Times,serif" font-size="12.00" fill="white">Camera Intrinsics</text>
</g>
<!-- intrinsics&#45;&gt;project_pc -->
<g id="edge2" class="edge">
<title>intrinsics&#45;&gt;project_pc</title>
<path fill="none" stroke="#708090" d="M159.51,-301.81C151.57,-293 141.76,-282.13 133.05,-272.46"/>
<polygon fill="#708090" stroke="#708090" points="135.65,-270.11 126.35,-265.03 130.45,-274.8 135.65,-270.11"/>
</g>
<!-- pose -->
<g id="node3" class="node">
<title>pose</title>
<path fill="#76b900" stroke="#76b900" d="M282,-265C282,-265 210,-265 210,-265 204,-265 198,-259 198,-253 198,-253 198,-241 198,-241 198,-235 204,-229 210,-229 210,-229 282,-229 282,-229 288,-229 294,-235 294,-241 294,-241 294,-253 294,-253 294,-259 288,-265 282,-265"/>
<text text-anchor="middle" x="246" y="-243.9" font-family="Times,serif" font-size="12.00" fill="white">Camera Pose</text>
</g>
<!-- project -->
<g id="node5" class="node">
<title>project</title>
<path fill="#cccccc" stroke="#cccccc" d="M327,-192C327,-192 129,-192 129,-192 123,-192 117,-186 117,-180 117,-180 117,-168 117,-168 117,-162 123,-156 129,-156 129,-156 327,-156 327,-156 333,-156 339,-162 339,-168 339,-168 339,-180 339,-180 339,-186 333,-192 327,-192"/>
<text text-anchor="middle" x="228" y="-170.9" font-family="Times,serif" font-size="12.00">Project PointCloud to Base Frame</text>
</g>
<!-- pose&#45;&gt;project -->
<g id="edge4" class="edge">
<title>pose&#45;&gt;project</title>
<path fill="none" stroke="#708090" d="M241.64,-228.81C239.59,-220.7 237.09,-210.84 234.79,-201.78"/>
<polygon fill="#708090" stroke="#708090" points="238.17,-200.86 232.32,-192.03 231.38,-202.58 238.17,-200.86"/>
</g>
<!-- q -->
<g id="node4" class="node">
<title>q</title>
<path fill="#76b900" stroke="#76b900" d="M454,-265C454,-265 342,-265 342,-265 336,-265 330,-259 330,-253 330,-253 330,-241 330,-241 330,-235 336,-229 342,-229 342,-229 454,-229 454,-229 460,-229 466,-235 466,-241 466,-241 466,-253 466,-253 466,-259 460,-265 454,-265"/>
<text text-anchor="middle" x="398" y="-243.9" font-family="Times,serif" font-size="12.00" fill="white">Robot Joint Position</text>
</g>
<!-- kinematics -->
<g id="node7" class="node">
<title>kinematics</title>
<path fill="#cccccc" stroke="#cccccc" d="M427,-192C427,-192 369,-192 369,-192 363,-192 357,-186 357,-180 357,-180 357,-168 357,-168 357,-162 363,-156 369,-156 369,-156 427,-156 427,-156 433,-156 439,-162 439,-168 439,-168 439,-180 439,-180 439,-186 433,-192 427,-192"/>
<text text-anchor="middle" x="398" y="-170.9" font-family="Times,serif" font-size="12.00">kinematics</text>
</g>
<!-- q&#45;&gt;kinematics -->
<g id="edge5" class="edge">
<title>q&#45;&gt;kinematics</title>
<path fill="none" stroke="#708090" d="M398,-228.81C398,-220.79 398,-211.05 398,-202.07"/>
<polygon fill="#708090" stroke="#708090" points="401.5,-202.03 398,-192.03 394.5,-202.03 401.5,-202.03"/>
</g>
<!-- distance -->
<g id="node8" class="node">
<title>distance</title>
<path fill="#cccccc" stroke="#cccccc" d="M333.5,-109C333.5,-109 290.5,-109 290.5,-109 284.5,-109 278.5,-103 278.5,-97 278.5,-97 278.5,-85 278.5,-85 278.5,-79 284.5,-73 290.5,-73 290.5,-73 333.5,-73 333.5,-73 339.5,-73 345.5,-79 345.5,-85 345.5,-85 345.5,-97 345.5,-97 345.5,-103 339.5,-109 333.5,-109"/>
<text text-anchor="middle" x="312" y="-87.9" font-family="Times,serif" font-size="12.00">distance</text>
</g>
<!-- project&#45;&gt;distance -->
<g id="edge7" class="edge">
<title>project&#45;&gt;distance</title>
<path fill="none" stroke="#708090" d="M245.81,-155.82C257.73,-144.33 273.59,-129.04 286.79,-116.31"/>
<polygon fill="#708090" stroke="#708090" points="289.44,-118.61 294.21,-109.15 284.58,-113.58 289.44,-118.61"/>
</g>
<!-- project_pc&#45;&gt;project -->
<g id="edge3" class="edge">
<title>project_pc&#45;&gt;project</title>
<path fill="none" stroke="#708090" d="M139.02,-228.99C154.54,-219.58 174.02,-207.76 190.8,-197.57"/>
<polygon fill="#708090" stroke="#708090" points="193.07,-200.29 199.8,-192.11 189.43,-194.31 193.07,-200.29"/>
</g>
<!-- kinematics&#45;&gt;distance -->
<g id="edge6" class="edge">
<title>kinematics&#45;&gt;distance</title>
<path fill="none" stroke="#708090" d="M379.76,-155.82C367.56,-144.33 351.33,-129.04 337.81,-116.31"/>
<polygon fill="#708090" stroke="#708090" points="339.89,-113.46 330.21,-109.15 335.09,-118.56 339.89,-113.46"/>
<text text-anchor="middle" x="398" y="-130" font-family="Times,serif" font-size="10.00">Robot Spheres</text>
</g>
<!-- mask -->
<g id="node9" class="node">
<title>mask</title>
<path fill="#cccccc" stroke="#cccccc" d="M327,-36C327,-36 297,-36 297,-36 291,-36 285,-30 285,-24 285,-24 285,-12 285,-12 285,-6 291,0 297,0 297,0 327,0 327,0 333,0 339,-6 339,-12 339,-12 339,-24 339,-24 339,-30 333,-36 327,-36"/>
<text text-anchor="middle" x="312" y="-14.9" font-family="Times,serif" font-size="12.00">mask</text>
</g>
<!-- distance&#45;&gt;mask -->
<g id="edge8" class="edge">
<title>distance&#45;&gt;mask</title>
<path fill="none" stroke="#708090" d="M312,-72.81C312,-64.79 312,-55.05 312,-46.07"/>
<polygon fill="#708090" stroke="#708090" points="315.5,-46.03 312,-36.03 308.5,-46.03 315.5,-46.03"/>
</g>
</g>
</svg>
