<?xml version="1.0" encoding="UTF-8" standalone="no"?>
<!DOCTYPE svg PUBLIC "-//W3C//DTD SVG 1.1//EN"
 "http://www.w3.org/Graphics/SVG/1.1/DTD/svg11.dtd">
<!-- Generated by graphviz version 2.43.0 (0)
 -->
<!-- Title: %3 Pages: 1 -->
<svg width="602pt" height="393pt"
 viewBox="0.00 0.00 602.00 393.00" xmlns="http://www.w3.org/2000/svg" xmlns:xlink="http://www.w3.org/1999/xlink">
<g id="graph0" class="graph" transform="scale(1 1) rotate(0) translate(4 389)">
<title>%3</title>
<polygon fill="white" stroke="transparent" points="-4,4 -4,-389 598,-389 598,4 -4,4"/>
<g id="clust1" class="cluster">
<title>cluster_collision</title>
<polygon fill="none" stroke="black" points="8,-8 8,-249 184,-249 184,-8 8,-8"/>
<text text-anchor="middle" x="96" y="-233.8" font-family="Times,serif" font-size="14.00">Collision Checker</text>
</g>
<!-- Cuboid[] -->
<g id="node1" class="node">
<title>Cuboid[]</title>
<path fill="#76b900" stroke="#76b900" d="M159,-312C159,-312 115,-312 115,-312 109,-312 103,-306 103,-300 103,-300 103,-288 103,-288 103,-282 109,-276 115,-276 115,-276 159,-276 159,-276 165,-276 171,-282 171,-288 171,-288 171,-300 171,-300 171,-306 165,-312 159,-312"/>
<text text-anchor="middle" x="137" y="-290.9" font-family="Times,serif" font-size="12.00" fill="#ffffff">Cuboid[]</text>
</g>
<!-- WorldCollision -->
<g id="node8" class="node">
<title>WorldCollision</title>
<path fill="#76b900" stroke="#76b900" d="M164,-218C164,-218 28,-218 28,-218 22,-218 16,-212 16,-206 16,-206 16,-194 16,-194 16,-188 22,-182 28,-182 28,-182 164,-182 164,-182 170,-182 176,-188 176,-194 176,-194 176,-206 176,-206 176,-212 170,-218 164,-218"/>
<text text-anchor="middle" x="96" y="-196.9" font-family="Times,serif" font-size="12.00" fill="#ffffff">WorldPrimitiveCollision</text>
</g>
<!-- Cuboid[]&#45;&gt;WorldCollision -->
<g id="edge7" class="edge">
<title>Cuboid[]&#45;&gt;WorldCollision</title>
<path fill="none" stroke="#2b4162" d="M129.29,-275.7C123.28,-262.2 114.82,-243.23 107.93,-227.78"/>
<polygon fill="#2b4162" stroke="#2b4162" points="110.94,-225.94 103.68,-218.23 104.55,-228.79 110.94,-225.94"/>
</g>
<!-- Mesh[] -->
<g id="node2" class="node">
<title>Mesh[]</title>
<path fill="#76b900" stroke="#76b900" d="M240,-218C240,-218 206,-218 206,-218 200,-218 194,-212 194,-206 194,-206 194,-194 194,-194 194,-188 200,-182 206,-182 206,-182 240,-182 240,-182 246,-182 252,-188 252,-194 252,-194 252,-206 252,-206 252,-212 246,-218 240,-218"/>
<text text-anchor="middle" x="223" y="-196.9" font-family="Times,serif" font-size="12.00" fill="#ffffff">Mesh[]</text>
</g>
<!-- WorldMeshCollision -->
<g id="node9" class="node">
<title>WorldMeshCollision</title>
<path fill="#76b900" stroke="#76b900" d="M163.5,-135C163.5,-135 50.5,-135 50.5,-135 44.5,-135 38.5,-129 38.5,-123 38.5,-123 38.5,-111 38.5,-111 38.5,-105 44.5,-99 50.5,-99 50.5,-99 163.5,-99 163.5,-99 169.5,-99 175.5,-105 175.5,-111 175.5,-111 175.5,-123 175.5,-123 175.5,-129 169.5,-135 163.5,-135"/>
<text text-anchor="middle" x="107" y="-113.9" font-family="Times,serif" font-size="12.00" fill="#ffffff">WorldMeshCollision</text>
</g>
<!-- Mesh[]&#45;&gt;WorldMeshCollision -->
<g id="edge8" class="edge">
<title>Mesh[]&#45;&gt;WorldMeshCollision</title>
<path fill="none" stroke="#2b4162" d="M202.82,-181.95C191.88,-172.98 177.99,-162.01 165,-153 158.89,-148.76 152.26,-144.48 145.73,-140.43"/>
<polygon fill="#2b4162" stroke="#2b4162" points="147.33,-137.31 136.97,-135.09 143.69,-143.28 147.33,-137.31"/>
</g>
<!-- BloxMap[] -->
<g id="node3" class="node">
<title>BloxMap[]</title>
<path fill="#76b900" stroke="#76b900" d="M308,-312C308,-312 252,-312 252,-312 246,-312 240,-306 240,-300 240,-300 240,-288 240,-288 240,-282 246,-276 252,-276 252,-276 308,-276 308,-276 314,-276 320,-282 320,-288 320,-288 320,-300 320,-300 320,-306 314,-312 308,-312"/>
<text text-anchor="middle" x="280" y="-290.9" font-family="Times,serif" font-size="12.00" fill="#ffffff">BloxMap[]</text>
</g>
<!-- WorldBloxCollision -->
<g id="node10" class="node">
<title>WorldBloxCollision</title>
<path fill="#76b900" stroke="#76b900" d="M163,-52C163,-52 55,-52 55,-52 49,-52 43,-46 43,-40 43,-40 43,-28 43,-28 43,-22 49,-16 55,-16 55,-16 163,-16 163,-16 169,-16 175,-22 175,-28 175,-28 175,-40 175,-40 175,-46 169,-52 163,-52"/>
<text text-anchor="middle" x="109" y="-30.9" font-family="Times,serif" font-size="12.00" fill="#ffffff">WorldBloxCollision</text>
</g>
<!-- BloxMap[]&#45;&gt;WorldBloxCollision -->
<g id="edge9" class="edge">
<title>BloxMap[]&#45;&gt;WorldBloxCollision</title>
<path fill="none" stroke="#2b4162" d="M279.7,-275.68C278.73,-253.15 274.97,-213.02 261,-182 234.77,-123.78 219.68,-111.33 171,-70 165.68,-65.49 159.7,-61.26 153.59,-57.42"/>
<polygon fill="#2b4162" stroke="#2b4162" points="155.02,-54.19 144.64,-52.07 151.43,-60.2 155.02,-54.19"/>
</g>
<!-- WorldConfig -->
<g id="node4" class="node">
<title>WorldConfig</title>
<path fill="#76b900" stroke="#76b900" d="M383,-385C383,-385 315,-385 315,-385 309,-385 303,-379 303,-373 303,-373 303,-361 303,-361 303,-355 309,-349 315,-349 315,-349 383,-349 383,-349 389,-349 395,-355 395,-361 395,-361 395,-373 395,-373 395,-379 389,-385 383,-385"/>
<text text-anchor="middle" x="349" y="-363.9" font-family="Times,serif" font-size="12.00" fill="#ffffff">WorldConfig</text>
</g>
<!-- WorldConfig&#45;&gt;Cuboid[] -->
<g id="edge1" class="edge">
<title>WorldConfig&#45;&gt;Cuboid[]</title>
<path fill="none" stroke="#2b4162" d="M302.97,-359.1C272.47,-353.62 231.98,-344.59 198,-331 188.76,-327.31 179.27,-322.35 170.61,-317.3"/>
<polygon fill="#2b4162" stroke="#2b4162" points="172.3,-314.23 161.93,-312.05 168.68,-320.22 172.3,-314.23"/>
</g>
<!-- WorldConfig&#45;&gt;Mesh[] -->
<g id="edge2" class="edge">
<title>WorldConfig&#45;&gt;Mesh[]</title>
<path fill="none" stroke="#2b4162" d="M302.93,-356.94C277.41,-349.4 247.57,-335.87 231,-312 214.01,-287.53 214.59,-252.27 217.73,-228.1"/>
<polygon fill="#2b4162" stroke="#2b4162" points="221.2,-228.58 219.24,-218.16 214.28,-227.52 221.2,-228.58"/>
</g>
<!-- WorldConfig&#45;&gt;BloxMap[] -->
<g id="edge3" class="edge">
<title>WorldConfig&#45;&gt;BloxMap[]</title>
<path fill="none" stroke="#2b4162" d="M332.3,-348.81C323.74,-340 313.16,-329.13 303.77,-319.46"/>
<polygon fill="#2b4162" stroke="#2b4162" points="306.03,-316.76 296.55,-312.03 301.01,-321.64 306.03,-316.76"/>
</g>
<!-- Sphere[] -->
<g id="node5" class="node">
<title>Sphere[]</title>
<path fill="#cccccc" stroke="#cccccc" d="M394,-312C394,-312 350,-312 350,-312 344,-312 338,-306 338,-300 338,-300 338,-288 338,-288 338,-282 344,-276 350,-276 350,-276 394,-276 394,-276 400,-276 406,-282 406,-288 406,-288 406,-300 406,-300 406,-306 400,-312 394,-312"/>
<text text-anchor="middle" x="372" y="-290.9" font-family="Times,serif" font-size="12.00">Sphere[]</text>
</g>
<!-- WorldConfig&#45;&gt;Sphere[] -->
<g id="edge4" class="edge">
<title>WorldConfig&#45;&gt;Sphere[]</title>
<path fill="none" stroke="#2b4162" d="M354.57,-348.81C357.2,-340.7 360.39,-330.84 363.33,-321.78"/>
<polygon fill="#2b4162" stroke="#2b4162" points="366.73,-322.62 366.48,-312.03 360.07,-320.46 366.73,-322.62"/>
</g>
<!-- Cylinder[] -->
<g id="node6" class="node">
<title>Cylinder[]</title>
<path fill="#cccccc" stroke="#cccccc" d="M489.5,-312C489.5,-312 436.5,-312 436.5,-312 430.5,-312 424.5,-306 424.5,-300 424.5,-300 424.5,-288 424.5,-288 424.5,-282 430.5,-276 436.5,-276 436.5,-276 489.5,-276 489.5,-276 495.5,-276 501.5,-282 501.5,-288 501.5,-288 501.5,-300 501.5,-300 501.5,-306 495.5,-312 489.5,-312"/>
<text text-anchor="middle" x="463" y="-290.9" font-family="Times,serif" font-size="12.00">Cylinder[]</text>
</g>
<!-- WorldConfig&#45;&gt;Cylinder[] -->
<g id="edge5" class="edge">
<title>WorldConfig&#45;&gt;Cylinder[]</title>
<path fill="none" stroke="#2b4162" d="M376.31,-348.99C391.42,-339.58 410.41,-327.76 426.75,-317.57"/>
<polygon fill="#2b4162" stroke="#2b4162" points="428.88,-320.37 435.52,-312.11 425.18,-314.43 428.88,-320.37"/>
</g>
<!-- Capsule[] -->
<g id="node7" class="node">
<title>Capsule[]</title>
<path fill="#cccccc" stroke="#cccccc" d="M582,-312C582,-312 532,-312 532,-312 526,-312 520,-306 520,-300 520,-300 520,-288 520,-288 520,-282 526,-276 532,-276 532,-276 582,-276 582,-276 588,-276 594,-282 594,-288 594,-288 594,-300 594,-300 594,-306 588,-312 582,-312"/>
<text text-anchor="middle" x="557" y="-290.9" font-family="Times,serif" font-size="12.00">Capsule[]</text>
</g>
<!-- WorldConfig&#45;&gt;Capsule[] -->
<g id="edge6" class="edge">
<title>WorldConfig&#45;&gt;Capsule[]</title>
<path fill="none" stroke="#2b4162" d="M395.22,-351.03C425.55,-341.11 466.27,-327.6 510.41,-312.16"/>
<polygon fill="#2b4162" stroke="#2b4162" points="511.6,-315.45 519.88,-308.83 509.29,-308.85 511.6,-315.45"/>
</g>
<!-- WorldCollision&#45;&gt;WorldMeshCollision -->
<g id="edge10" class="edge">
<title>WorldCollision&#45;&gt;WorldMeshCollision</title>
<path fill="none" stroke="#76b900" stroke-dasharray="5,2" d="M98.33,-181.82C99.78,-171.19 101.66,-157.31 103.31,-145.2"/>
<polygon fill="#76b900" stroke="#76b900" points="106.79,-145.53 104.67,-135.15 99.86,-144.59 106.79,-145.53"/>
<text text-anchor="middle" x="132" y="-156" font-family="Times,serif" font-size="10.00">inheritance</text>
</g>
<!-- WorldMeshCollision&#45;&gt;WorldBloxCollision -->
<g id="edge11" class="edge">
<title>WorldMeshCollision&#45;&gt;WorldBloxCollision</title>
<path fill="none" stroke="#76b900" stroke-dasharray="5,2" d="M107.42,-98.82C107.69,-88.19 108.03,-74.31 108.33,-62.2"/>
<polygon fill="#76b900" stroke="#76b900" points="111.83,-62.24 108.58,-52.15 104.83,-62.06 111.83,-62.24"/>
<text text-anchor="middle" x="138" y="-73" font-family="Times,serif" font-size="10.00">inheritance</text>
</g>
</g>
</svg>
