<?xml version="1.0" encoding="UTF-8" standalone="no"?>
<!DOCTYPE svg PUBLIC "-//W3C//DTD SVG 1.1//EN"
 "http://www.w3.org/Graphics/SVG/1.1/DTD/svg11.dtd">
<!-- Generated by graphviz version 2.43.0 (0)
 -->
<!-- Title: %3 Pages: 1 -->
<svg width="373pt" height="827pt"
 viewBox="0.00 0.00 373.00 827.00" xmlns="http://www.w3.org/2000/svg" xmlns:xlink="http://www.w3.org/1999/xlink">
<g id="graph0" class="graph" transform="scale(1 1) rotate(0) translate(4 823)">
<title>%3</title>
<polygon fill="#fefefe" stroke="transparent" points="-4,4 -4,-823 369,-823 369,4 -4,4"/>
<g id="clust1" class="cluster">
<title>cluster_kernel</title>
<polygon fill="#fefefe" stroke="#76b900" points="8,-65 8,-779 357,-779 357,-65 8,-65"/>
<text text-anchor="middle" x="182.5" y="-763.8" font-family="Times,serif" font-size="14.00">1 Thread per Sphere</text>
</g>
<g id="clust2" class="cluster">
<title>cluster_object</title>
<polygon fill="#fefefe" stroke="#2b4162" points="16,-136 16,-708 349,-708 349,-136 16,-136"/>
<text text-anchor="middle" x="182.5" y="-692.8" font-family="Times,serif" font-size="14.00">For loop over objects in sphere environment</text>
</g>
<g id="clust3" class="cluster">
<title>cluster_collision</title>
<polygon fill="#fefefe" stroke="#2b4162" stroke-dasharray="5,2" points="38,-144 38,-448 326,-448 326,-144 38,-144"/>
<text text-anchor="middle" x="182" y="-432.8" font-family="Times,serif" font-size="14.00">If in collision</text>
</g>
<!-- bquery -->
<g id="node1" class="node">
<title>bquery</title>
<text text-anchor="middle" x="182" y="-809.4" font-family="Times,serif" font-size="12.00">Batch of Spheres</text>
</g>
<!-- query -->
<g id="node2" class="node">
<title>query</title>
<text text-anchor="middle" x="182" y="-738.4" font-family="Times,serif" font-size="12.00">query sphere</text>
</g>
<!-- bquery&#45;&gt;query -->
<g id="edge1" class="edge">
<title>bquery&#45;&gt;query</title>
<path fill="none" stroke="#2b4162" d="M182,-805.62C182,-795.33 182,-773.74 182,-758.69"/>
<polygon fill="#2b4162" stroke="#2b4162" points="185.5,-758.37 182,-748.37 178.5,-758.37 185.5,-758.37"/>
</g>
<!-- enable -->
<g id="node11" class="node">
<title>enable</title>
<path fill="#76b900" stroke="#76b900" d="M234.5,-677C234.5,-677 129.5,-677 129.5,-677 123.5,-677 117.5,-671 117.5,-665 117.5,-665 117.5,-653 117.5,-653 117.5,-647 123.5,-641 129.5,-641 129.5,-641 234.5,-641 234.5,-641 240.5,-641 246.5,-647 246.5,-653 246.5,-653 246.5,-665 246.5,-665 246.5,-671 240.5,-677 234.5,-677"/>
<text text-anchor="middle" x="182" y="-655.9" font-family="Times,serif" font-size="12.00" fill="#ffffff">Obstacle Enabled?</text>
</g>
<!-- query&#45;&gt;enable -->
<g id="edge2" class="edge">
<title>query&#45;&gt;enable</title>
<path fill="none" stroke="#2b4162" d="M182,-734.97C182,-725.26 182,-704.56 182,-687.36"/>
<polygon fill="#2b4162" stroke="#2b4162" points="185.5,-687.24 182,-677.24 178.5,-687.24 185.5,-687.24"/>
</g>
<!-- transform -->
<g id="node3" class="node">
<title>transform</title>
<path fill="#76b900" stroke="#76b900" d="M277.5,-594C277.5,-594 86.5,-594 86.5,-594 80.5,-594 74.5,-588 74.5,-582 74.5,-582 74.5,-570 74.5,-570 74.5,-564 80.5,-558 86.5,-558 86.5,-558 277.5,-558 277.5,-558 283.5,-558 289.5,-564 289.5,-570 289.5,-570 289.5,-582 289.5,-582 289.5,-588 283.5,-594 277.5,-594"/>
<text text-anchor="middle" x="182" y="-572.9" font-family="Times,serif" font-size="12.00" fill="#ffffff">Transform Sphere to Obj. Frame</text>
</g>
<!-- check -->
<g id="node4" class="node">
<title>check</title>
<path fill="#76b900" stroke="#76b900" d="M224,-511C224,-511 140,-511 140,-511 134,-511 128,-505 128,-499 128,-499 128,-487 128,-487 128,-481 134,-475 140,-475 140,-475 224,-475 224,-475 230,-475 236,-481 236,-487 236,-487 236,-499 236,-499 236,-505 230,-511 224,-511"/>
<text text-anchor="middle" x="182" y="-489.9" font-family="Times,serif" font-size="12.00" fill="#ffffff">Check collision</text>
</g>
<!-- transform&#45;&gt;check -->
<g id="edge4" class="edge">
<title>transform&#45;&gt;check</title>
<path fill="none" stroke="#2b4162" d="M182,-557.82C182,-547.19 182,-533.31 182,-521.2"/>
<polygon fill="#2b4162" stroke="#2b4162" points="185.5,-521.15 182,-511.15 178.5,-521.15 185.5,-521.15"/>
<text text-anchor="middle" x="239.5" y="-532" font-family="Times,serif" font-size="10.00">sphere in object frame</text>
</g>
<!-- clpt -->
<g id="node5" class="node">
<title>clpt</title>
<path fill="#76b900" stroke="#76b900" d="M306,-417C306,-417 58,-417 58,-417 52,-417 46,-411 46,-405 46,-405 46,-393 46,-393 46,-387 52,-381 58,-381 58,-381 306,-381 306,-381 312,-381 318,-387 318,-393 318,-393 318,-405 318,-405 318,-411 312,-417 306,-417"/>
<text text-anchor="middle" x="182" y="-395.9" font-family="Times,serif" font-size="12.00" fill="#ffffff">Compute Closest Point on object to sphere</text>
</g>
<!-- check&#45;&gt;clpt -->
<g id="edge5" class="edge">
<title>check&#45;&gt;clpt</title>
<path fill="none" stroke="#2b4162" stroke-dasharray="5,2" d="M182,-474.7C182,-461.46 182,-442.95 182,-427.66"/>
<polygon fill="#2b4162" stroke="#2b4162" points="185.5,-427.23 182,-417.23 178.5,-427.23 185.5,-427.23"/>
</g>
<!-- cost -->
<g id="node6" class="node">
<title>cost</title>
<path fill="#76b900" stroke="#76b900" d="M256,-344C256,-344 108,-344 108,-344 102,-344 96,-338 96,-332 96,-332 96,-320 96,-320 96,-314 102,-308 108,-308 108,-308 256,-308 256,-308 262,-308 268,-314 268,-320 268,-320 268,-332 268,-332 268,-338 262,-344 256,-344"/>
<text text-anchor="middle" x="182" y="-322.9" font-family="Times,serif" font-size="12.00" fill="#ffffff">Compute cost &#160;&amp; gradient</text>
</g>
<!-- clpt&#45;&gt;cost -->
<g id="edge6" class="edge">
<title>clpt&#45;&gt;cost</title>
<path fill="none" stroke="#2b4162" stroke-dasharray="5,2" d="M182,-380.81C182,-372.79 182,-363.05 182,-354.07"/>
<polygon fill="#2b4162" stroke="#2b4162" points="185.5,-354.03 182,-344.03 178.5,-354.03 185.5,-354.03"/>
</g>
<!-- inv_transform -->
<g id="node7" class="node">
<title>inv_transform</title>
<path fill="#76b900" stroke="#76b900" d="M287.5,-271C287.5,-271 76.5,-271 76.5,-271 70.5,-271 64.5,-265 64.5,-259 64.5,-259 64.5,-247 64.5,-247 64.5,-241 70.5,-235 76.5,-235 76.5,-235 287.5,-235 287.5,-235 293.5,-235 299.5,-241 299.5,-247 299.5,-247 299.5,-259 299.5,-259 299.5,-265 293.5,-271 287.5,-271"/>
<text text-anchor="middle" x="182" y="-249.9" font-family="Times,serif" font-size="12.00" fill="#ffffff">Transform gradient to World Frame</text>
</g>
<!-- cost&#45;&gt;inv_transform -->
<g id="edge7" class="edge">
<title>cost&#45;&gt;inv_transform</title>
<path fill="none" stroke="#2b4162" stroke-dasharray="5,2" d="M182,-307.81C182,-299.79 182,-290.05 182,-281.07"/>
<polygon fill="#2b4162" stroke="#2b4162" points="185.5,-281.03 182,-271.03 178.5,-281.03 185.5,-281.03"/>
</g>
<!-- sum_cost -->
<g id="node8" class="node">
<title>sum_cost</title>
<path fill="#76b900" stroke="#76b900" d="M243,-188C243,-188 121,-188 121,-188 115,-188 109,-182 109,-176 109,-176 109,-164 109,-164 109,-158 115,-152 121,-152 121,-152 243,-152 243,-152 249,-152 255,-158 255,-164 255,-164 255,-176 255,-176 255,-182 249,-188 243,-188"/>
<text text-anchor="middle" x="182" y="-166.9" font-family="Times,serif" font-size="12.00" fill="#ffffff">Sum Cost &amp; Gradient</text>
</g>
<!-- inv_transform&#45;&gt;sum_cost -->
<g id="edge8" class="edge">
<title>inv_transform&#45;&gt;sum_cost</title>
<path fill="none" stroke="#2b4162" stroke-dasharray="5,2" d="M182,-234.82C182,-224.19 182,-210.31 182,-198.2"/>
<polygon fill="#2b4162" stroke="#2b4162" points="185.5,-198.15 182,-188.15 178.5,-198.15 185.5,-198.15"/>
<text text-anchor="middle" x="242.5" y="-209" font-family="Times,serif" font-size="10.00">gradient in world frame</text>
</g>
<!-- write -->
<g id="node9" class="node">
<title>write</title>
<path fill="#76b900" stroke="#76b900" d="M246,-109C246,-109 118,-109 118,-109 112,-109 106,-103 106,-97 106,-97 106,-85 106,-85 106,-79 112,-73 118,-73 118,-73 246,-73 246,-73 252,-73 258,-79 258,-85 258,-85 258,-97 258,-97 258,-103 252,-109 246,-109"/>
<text text-anchor="middle" x="182" y="-87.9" font-family="Times,serif" font-size="12.00" fill="#ffffff">Write Cost &amp; Gradient</text>
</g>
<!-- sum_cost&#45;&gt;write -->
<g id="edge9" class="edge">
<title>sum_cost&#45;&gt;write</title>
<path fill="none" stroke="#2b4162" d="M182,-151.91C182,-142.34 182,-130.18 182,-119.32"/>
<polygon fill="#2b4162" stroke="#2b4162" points="185.5,-119.04 182,-109.04 178.5,-119.04 185.5,-119.04"/>
</g>
<!-- sum_all -->
<g id="node10" class="node">
<title>sum_all</title>
<path fill="#76b900" stroke="#76b900" d="M255,-36C255,-36 109,-36 109,-36 103,-36 97,-30 97,-24 97,-24 97,-12 97,-12 97,-6 103,0 109,0 109,0 255,0 255,0 261,0 267,-6 267,-12 267,-12 267,-24 267,-24 267,-30 261,-36 255,-36"/>
<text text-anchor="middle" x="182" y="-14.9" font-family="Times,serif" font-size="12.00" fill="#ffffff">Sum Cost across Spheres</text>
</g>
<!-- write&#45;&gt;sum_all -->
<g id="edge10" class="edge">
<title>write&#45;&gt;sum_all</title>
<path fill="none" stroke="#2b4162" d="M182,-72.81C182,-64.79 182,-55.05 182,-46.07"/>
<polygon fill="#2b4162" stroke="#2b4162" points="185.5,-46.03 182,-36.03 178.5,-46.03 185.5,-46.03"/>
</g>
<!-- enable&#45;&gt;transform -->
<g id="edge3" class="edge">
<title>enable&#45;&gt;transform</title>
<path fill="none" stroke="#2b4162" d="M182,-640.82C182,-630.19 182,-616.31 182,-604.2"/>
<polygon fill="#2b4162" stroke="#2b4162" points="185.5,-604.15 182,-594.15 178.5,-604.15 185.5,-604.15"/>
<text text-anchor="middle" x="230.5" y="-615" font-family="Times,serif" font-size="10.00">only when enabled</text>
</g>
</g>
</svg>
