<?xml version="1.0" encoding="UTF-8" standalone="no"?>
<!DOCTYPE svg PUBLIC "-//W3C//DTD SVG 1.1//EN"
 "http://www.w3.org/Graphics/SVG/1.1/DTD/svg11.dtd">
<!-- Generated by graphviz version 2.43.0 (0)
 -->
<!-- Title: %3 Pages: 1 -->
<svg width="212pt" height="116pt"
 viewBox="0.00 0.00 212.00 116.00" xmlns="http://www.w3.org/2000/svg" xmlns:xlink="http://www.w3.org/1999/xlink">
<g id="graph0" class="graph" transform="scale(1 1) rotate(0) translate(4 112)">
<title>%3</title>
<polygon fill="white" stroke="transparent" points="-4,4 -4,-112 208,-112 208,4 -4,4"/>
<!-- Obstacle -->
<g id="node1" class="node">
<title>Obstacle</title>
<path fill="#cccccc" stroke="#cccccc" d="M124.5,-108C124.5,-108 79.5,-108 79.5,-108 73.5,-108 67.5,-102 67.5,-96 67.5,-96 67.5,-84 67.5,-84 67.5,-78 73.5,-72 79.5,-72 79.5,-72 124.5,-72 124.5,-72 130.5,-72 136.5,-78 136.5,-84 136.5,-84 136.5,-96 136.5,-96 136.5,-102 130.5,-108 124.5,-108"/>
<text text-anchor="middle" x="102" y="-86.9" font-family="Times,serif" font-size="12.00">Obstacle</text>
</g>
<!-- Pose -->
<g id="node2" class="node">
<title>Pose</title>
<path fill="#cccccc" stroke="#cccccc" d="M42,-36C42,-36 12,-36 12,-36 6,-36 0,-30 0,-24 0,-24 0,-12 0,-12 0,-6 6,0 12,0 12,0 42,0 42,0 48,0 54,-6 54,-12 54,-12 54,-24 54,-24 54,-30 48,-36 42,-36"/>
<text text-anchor="middle" x="27" y="-14.9" font-family="Times,serif" font-size="12.00">Pose</text>
</g>
<!-- Obstacle&#45;&gt;Pose -->
<g id="edge1" class="edge">
<title>Obstacle&#45;&gt;Pose</title>
<path fill="none" stroke="#2b4162" d="M83.46,-71.7C74.2,-63.05 62.84,-52.45 52.74,-43.03"/>
<polygon fill="#2b4162" stroke="#2b4162" points="55.02,-40.37 45.33,-36.1 50.25,-45.49 55.02,-40.37"/>
</g>
<!-- Enable -->
<g id="node3" class="node">
<title>Enable</title>
<path fill="#cccccc" stroke="#cccccc" d="M119.5,-36C119.5,-36 84.5,-36 84.5,-36 78.5,-36 72.5,-30 72.5,-24 72.5,-24 72.5,-12 72.5,-12 72.5,-6 78.5,0 84.5,0 84.5,0 119.5,0 119.5,0 125.5,0 131.5,-6 131.5,-12 131.5,-12 131.5,-24 131.5,-24 131.5,-30 125.5,-36 119.5,-36"/>
<text text-anchor="middle" x="102" y="-14.9" font-family="Times,serif" font-size="12.00">Enable</text>
</g>
<!-- Obstacle&#45;&gt;Enable -->
<g id="edge2" class="edge">
<title>Obstacle&#45;&gt;Enable</title>
<path fill="none" stroke="#2b4162" d="M102,-71.7C102,-63.98 102,-54.71 102,-46.11"/>
<polygon fill="#2b4162" stroke="#2b4162" points="105.5,-46.1 102,-36.1 98.5,-46.1 105.5,-46.1"/>
</g>
<!-- Data -->
<g id="node4" class="node">
<title>Data</title>
<path fill="#cccccc" stroke="#cccccc" d="M192,-36C192,-36 162,-36 162,-36 156,-36 150,-30 150,-24 150,-24 150,-12 150,-12 150,-6 156,0 162,0 162,0 192,0 192,0 198,0 204,-6 204,-12 204,-12 204,-24 204,-24 204,-30 198,-36 192,-36"/>
<text text-anchor="middle" x="177" y="-14.9" font-family="Times,serif" font-size="12.00">Data</text>
</g>
<!-- Obstacle&#45;&gt;Data -->
<g id="edge3" class="edge">
<title>Obstacle&#45;&gt;Data</title>
<path fill="none" stroke="#2b4162" d="M120.54,-71.7C129.8,-63.05 141.16,-52.45 151.26,-43.03"/>
<polygon fill="#2b4162" stroke="#2b4162" points="153.75,-45.49 158.67,-36.1 148.98,-40.37 153.75,-45.49"/>
</g>
</g>
</svg>
