<?xml version="1.0" encoding="UTF-8" standalone="no"?>
<!DOCTYPE svg PUBLIC "-//W3C//DTD SVG 1.1//EN"
 "http://www.w3.org/Graphics/SVG/1.1/DTD/svg11.dtd">
<!-- Generated by graphviz version 2.43.0 (0)
 -->
<!-- Title: %3 Pages: 1 -->
<svg width="453pt" height="386pt"
 viewBox="0.00 0.00 453.00 386.00" xmlns="http://www.w3.org/2000/svg" xmlns:xlink="http://www.w3.org/1999/xlink">
<g id="graph0" class="graph" transform="scale(1 1) rotate(0) translate(4 382)">
<title>%3</title>
<polygon fill="white" stroke="transparent" points="-4,4 -4,-382 449,-382 449,4 -4,4"/>
<text text-anchor="middle" x="222.5" y="-362.8" font-family="Times,serif" font-size="14.00">cuRobo Isaac Sim Interface</text>
<g id="clust1" class="cluster">
<title>cluster_world_monitor</title>
<polygon fill="none" stroke="black" points="8,-138 8,-282 177,-282 177,-138 8,-138"/>
<text text-anchor="middle" x="92.5" y="-270" font-family="Times,serif" font-size="10.00">cuRobo World Monitor (0.1hz)</text>
</g>
<!-- Isaac Sim -->
<g id="node1" class="node">
<title>Isaac Sim</title>
<path fill="#cccccc" stroke="#cccccc" d="M278,-355C278,-355 226,-355 226,-355 220,-355 214,-349 214,-343 214,-343 214,-331 214,-331 214,-325 220,-319 226,-319 226,-319 278,-319 278,-319 284,-319 290,-325 290,-331 290,-331 290,-343 290,-343 290,-349 284,-355 278,-355"/>
<text text-anchor="middle" x="252" y="-333.9" font-family="Times,serif" font-size="12.00">Isaac Sim</text>
</g>
<!-- motion_gen -->
<g id="node3" class="node">
<title>motion_gen</title>
<path fill="#76b900" stroke="#76b900" d="M358.5,-36C358.5,-36 145.5,-36 145.5,-36 139.5,-36 133.5,-30 133.5,-24 133.5,-24 133.5,-12 133.5,-12 133.5,-6 139.5,0 145.5,0 145.5,0 358.5,0 358.5,0 364.5,0 370.5,-6 370.5,-12 370.5,-12 370.5,-24 370.5,-24 370.5,-30 364.5,-36 358.5,-36"/>
<text text-anchor="middle" x="252" y="-14.9" font-family="Times,serif" font-size="12.00" fill="white">cuRobo MotionGen / IKSolver / MPC</text>
</g>
<!-- Isaac Sim&#45;&gt;motion_gen -->
<g id="edge3" class="edge">
<title>Isaac Sim&#45;&gt;motion_gen</title>
<path fill="none" stroke="#708090" d="M237.6,-318.82C223.46,-300.17 204,-268.88 204,-238 204,-238 204,-238 204,-90 204,-72.5 214.13,-56.1 225.08,-43.48"/>
<polygon fill="#708090" stroke="#708090" points="227.67,-45.83 231.92,-36.13 222.55,-41.06 227.67,-45.83"/>
<text text-anchor="middle" x="234" y="-161.5" font-family="Times,serif" font-size="10.00">Robot State</text>
</g>
<!-- Isaac Sim&#45;&gt;motion_gen -->
<g id="edge4" class="edge">
<title>Isaac Sim&#45;&gt;motion_gen</title>
<path fill="none" stroke="#708090" d="M266.4,-318.82C280.54,-300.17 300,-268.88 300,-238 300,-238 300,-238 300,-90 300,-72.5 289.87,-56.1 278.92,-43.48"/>
<polygon fill="#708090" stroke="#708090" points="281.45,-41.06 272.08,-36.13 276.33,-45.83 281.45,-41.06"/>
<text text-anchor="middle" x="325" y="-161.5" font-family="Times,serif" font-size="10.00">Goal Pose</text>
</g>
<!-- usd_help -->
<g id="node4" class="node">
<title>usd_help</title>
<path fill="#76b900" stroke="#76b900" d="M153.5,-255C153.5,-255 46.5,-255 46.5,-255 40.5,-255 34.5,-249 34.5,-243 34.5,-243 34.5,-231 34.5,-231 34.5,-225 40.5,-219 46.5,-219 46.5,-219 153.5,-219 153.5,-219 159.5,-219 165.5,-225 165.5,-231 165.5,-231 165.5,-243 165.5,-243 165.5,-249 159.5,-255 153.5,-255"/>
<text text-anchor="middle" x="100" y="-233.9" font-family="Times,serif" font-size="12.00" fill="white">cuRobo UsdHelper</text>
</g>
<!-- Isaac Sim&#45;&gt;usd_help -->
<g id="edge1" class="edge">
<title>Isaac Sim&#45;&gt;usd_help</title>
<path fill="none" stroke="#708090" d="M213.77,-331.58C189.67,-327.16 159.04,-318.38 137,-301 125.01,-291.55 116.12,-277.07 110.06,-264.37"/>
<polygon fill="#708090" stroke="#708090" points="113.22,-262.85 105.98,-255.12 106.82,-265.68 113.22,-262.85"/>
<text text-anchor="middle" x="163.5" y="-293" font-family="Times,serif" font-size="10.00">Usd Stage</text>
</g>
<!-- world_coll -->
<g id="node2" class="node">
<title>world_coll</title>
<path fill="#76b900" stroke="#76b900" d="M163.5,-109C163.5,-109 32.5,-109 32.5,-109 26.5,-109 20.5,-103 20.5,-97 20.5,-97 20.5,-85 20.5,-85 20.5,-79 26.5,-73 32.5,-73 32.5,-73 163.5,-73 163.5,-73 169.5,-73 175.5,-79 175.5,-85 175.5,-85 175.5,-97 175.5,-97 175.5,-103 169.5,-109 163.5,-109"/>
<text text-anchor="middle" x="98" y="-87.9" font-family="Times,serif" font-size="12.00" fill="white">cuRobo WorldCollision</text>
</g>
<!-- world_coll&#45;&gt;motion_gen -->
<g id="edge7" class="edge">
<title>world_coll&#45;&gt;motion_gen</title>
<path fill="none" stroke="#708090" d="M134.89,-72.99C156.16,-63.19 183.1,-50.77 205.78,-40.31"/>
<polygon fill="#708090" stroke="#708090" points="207.26,-43.48 214.88,-36.11 204.33,-37.12 207.26,-43.48"/>
</g>
<!-- motion_gen&#45;&gt;Isaac Sim -->
<g id="edge5" class="edge">
<title>motion_gen&#45;&gt;Isaac Sim</title>
<path fill="none" stroke="#708090" d="M339.13,-36.01C364.73,-46.42 386,-63.15 386,-90 386,-238 386,-238 386,-238 386,-282.11 338.12,-308.5 299.6,-322.6"/>
<polygon fill="#708090" stroke="#708090" points="298.34,-319.33 290.04,-325.92 300.64,-325.94 298.34,-319.33"/>
<text text-anchor="middle" x="415.5" y="-161.5" font-family="Times,serif" font-size="10.00">Joint Action</text>
</g>
<!-- world_config -->
<g id="node5" class="node">
<title>world_config</title>
<path fill="#76b900" stroke="#76b900" d="M156,-182C156,-182 38,-182 38,-182 32,-182 26,-176 26,-170 26,-170 26,-158 26,-158 26,-152 32,-146 38,-146 38,-146 156,-146 156,-146 162,-146 168,-152 168,-158 168,-158 168,-170 168,-170 168,-176 162,-182 156,-182"/>
<text text-anchor="middle" x="97" y="-160.9" font-family="Times,serif" font-size="12.00" fill="white">cuRobo WorldConfig</text>
</g>
<!-- usd_help&#45;&gt;world_config -->
<g id="edge2" class="edge">
<title>usd_help&#45;&gt;world_config</title>
<path fill="none" stroke="#708090" d="M99.27,-218.81C98.93,-210.79 98.52,-201.05 98.14,-192.07"/>
<polygon fill="#708090" stroke="#708090" points="101.64,-191.87 97.72,-182.03 94.64,-192.17 101.64,-191.87"/>
</g>
<!-- world_config&#45;&gt;world_coll -->
<g id="edge6" class="edge">
<title>world_config&#45;&gt;world_coll</title>
<path fill="none" stroke="#708090" d="M97.24,-145.81C97.36,-137.79 97.49,-128.05 97.62,-119.07"/>
<polygon fill="#708090" stroke="#708090" points="101.12,-119.08 97.76,-109.03 94.12,-118.98 101.12,-119.08"/>
</g>
</g>
</svg>
