<?xml version="1.0" encoding="UTF-8" standalone="no"?>
<!DOCTYPE svg PUBLIC "-//W3C//DTD SVG 1.1//EN"
 "http://www.w3.org/Graphics/SVG/1.1/DTD/svg11.dtd">
<!-- Generated by graphviz version 2.43.0 (0)
 -->
<!-- Title: %3 Pages: 1 -->
<svg width="617pt" height="560pt"
 viewBox="0.00 0.00 616.50 560.00" xmlns="http://www.w3.org/2000/svg" xmlns:xlink="http://www.w3.org/1999/xlink">
<g id="graph0" class="graph" transform="scale(1 1) rotate(0) translate(4 556)">
<title>%3</title>
<polygon fill="white" stroke="transparent" points="-4,4 -4,-556 612.5,-556 612.5,4 -4,4"/>
<g id="clust1" class="cluster">
<title>cluster_query</title>
<polygon fill="none" stroke="black" points="8,-469 8,-544 219,-544 219,-469 8,-469"/>
<text text-anchor="middle" x="113.5" y="-528.8" font-family="Times,serif" font-size="14.00">Query</text>
</g>
<g id="clust2" class="cluster">
<title>cluster_robot</title>
<polygon fill="none" stroke="black" points="227,-469 227,-544 459,-544 459,-469 227,-469"/>
<text text-anchor="middle" x="343" y="-528.8" font-family="Times,serif" font-size="14.00">Robot World Configuration</text>
</g>
<g id="clust3" class="cluster">
<title>cluster_particle</title>
<polygon fill="none" stroke="black" points="337,-188 337,-440 505,-440 505,-188 337,-188"/>
<text text-anchor="middle" x="421" y="-424.8" font-family="Times,serif" font-size="14.00">Particle Optimization</text>
</g>
<g id="clust4" class="cluster">
<title>cluster_newton</title>
<polygon fill="none" stroke="black" points="127,-42 127,-263 296,-263 296,-42 127,-42"/>
<text text-anchor="middle" x="211.5" y="-247.8" font-family="Times,serif" font-size="14.00">Newton Optimization</text>
</g>
<!-- seed -->
<g id="node1" class="node">
<title>seed</title>
<path fill="#cccccc" stroke="#cccccc" d="M596.5,-409C596.5,-409 525.5,-409 525.5,-409 519.5,-409 513.5,-403 513.5,-397 513.5,-397 513.5,-385 513.5,-385 513.5,-379 519.5,-373 525.5,-373 525.5,-373 596.5,-373 596.5,-373 602.5,-373 608.5,-379 608.5,-385 608.5,-385 608.5,-397 608.5,-397 608.5,-403 602.5,-409 596.5,-409"/>
<text text-anchor="middle" x="561" y="-387.9" font-family="Times,serif" font-size="12.00">random seed</text>
</g>
<!-- mppi_solver -->
<g id="node8" class="node">
<title>mppi_solver</title>
<path fill="#cccccc" stroke="#cccccc" d="M443,-326C443,-326 367,-326 367,-326 361,-326 355,-320 355,-314 355,-314 355,-302 355,-302 355,-296 361,-290 367,-290 367,-290 443,-290 443,-290 449,-290 455,-296 455,-302 455,-302 455,-314 455,-314 455,-320 449,-326 443,-326"/>
<text text-anchor="middle" x="405" y="-304.9" font-family="Times,serif" font-size="12.00">Parallel MPPI</text>
</g>
<!-- seed&#45;&gt;mppi_solver -->
<g id="edge3" class="edge">
<title>seed&#45;&gt;mppi_solver</title>
<path fill="none" stroke="#76b900" d="M527.92,-372.82C504.26,-360.54 472.24,-343.91 446.81,-330.71"/>
<polygon fill="#76b900" stroke="#76b900" points="448.26,-327.52 437.77,-326.01 445.03,-333.73 448.26,-327.52"/>
</g>
<!-- opt_sol -->
<g id="node2" class="node">
<title>opt_sol</title>
<text text-anchor="middle" x="220" y="-3.4" font-family="Times,serif" font-size="12.00">optimized solution</text>
</g>
<!-- start -->
<g id="node3" class="node">
<title>start</title>
<path fill="#cccccc" stroke="#cccccc" d="M198.5,-513C198.5,-513 123.5,-513 123.5,-513 117.5,-513 111.5,-507 111.5,-501 111.5,-501 111.5,-489 111.5,-489 111.5,-483 117.5,-477 123.5,-477 123.5,-477 198.5,-477 198.5,-477 204.5,-477 210.5,-483 210.5,-489 210.5,-489 210.5,-501 210.5,-501 210.5,-507 204.5,-513 198.5,-513"/>
<text text-anchor="middle" x="161" y="-491.9" font-family="Times,serif" font-size="12.00">Current State</text>
</g>
<!-- mppi_rollout -->
<g id="node7" class="node">
<title>mppi_rollout</title>
<path fill="#cccccc" stroke="#cccccc" d="M452.5,-409C452.5,-409 357.5,-409 357.5,-409 351.5,-409 345.5,-403 345.5,-397 345.5,-397 345.5,-385 345.5,-385 345.5,-379 351.5,-373 357.5,-373 357.5,-373 452.5,-373 452.5,-373 458.5,-373 464.5,-379 464.5,-385 464.5,-385 464.5,-397 464.5,-397 464.5,-403 458.5,-409 452.5,-409"/>
<text text-anchor="middle" x="405" y="-387.9" font-family="Times,serif" font-size="12.00">Rollout for MPPI</text>
</g>
<!-- start&#45;&gt;mppi_rollout -->
<g id="edge4" class="edge">
<title>start&#45;&gt;mppi_rollout</title>
<path fill="none" stroke="#2b4162" stroke-dasharray="5,2" d="M201.84,-476.93C243.89,-459.35 309.48,-431.93 354.7,-413.03"/>
<polygon fill="#2b4162" stroke="#2b4162" points="356.15,-416.21 364.03,-409.13 353.45,-409.76 356.15,-416.21"/>
</g>
<!-- lbfgs_rollout -->
<g id="node9" class="node">
<title>lbfgs_rollout</title>
<path fill="#cccccc" stroke="#cccccc" d="M262.5,-232C262.5,-232 153.5,-232 153.5,-232 147.5,-232 141.5,-226 141.5,-220 141.5,-220 141.5,-208 141.5,-208 141.5,-202 147.5,-196 153.5,-196 153.5,-196 262.5,-196 262.5,-196 268.5,-196 274.5,-202 274.5,-208 274.5,-208 274.5,-220 274.5,-220 274.5,-226 268.5,-232 262.5,-232"/>
<text text-anchor="middle" x="208" y="-210.9" font-family="Times,serif" font-size="12.00">Rollout for L&#45;BFGS</text>
</g>
<!-- start&#45;&gt;lbfgs_rollout -->
<g id="edge6" class="edge">
<title>start&#45;&gt;lbfgs_rollout</title>
<path fill="none" stroke="#2b4162" stroke-dasharray="5,2" d="M162.96,-476.84C167.36,-439.3 178.87,-347.2 194,-271 195.9,-261.43 198.38,-251.04 200.72,-241.84"/>
<polygon fill="#2b4162" stroke="#2b4162" points="204.14,-242.62 203.27,-232.06 197.36,-240.85 204.14,-242.62"/>
</g>
<!-- goal -->
<g id="node4" class="node">
<title>goal</title>
<path fill="#cccccc" stroke="#cccccc" d="M81.5,-513C81.5,-513 28.5,-513 28.5,-513 22.5,-513 16.5,-507 16.5,-501 16.5,-501 16.5,-489 16.5,-489 16.5,-483 22.5,-477 28.5,-477 28.5,-477 81.5,-477 81.5,-477 87.5,-477 93.5,-483 93.5,-489 93.5,-489 93.5,-501 93.5,-501 93.5,-507 87.5,-513 81.5,-513"/>
<text text-anchor="middle" x="55" y="-491.9" font-family="Times,serif" font-size="12.00">Goal Pose</text>
</g>
<!-- goal&#45;&gt;mppi_rollout -->
<g id="edge5" class="edge">
<title>goal&#45;&gt;mppi_rollout</title>
<path fill="none" stroke="#2b4162" stroke-dasharray="5,2" d="M85.24,-476.91C91.03,-474.03 97.12,-471.25 103,-469 180.33,-439.46 273.08,-417.73 335.21,-405.02"/>
<polygon fill="#2b4162" stroke="#2b4162" points="336.19,-408.39 345.3,-402.98 334.8,-401.53 336.19,-408.39"/>
</g>
<!-- goal&#45;&gt;lbfgs_rollout -->
<g id="edge7" class="edge">
<title>goal&#45;&gt;lbfgs_rollout</title>
<path fill="none" stroke="#2b4162" stroke-dasharray="5,2" d="M64.34,-476.97C90.16,-429.88 162.64,-297.72 193.64,-241.19"/>
<polygon fill="#2b4162" stroke="#2b4162" points="196.85,-242.62 198.59,-232.16 190.71,-239.25 196.85,-242.62"/>
</g>
<!-- kin_model -->
<g id="node5" class="node">
<title>kin_model</title>
<path fill="#76b900" stroke="#76b900" d="M315,-513C315,-513 247,-513 247,-513 241,-513 235,-507 235,-501 235,-501 235,-489 235,-489 235,-483 241,-477 247,-477 247,-477 315,-477 315,-477 321,-477 327,-483 327,-489 327,-489 327,-501 327,-501 327,-507 321,-513 315,-513"/>
<text text-anchor="middle" x="281" y="-491.9" font-family="Times,serif" font-size="12.00" fill="white">RobotConfig</text>
</g>
<!-- kin_model&#45;&gt;mppi_rollout -->
<g id="edge1" class="edge">
<title>kin_model&#45;&gt;mppi_rollout</title>
<path fill="none" stroke="#2b4162" stroke-dasharray="5,2" d="M301.75,-476.93C322.14,-460.16 353.42,-434.43 376.2,-415.69"/>
<polygon fill="#2b4162" stroke="#2b4162" points="378.68,-418.18 384.18,-409.13 374.23,-412.78 378.68,-418.18"/>
<text text-anchor="middle" x="359.5" y="-451" font-family="Times,serif" font-size="10.00" fill="#708090">reference</text>
</g>
<!-- kin_model&#45;&gt;lbfgs_rollout -->
<g id="edge8" class="edge">
<title>kin_model&#45;&gt;lbfgs_rollout</title>
<path fill="none" stroke="#2b4162" stroke-dasharray="5,2" d="M268.55,-476.66C251.23,-451.37 220.68,-402.22 209,-355 199.53,-316.71 201.66,-270.71 204.49,-242.16"/>
<polygon fill="#2b4162" stroke="#2b4162" points="207.98,-242.45 205.59,-232.13 201.03,-241.69 207.98,-242.45"/>
<text text-anchor="middle" x="233.5" y="-347" font-family="Times,serif" font-size="10.00" fill="#708090">reference</text>
</g>
<!-- world_model -->
<g id="node6" class="node">
<title>world_model</title>
<path fill="#76b900" stroke="#76b900" d="M438.5,-513C438.5,-513 357.5,-513 357.5,-513 351.5,-513 345.5,-507 345.5,-501 345.5,-501 345.5,-489 345.5,-489 345.5,-483 351.5,-477 357.5,-477 357.5,-477 438.5,-477 438.5,-477 444.5,-477 450.5,-483 450.5,-489 450.5,-489 450.5,-501 450.5,-501 450.5,-507 444.5,-513 438.5,-513"/>
<text text-anchor="middle" x="398" y="-491.9" font-family="Times,serif" font-size="12.00" fill="white">WorldCollision</text>
</g>
<!-- world_model&#45;&gt;mppi_rollout -->
<g id="edge2" class="edge">
<title>world_model&#45;&gt;mppi_rollout</title>
<path fill="none" stroke="#2b4162" stroke-dasharray="5,2" d="M399.19,-476.7C400.27,-460.92 401.89,-437.36 403.14,-419.09"/>
<polygon fill="#2b4162" stroke="#2b4162" points="406.64,-419.26 403.83,-409.05 399.65,-418.78 406.64,-419.26"/>
<text text-anchor="middle" x="425.5" y="-451" font-family="Times,serif" font-size="10.00" fill="#708090">reference</text>
</g>
<!-- world_model&#45;&gt;lbfgs_rollout -->
<g id="edge9" class="edge">
<title>world_model&#45;&gt;lbfgs_rollout</title>
<path fill="none" stroke="#2b4162" stroke-dasharray="5,2" d="M373.33,-476.83C360.34,-467.02 344.72,-453.91 333,-440 279.3,-376.28 237.51,-286.01 218.77,-241.67"/>
<polygon fill="#2b4162" stroke="#2b4162" points="221.89,-240.07 214.82,-232.18 215.43,-242.76 221.89,-240.07"/>
<text text-anchor="middle" x="298.5" y="-347" font-family="Times,serif" font-size="10.00" fill="#708090">reference</text>
</g>
<!-- mppi_rollout&#45;&gt;mppi_solver -->
<g id="edge11" class="edge">
<title>mppi_rollout&#45;&gt;mppi_solver</title>
<path fill="none" stroke="#2b4162" d="M405,-372.82C405,-362.19 405,-348.31 405,-336.2"/>
<polygon fill="#2b4162" stroke="#2b4162" points="408.5,-336.15 405,-326.15 401.5,-336.15 408.5,-336.15"/>
</g>
<!-- mppi_sol -->
<g id="node10" class="node">
<title>mppi_sol</title>
<path fill="#cccccc" stroke="#cccccc" d="M441,-232C441,-232 361,-232 361,-232 355,-232 349,-226 349,-220 349,-220 349,-208 349,-208 349,-202 355,-196 361,-196 361,-196 441,-196 441,-196 447,-196 453,-202 453,-208 453,-208 453,-220 453,-220 453,-226 447,-232 441,-232"/>
<text text-anchor="middle" x="401" y="-210.9" font-family="Times,serif" font-size="12.00">MPPI Solution</text>
</g>
<!-- mppi_solver&#45;&gt;mppi_sol -->
<g id="edge10" class="edge">
<title>mppi_solver&#45;&gt;mppi_sol</title>
<path fill="none" stroke="#76b900" d="M404.25,-289.7C403.67,-276.33 402.85,-257.59 402.18,-242.22"/>
<polygon fill="#76b900" stroke="#76b900" points="405.68,-242.07 401.75,-232.23 398.69,-242.37 405.68,-242.07"/>
</g>
<!-- lbfgs_solver -->
<g id="node11" class="node">
<title>lbfgs_solver</title>
<path fill="#cccccc" stroke="#cccccc" d="M259.5,-159C259.5,-159 180.5,-159 180.5,-159 174.5,-159 168.5,-153 168.5,-147 168.5,-147 168.5,-135 168.5,-135 168.5,-129 174.5,-123 180.5,-123 180.5,-123 259.5,-123 259.5,-123 265.5,-123 271.5,-129 271.5,-135 271.5,-135 271.5,-147 271.5,-147 271.5,-153 265.5,-159 259.5,-159"/>
<text text-anchor="middle" x="220" y="-137.9" font-family="Times,serif" font-size="12.00">LBFGS Solver</text>
</g>
<!-- lbfgs_rollout&#45;&gt;lbfgs_solver -->
<g id="edge12" class="edge">
<title>lbfgs_rollout&#45;&gt;lbfgs_solver</title>
<path fill="none" stroke="#2b4162" d="M210.9,-195.81C212.26,-187.79 213.91,-178.05 215.42,-169.07"/>
<polygon fill="#2b4162" stroke="#2b4162" points="218.91,-169.47 217.12,-159.03 212,-168.31 218.91,-169.47"/>
</g>
<!-- mppi_sol&#45;&gt;lbfgs_solver -->
<g id="edge13" class="edge">
<title>mppi_sol&#45;&gt;lbfgs_solver</title>
<path fill="none" stroke="#76b900" d="M357.65,-195.99C332.31,-186.06 300.14,-173.43 273.26,-162.89"/>
<polygon fill="#76b900" stroke="#76b900" points="274.22,-159.51 263.63,-159.11 271.66,-166.02 274.22,-159.51"/>
</g>
<!-- lbfgs_sol -->
<g id="node12" class="node">
<title>lbfgs_sol</title>
<path fill="#cccccc" stroke="#cccccc" d="M265,-86C265,-86 175,-86 175,-86 169,-86 163,-80 163,-74 163,-74 163,-62 163,-62 163,-56 169,-50 175,-50 175,-50 265,-50 265,-50 271,-50 277,-56 277,-62 277,-62 277,-74 277,-74 277,-80 271,-86 265,-86"/>
<text text-anchor="middle" x="220" y="-64.9" font-family="Times,serif" font-size="12.00">LBFGS Solution</text>
</g>
<!-- lbfgs_solver&#45;&gt;lbfgs_sol -->
<g id="edge14" class="edge">
<title>lbfgs_solver&#45;&gt;lbfgs_sol</title>
<path fill="none" stroke="#76b900" d="M220,-122.81C220,-114.79 220,-105.05 220,-96.07"/>
<polygon fill="#76b900" stroke="#76b900" points="223.5,-96.03 220,-86.03 216.5,-96.03 223.5,-96.03"/>
</g>
<!-- lbfgs_sol&#45;&gt;opt_sol -->
<g id="edge15" class="edge">
<title>lbfgs_sol&#45;&gt;opt_sol</title>
<path fill="none" stroke="#76b900" d="M220,-49.79C220,-41.49 220,-31.59 220,-23.46"/>
<polygon fill="#76b900" stroke="#76b900" points="223.5,-23.2 220,-13.2 216.5,-23.2 223.5,-23.2"/>
</g>
</g>
</svg>
