<?xml version="1.0" encoding="UTF-8" standalone="no"?>
<!DOCTYPE svg PUBLIC "-//W3C//DTD SVG 1.1//EN"
 "http://www.w3.org/Graphics/SVG/1.1/DTD/svg11.dtd">
<!-- Generated by graphviz version 2.43.0 (0)
 -->
<!-- Title: %3 Pages: 1 -->
<svg width="823pt" height="393pt"
 viewBox="0.00 0.00 823.00 393.00" xmlns="http://www.w3.org/2000/svg" xmlns:xlink="http://www.w3.org/1999/xlink">
<g id="graph0" class="graph" transform="scale(1 1) rotate(0) translate(4 389)">
<title>%3</title>
<polygon fill="white" stroke="transparent" points="-4,4 -4,-389 819,-389 819,4 -4,4"/>
<g id="clust1" class="cluster">
<title>cluster_collision</title>
<polygon fill="none" stroke="black" points="8,-8 8,-249 312,-249 312,-8 8,-8"/>
<text text-anchor="middle" x="160" y="-233.8" font-family="Times,serif" font-size="14.00">Collision Checker</text>
</g>
<!-- Cuboid[] -->
<g id="node1" class="node">
<title>Cuboid[]</title>
<path fill="#76b900" stroke="#76b900" d="M276,-312C276,-312 232,-312 232,-312 226,-312 220,-306 220,-300 220,-300 220,-288 220,-288 220,-282 226,-276 232,-276 232,-276 276,-276 276,-276 282,-276 288,-282 288,-288 288,-288 288,-300 288,-300 288,-306 282,-312 276,-312"/>
<text text-anchor="middle" x="254" y="-290.9" font-family="Times,serif" font-size="12.00" fill="#ffffff">Cuboid[]</text>
</g>
<!-- WorldCollision -->
<g id="node9" class="node">
<title>WorldCollision</title>
<path fill="#76b900" stroke="#76b900" d="M290,-218C290,-218 154,-218 154,-218 148,-218 142,-212 142,-206 142,-206 142,-194 142,-194 142,-188 148,-182 154,-182 154,-182 290,-182 290,-182 296,-182 302,-188 302,-194 302,-194 302,-206 302,-206 302,-212 296,-218 290,-218"/>
<text text-anchor="middle" x="222" y="-196.9" font-family="Times,serif" font-size="12.00" fill="#ffffff">WorldPrimitiveCollision</text>
</g>
<!-- Cuboid[]&#45;&gt;WorldCollision -->
<g id="edge8" class="edge">
<title>Cuboid[]&#45;&gt;WorldCollision</title>
<path fill="none" stroke="#2b4162" d="M247.98,-275.7C243.29,-262.2 236.69,-243.23 231.31,-227.78"/>
<polygon fill="#2b4162" stroke="#2b4162" points="234.58,-226.52 227.99,-218.23 227.97,-228.82 234.58,-226.52"/>
</g>
<!-- Mesh[] -->
<g id="node2" class="node">
<title>Mesh[]</title>
<path fill="#76b900" stroke="#76b900" d="M366,-218C366,-218 332,-218 332,-218 326,-218 320,-212 320,-206 320,-206 320,-194 320,-194 320,-188 326,-182 332,-182 332,-182 366,-182 366,-182 372,-182 378,-188 378,-194 378,-194 378,-206 378,-206 378,-212 372,-218 366,-218"/>
<text text-anchor="middle" x="349" y="-196.9" font-family="Times,serif" font-size="12.00" fill="#ffffff">Mesh[]</text>
</g>
<!-- WorldMeshCollision -->
<g id="node10" class="node">
<title>WorldMeshCollision</title>
<path fill="#76b900" stroke="#76b900" d="M284.5,-135C284.5,-135 171.5,-135 171.5,-135 165.5,-135 159.5,-129 159.5,-123 159.5,-123 159.5,-111 159.5,-111 159.5,-105 165.5,-99 171.5,-99 171.5,-99 284.5,-99 284.5,-99 290.5,-99 296.5,-105 296.5,-111 296.5,-111 296.5,-123 296.5,-123 296.5,-129 290.5,-135 284.5,-135"/>
<text text-anchor="middle" x="228" y="-113.9" font-family="Times,serif" font-size="12.00" fill="#ffffff">WorldMeshCollision</text>
</g>
<!-- Mesh[]&#45;&gt;WorldMeshCollision -->
<g id="edge9" class="edge">
<title>Mesh[]&#45;&gt;WorldMeshCollision</title>
<path fill="none" stroke="#2b4162" d="M327.71,-181.97C316.2,-173.01 301.58,-162.04 288,-153 281.65,-148.77 274.77,-144.5 268.02,-140.46"/>
<polygon fill="#2b4162" stroke="#2b4162" points="269.34,-137.18 258.95,-135.12 265.79,-143.21 269.34,-137.18"/>
</g>
<!-- VoxelGrid[] -->
<g id="node3" class="node">
<title>VoxelGrid[]</title>
<path fill="#76b900" stroke="#76b900" d="M430.5,-312C430.5,-312 369.5,-312 369.5,-312 363.5,-312 357.5,-306 357.5,-300 357.5,-300 357.5,-288 357.5,-288 357.5,-282 363.5,-276 369.5,-276 369.5,-276 430.5,-276 430.5,-276 436.5,-276 442.5,-282 442.5,-288 442.5,-288 442.5,-300 442.5,-300 442.5,-306 436.5,-312 430.5,-312"/>
<text text-anchor="middle" x="400" y="-290.9" font-family="Times,serif" font-size="12.00" fill="#ffffff">VoxelGrid[]</text>
</g>
<!-- WorldVoxelCollision -->
<g id="node12" class="node">
<title>WorldVoxelCollision</title>
<path fill="#76b900" stroke="#76b900" d="M141.5,-52C141.5,-52 28.5,-52 28.5,-52 22.5,-52 16.5,-46 16.5,-40 16.5,-40 16.5,-28 16.5,-28 16.5,-22 22.5,-16 28.5,-16 28.5,-16 141.5,-16 141.5,-16 147.5,-16 153.5,-22 153.5,-28 153.5,-28 153.5,-40 153.5,-40 153.5,-46 147.5,-52 141.5,-52"/>
<text text-anchor="middle" x="85" y="-30.9" font-family="Times,serif" font-size="12.00" fill="#ffffff">WorldVoxelCollision</text>
</g>
<!-- VoxelGrid[]&#45;&gt;WorldVoxelCollision -->
<g id="edge11" class="edge">
<title>VoxelGrid[]&#45;&gt;WorldVoxelCollision</title>
<path fill="none" stroke="#2b4162" d="M400.89,-275.7C401.42,-253.2 400.13,-213.1 387,-182 362.06,-122.91 351.93,-101.39 296,-70 246.63,-42.28 224.08,-60.3 163.85,-51.9"/>
<polygon fill="#2b4162" stroke="#2b4162" points="164.27,-48.43 153.84,-50.32 163.17,-55.34 164.27,-48.43"/>
</g>
<!-- BloxMap[] -->
<g id="node4" class="node">
<title>BloxMap[]</title>
<path fill="#76b900" stroke="#76b900" d="M529,-312C529,-312 473,-312 473,-312 467,-312 461,-306 461,-300 461,-300 461,-288 461,-288 461,-282 467,-276 473,-276 473,-276 529,-276 529,-276 535,-276 541,-282 541,-288 541,-288 541,-300 541,-300 541,-306 535,-312 529,-312"/>
<text text-anchor="middle" x="501" y="-290.9" font-family="Times,serif" font-size="12.00" fill="#ffffff">BloxMap[]</text>
</g>
<!-- WorldBloxCollision -->
<g id="node11" class="node">
<title>WorldBloxCollision</title>
<path fill="#76b900" stroke="#76b900" d="M292,-52C292,-52 184,-52 184,-52 178,-52 172,-46 172,-40 172,-40 172,-28 172,-28 172,-22 178,-16 184,-16 184,-16 292,-16 292,-16 298,-16 304,-22 304,-28 304,-28 304,-40 304,-40 304,-46 298,-52 292,-52"/>
<text text-anchor="middle" x="238" y="-30.9" font-family="Times,serif" font-size="12.00" fill="#ffffff">WorldBloxCollision</text>
</g>
<!-- BloxMap[]&#45;&gt;WorldBloxCollision -->
<g id="edge10" class="edge">
<title>BloxMap[]&#45;&gt;WorldBloxCollision</title>
<path fill="none" stroke="#2b4162" d="M500.25,-275.88C497.41,-233.76 483.93,-124.53 420,-70 403.97,-56.32 356.68,-47.48 314.33,-42.1"/>
<polygon fill="#2b4162" stroke="#2b4162" points="314.61,-38.61 304.26,-40.88 313.77,-45.56 314.61,-38.61"/>
</g>
<!-- WorldConfig -->
<g id="node5" class="node">
<title>WorldConfig</title>
<path fill="#76b900" stroke="#76b900" d="M535,-385C535,-385 467,-385 467,-385 461,-385 455,-379 455,-373 455,-373 455,-361 455,-361 455,-355 461,-349 467,-349 467,-349 535,-349 535,-349 541,-349 547,-355 547,-361 547,-361 547,-373 547,-373 547,-379 541,-385 535,-385"/>
<text text-anchor="middle" x="501" y="-363.9" font-family="Times,serif" font-size="12.00" fill="#ffffff">WorldConfig</text>
</g>
<!-- WorldConfig&#45;&gt;Cuboid[] -->
<g id="edge1" class="edge">
<title>WorldConfig&#45;&gt;Cuboid[]</title>
<path fill="none" stroke="#2b4162" d="M454.7,-361.8C416.32,-357.26 360.83,-348.23 315,-331 305.6,-327.47 296,-322.53 287.27,-317.44"/>
<polygon fill="#2b4162" stroke="#2b4162" points="288.9,-314.33 278.54,-312.13 285.26,-320.31 288.9,-314.33"/>
</g>
<!-- WorldConfig&#45;&gt;Mesh[] -->
<g id="edge2" class="edge">
<title>WorldConfig&#45;&gt;Mesh[]</title>
<path fill="none" stroke="#2b4162" d="M454.71,-363.26C419.34,-358.44 372.74,-345.63 349,-312 331.86,-287.73 335.37,-252.43 340.87,-228.19"/>
<polygon fill="#2b4162" stroke="#2b4162" points="344.33,-228.78 343.38,-218.23 337.54,-227.07 344.33,-228.78"/>
</g>
<!-- WorldConfig&#45;&gt;VoxelGrid[] -->
<g id="edge7" class="edge">
<title>WorldConfig&#45;&gt;VoxelGrid[]</title>
<path fill="none" stroke="#2b4162" d="M476.81,-348.99C463.66,-339.75 447.22,-328.19 432.92,-318.14"/>
<polygon fill="#2b4162" stroke="#2b4162" points="434.54,-315 424.34,-312.11 430.51,-320.73 434.54,-315"/>
</g>
<!-- WorldConfig&#45;&gt;BloxMap[] -->
<g id="edge3" class="edge">
<title>WorldConfig&#45;&gt;BloxMap[]</title>
<path fill="none" stroke="#2b4162" d="M501,-348.81C501,-340.79 501,-331.05 501,-322.07"/>
<polygon fill="#2b4162" stroke="#2b4162" points="504.5,-322.03 501,-312.03 497.5,-322.03 504.5,-322.03"/>
</g>
<!-- Sphere[] -->
<g id="node6" class="node">
<title>Sphere[]</title>
<path fill="#cccccc" stroke="#cccccc" d="M615,-312C615,-312 571,-312 571,-312 565,-312 559,-306 559,-300 559,-300 559,-288 559,-288 559,-282 565,-276 571,-276 571,-276 615,-276 615,-276 621,-276 627,-282 627,-288 627,-288 627,-300 627,-300 627,-306 621,-312 615,-312"/>
<text text-anchor="middle" x="593" y="-290.9" font-family="Times,serif" font-size="12.00">Sphere[]</text>
</g>
<!-- WorldConfig&#45;&gt;Sphere[] -->
<g id="edge4" class="edge">
<title>WorldConfig&#45;&gt;Sphere[]</title>
<path fill="none" stroke="#2b4162" d="M523.27,-348.81C535.14,-339.66 549.9,-328.26 562.79,-318.32"/>
<polygon fill="#2b4162" stroke="#2b4162" points="565.16,-320.91 570.93,-312.03 560.88,-315.37 565.16,-320.91"/>
</g>
<!-- Cylinder[] -->
<g id="node7" class="node">
<title>Cylinder[]</title>
<path fill="#cccccc" stroke="#cccccc" d="M710.5,-312C710.5,-312 657.5,-312 657.5,-312 651.5,-312 645.5,-306 645.5,-300 645.5,-300 645.5,-288 645.5,-288 645.5,-282 651.5,-276 657.5,-276 657.5,-276 710.5,-276 710.5,-276 716.5,-276 722.5,-282 722.5,-288 722.5,-288 722.5,-300 722.5,-300 722.5,-306 716.5,-312 710.5,-312"/>
<text text-anchor="middle" x="684" y="-290.9" font-family="Times,serif" font-size="12.00">Cylinder[]</text>
</g>
<!-- WorldConfig&#45;&gt;Cylinder[] -->
<g id="edge5" class="edge">
<title>WorldConfig&#45;&gt;Cylinder[]</title>
<path fill="none" stroke="#2b4162" d="M544.83,-348.99C572.26,-338.35 607.62,-324.63 635.84,-313.69"/>
<polygon fill="#2b4162" stroke="#2b4162" points="637.44,-316.82 645.49,-309.94 634.9,-310.29 637.44,-316.82"/>
</g>
<!-- Capsule[] -->
<g id="node8" class="node">
<title>Capsule[]</title>
<path fill="#cccccc" stroke="#cccccc" d="M803,-312C803,-312 753,-312 753,-312 747,-312 741,-306 741,-300 741,-300 741,-288 741,-288 741,-282 747,-276 753,-276 753,-276 803,-276 803,-276 809,-276 815,-282 815,-288 815,-288 815,-300 815,-300 815,-306 809,-312 803,-312"/>
<text text-anchor="middle" x="778" y="-290.9" font-family="Times,serif" font-size="12.00">Capsule[]</text>
</g>
<!-- WorldConfig&#45;&gt;Capsule[] -->
<g id="edge6" class="edge">
<title>WorldConfig&#45;&gt;Capsule[]</title>
<path fill="none" stroke="#2b4162" d="M547.03,-357C591.86,-347.85 662.03,-332.48 731.22,-312.05"/>
<polygon fill="#2b4162" stroke="#2b4162" points="732.4,-315.35 740.98,-309.13 730.39,-308.64 732.4,-315.35"/>
</g>
<!-- WorldCollision&#45;&gt;WorldMeshCollision -->
<g id="edge12" class="edge">
<title>WorldCollision&#45;&gt;WorldMeshCollision</title>
<path fill="none" stroke="#76b900" stroke-dasharray="5,2" d="M223.27,-181.82C224.06,-171.19 225.09,-157.31 225.98,-145.2"/>
<polygon fill="#76b900" stroke="#76b900" points="229.48,-145.38 226.73,-135.15 222.5,-144.87 229.48,-145.38"/>
<text text-anchor="middle" x="255" y="-156" font-family="Times,serif" font-size="10.00">inheritance</text>
</g>
<!-- WorldMeshCollision&#45;&gt;WorldBloxCollision -->
<g id="edge13" class="edge">
<title>WorldMeshCollision&#45;&gt;WorldBloxCollision</title>
<path fill="none" stroke="#76b900" stroke-dasharray="5,2" d="M230.12,-98.82C231.43,-88.19 233.15,-74.31 234.64,-62.2"/>
<polygon fill="#76b900" stroke="#76b900" points="238.13,-62.51 235.88,-52.15 231.18,-61.65 238.13,-62.51"/>
<text text-anchor="middle" x="263" y="-73" font-family="Times,serif" font-size="10.00">inheritance</text>
</g>
<!-- WorldMeshCollision&#45;&gt;WorldVoxelCollision -->
<g id="edge14" class="edge">
<title>WorldMeshCollision&#45;&gt;WorldVoxelCollision</title>
<path fill="none" stroke="#76b900" stroke-dasharray="5,2" d="M197.67,-98.82C176.25,-86.69 147.34,-70.31 124.18,-57.19"/>
<polygon fill="#76b900" stroke="#76b900" points="125.71,-54.04 115.28,-52.15 122.26,-60.13 125.71,-54.04"/>
<text text-anchor="middle" x="195" y="-73" font-family="Times,serif" font-size="10.00">inheritance</text>
</g>
</g>
</svg>
