<?xml version="1.0" encoding="UTF-8" standalone="no"?>
<!DOCTYPE svg PUBLIC "-//W3C//DTD SVG 1.1//EN"
 "http://www.w3.org/Graphics/SVG/1.1/DTD/svg11.dtd">
<!-- Generated by graphviz version 2.43.0 (0)
 -->
<!-- Title: %3 Pages: 1 -->
<svg width="841pt" height="98pt"
 viewBox="0.00 0.00 841.00 98.00" xmlns="http://www.w3.org/2000/svg" xmlns:xlink="http://www.w3.org/1999/xlink">
<g id="graph0" class="graph" transform="scale(1 1) rotate(0) translate(4 94)">
<title>%3</title>
<polygon fill="#808080" stroke="transparent" points="-4,4 -4,-94 837,-94 837,4 -4,4"/>
<!-- CudaRobotGenerator -->
<g id="node1" class="node">
<title>CudaRobotGenerator</title>
<path fill="#ffffff" stroke="#ffffff" d="M623,-63C623,-63 501,-63 501,-63 495,-63 489,-57 489,-51 489,-51 489,-39 489,-39 489,-33 495,-27 501,-27 501,-27 623,-27 623,-27 629,-27 635,-33 635,-39 635,-39 635,-51 635,-51 635,-57 629,-63 623,-63"/>
<text text-anchor="middle" x="562" y="-41.9" font-family="Times,serif" font-size="12.00" fill="#000000">CudaRobotGenerator</text>
</g>
<!-- UrdfKinematicsParser -->
<g id="node2" class="node">
<title>UrdfKinematicsParser</title>
<polygon fill="#ffffff" stroke="#000000" points="828,-90 677,-90 677,-54 828,-54 828,-90"/>
<text text-anchor="middle" x="752.5" y="-68.9" font-family="Times,serif" font-size="12.00" fill="#000000">UrdfKinematicsParser</text>
</g>
<!-- CudaRobotGenerator&#45;&gt;UrdfKinematicsParser -->
<g id="edge2" class="edge">
<title>CudaRobotGenerator&#45;&gt;UrdfKinematicsParser</title>
<path fill="none" stroke="#ffffff" d="M645.14,-56.77C652.25,-57.78 659.45,-58.82 666.59,-59.84"/>
<polygon fill="#ffffff" stroke="#ffffff" points="645.47,-53.28 635.07,-55.32 644.47,-60.21 645.47,-53.28"/>
<polygon fill="#ffffff" stroke="#ffffff" points="666.57,-63.37 676.97,-61.32 667.57,-56.44 666.57,-63.37"/>
</g>
<!-- CudaRobotModelConfig -->
<g id="node7" class="node">
<title>CudaRobotModelConfig</title>
<path fill="#76b900" stroke="#76b900" d="M821,-36C821,-36 684,-36 684,-36 678,-36 672,-30 672,-24 672,-24 672,-12 672,-12 672,-6 678,0 684,0 684,0 821,0 821,0 827,0 833,-6 833,-12 833,-12 833,-24 833,-24 833,-30 827,-36 821,-36"/>
<text text-anchor="middle" x="752.5" y="-14.9" font-family="Times,serif" font-size="12.00" fill="#ffffff">CudaRobotModelConfig</text>
</g>
<!-- CudaRobotGenerator&#45;&gt;CudaRobotModelConfig -->
<g id="edge3" class="edge">
<title>CudaRobotGenerator&#45;&gt;CudaRobotModelConfig</title>
<path fill="none" stroke="#ffffff" d="M635.07,-34.68C643.83,-33.42 652.86,-32.13 661.84,-30.84"/>
<polygon fill="#ffffff" stroke="#ffffff" points="662.53,-34.28 671.93,-29.4 661.53,-27.35 662.53,-34.28"/>
</g>
<!-- URDF -->
<g id="node3" class="node">
<title>URDF</title>
<polygon fill="#ffffff" stroke="#000000" stroke-dasharray="5,2" points="54,-90 0,-90 0,-54 54,-54 54,-90"/>
<text text-anchor="middle" x="27" y="-68.9" font-family="Times,serif" font-size="12.00" fill="#000000">URDF</text>
</g>
<!-- cuRobo YML -->
<g id="node5" class="node">
<title>cuRobo YML</title>
<polygon fill="#ffffff" stroke="#000000" points="229,-63 134,-63 134,-27 229,-27 229,-63"/>
<text text-anchor="middle" x="181.5" y="-41.9" font-family="Times,serif" font-size="12.00" fill="#000000">cuRobo YML</text>
</g>
<!-- URDF&#45;&gt;cuRobo YML -->
<g id="edge4" class="edge">
<title>URDF&#45;&gt;cuRobo YML</title>
<path fill="none" stroke="#ffffff" d="M54.22,-67.36C73.29,-63.98 99.85,-59.28 123.69,-55.06"/>
<polygon fill="#ffffff" stroke="#ffffff" points="124.47,-58.47 133.71,-53.28 123.25,-51.58 124.47,-58.47"/>
</g>
<!-- XRDF -->
<g id="node4" class="node">
<title>XRDF</title>
<polygon fill="#ffffff" stroke="#000000" stroke-dasharray="5,2" points="54,-36 0,-36 0,0 54,0 54,-36"/>
<text text-anchor="middle" x="27" y="-14.9" font-family="Times,serif" font-size="12.00" fill="#000000">XRDF</text>
</g>
<!-- XRDF&#45;&gt;cuRobo YML -->
<g id="edge5" class="edge">
<title>XRDF&#45;&gt;cuRobo YML</title>
<path fill="none" stroke="#ffffff" stroke-dasharray="5,2" d="M54.22,-22.64C73.29,-26.02 99.85,-30.72 123.69,-34.94"/>
<polygon fill="#ffffff" stroke="#ffffff" points="123.25,-38.42 133.71,-36.72 124.47,-31.53 123.25,-38.42"/>
<text text-anchor="middle" x="94" y="-36" font-family="Times,serif" font-size="10.00" fill="#ffffff">Optional</text>
</g>
<!-- CudaRobotGeneratorConfig -->
<g id="node6" class="node">
<title>CudaRobotGeneratorConfig</title>
<path fill="#76b900" stroke="#76b900" d="M440,-63C440,-63 278,-63 278,-63 272,-63 266,-57 266,-51 266,-51 266,-39 266,-39 266,-33 272,-27 278,-27 278,-27 440,-27 440,-27 446,-27 452,-33 452,-39 452,-39 452,-51 452,-51 452,-57 446,-63 440,-63"/>
<text text-anchor="middle" x="359" y="-41.9" font-family="Times,serif" font-size="12.00" fill="#ffffff">CudaRobotGeneratorConfig</text>
</g>
<!-- cuRobo YML&#45;&gt;CudaRobotGeneratorConfig -->
<g id="edge6" class="edge">
<title>cuRobo YML&#45;&gt;CudaRobotGeneratorConfig</title>
<path fill="none" stroke="#ffffff" d="M229.07,-45C237.42,-45 246.42,-45 255.64,-45"/>
<polygon fill="#ffffff" stroke="#ffffff" points="255.7,-48.5 265.7,-45 255.7,-41.5 255.7,-48.5"/>
</g>
<!-- CudaRobotGeneratorConfig&#45;&gt;CudaRobotGenerator -->
<g id="edge1" class="edge">
<title>CudaRobotGeneratorConfig&#45;&gt;CudaRobotGenerator</title>
<path fill="none" stroke="#ffffff" d="M452.26,-45C461.09,-45 470,-45 478.73,-45"/>
<polygon fill="#ffffff" stroke="#ffffff" points="478.86,-48.5 488.86,-45 478.86,-41.5 478.86,-48.5"/>
</g>
</g>
</svg>
