<?xml version="1.0" encoding="UTF-8" standalone="no"?>
<!DOCTYPE svg PUBLIC "-//W3C//DTD SVG 1.1//EN"
 "http://www.w3.org/Graphics/SVG/1.1/DTD/svg11.dtd">
<!-- Generated by graphviz version 2.43.0 (0)
 -->
<!-- Title: %3 Pages: 1 -->
<svg width="373pt" height="737pt"
 viewBox="0.00 0.00 373.00 737.00" xmlns="http://www.w3.org/2000/svg" xmlns:xlink="http://www.w3.org/1999/xlink">
<g id="graph0" class="graph" transform="scale(1 1) rotate(0) translate(4 733)">
<title>%3</title>
<polygon fill="#fefefe" stroke="transparent" points="-4,4 -4,-733 369,-733 369,4 -4,4"/>
<g id="clust1" class="cluster">
<title>cluster_kernel</title>
<polygon fill="#fefefe" stroke="#76b900" points="8,-65 8,-689 357,-689 357,-65 8,-65"/>
<text text-anchor="middle" x="182.5" y="-673.8" font-family="Times,serif" font-size="14.00">1 Thread per Sphere</text>
</g>
<g id="clust2" class="cluster">
<title>cluster_object</title>
<polygon fill="#fefefe" stroke="#2b4162" points="16,-211 16,-618 349,-618 349,-211 16,-211"/>
<text text-anchor="middle" x="182.5" y="-602.8" font-family="Times,serif" font-size="14.00">For loop over objects in sphere environment</text>
</g>
<!-- bquery -->
<g id="node1" class="node">
<title>bquery</title>
<text text-anchor="middle" x="179" y="-719.4" font-family="Times,serif" font-size="12.00">Batch of Trajectories of Spheres </text>
</g>
<!-- query -->
<g id="node2" class="node">
<title>query</title>
<text text-anchor="middle" x="179" y="-648.4" font-family="Times,serif" font-size="12.00">query sphere at [t&#45;1, t, t+1]</text>
</g>
<!-- bquery&#45;&gt;query -->
<g id="edge1" class="edge">
<title>bquery&#45;&gt;query</title>
<path fill="none" stroke="#2b4162" d="M179,-715.62C179,-705.33 179,-683.74 179,-668.69"/>
<polygon fill="#2b4162" stroke="#2b4162" points="182.5,-668.37 179,-658.37 175.5,-668.37 182.5,-668.37"/>
</g>
<!-- enable -->
<g id="node10" class="node">
<title>enable</title>
<path fill="#76b900" stroke="#76b900" d="M231.5,-587C231.5,-587 126.5,-587 126.5,-587 120.5,-587 114.5,-581 114.5,-575 114.5,-575 114.5,-563 114.5,-563 114.5,-557 120.5,-551 126.5,-551 126.5,-551 231.5,-551 231.5,-551 237.5,-551 243.5,-557 243.5,-563 243.5,-563 243.5,-575 243.5,-575 243.5,-581 237.5,-587 231.5,-587"/>
<text text-anchor="middle" x="179" y="-565.9" font-family="Times,serif" font-size="12.00" fill="#ffffff">Obstacle Enabled?</text>
</g>
<!-- query&#45;&gt;enable -->
<g id="edge2" class="edge">
<title>query&#45;&gt;enable</title>
<path fill="none" stroke="#2b4162" d="M179,-644.97C179,-635.26 179,-614.56 179,-597.36"/>
<polygon fill="#2b4162" stroke="#2b4162" points="182.5,-597.24 179,-587.24 175.5,-597.24 182.5,-597.24"/>
</g>
<!-- transform -->
<g id="node3" class="node">
<title>transform</title>
<path fill="#76b900" stroke="#76b900" d="M277.5,-504C277.5,-504 80.5,-504 80.5,-504 74.5,-504 68.5,-498 68.5,-492 68.5,-492 68.5,-480 68.5,-480 68.5,-474 74.5,-468 80.5,-468 80.5,-468 277.5,-468 277.5,-468 283.5,-468 289.5,-474 289.5,-480 289.5,-480 289.5,-492 289.5,-492 289.5,-498 283.5,-504 277.5,-504"/>
<text text-anchor="middle" x="179" y="-482.9" font-family="Times,serif" font-size="12.00" fill="#ffffff">Transform Spheres to Obj. Frame</text>
</g>
<!-- check -->
<g id="node4" class="node">
<title>check</title>
<path fill="#76b900" stroke="#76b900" d="M270,-421C270,-421 88,-421 88,-421 82,-421 76,-415 76,-409 76,-409 76,-397 76,-397 76,-391 82,-385 88,-385 88,-385 270,-385 270,-385 276,-385 282,-391 282,-397 282,-397 282,-409 282,-409 282,-415 276,-421 270,-421"/>
<text text-anchor="middle" x="179" y="-399.9" font-family="Times,serif" font-size="12.00" fill="#ffffff">Continuous Collision Algorithm</text>
</g>
<!-- transform&#45;&gt;check -->
<g id="edge4" class="edge">
<title>transform&#45;&gt;check</title>
<path fill="none" stroke="#2b4162" d="M179,-467.82C179,-457.19 179,-443.31 179,-431.2"/>
<polygon fill="#2b4162" stroke="#2b4162" points="182.5,-431.15 179,-421.15 175.5,-431.15 182.5,-431.15"/>
<text text-anchor="middle" x="236.5" y="-442" font-family="Times,serif" font-size="10.00">sphere in object frame</text>
</g>
<!-- inv_transform -->
<g id="node6" class="node">
<title>inv_transform</title>
<path fill="#76b900" stroke="#76b900" d="M284.5,-338C284.5,-338 73.5,-338 73.5,-338 67.5,-338 61.5,-332 61.5,-326 61.5,-326 61.5,-314 61.5,-314 61.5,-308 67.5,-302 73.5,-302 73.5,-302 284.5,-302 284.5,-302 290.5,-302 296.5,-308 296.5,-314 296.5,-314 296.5,-326 296.5,-326 296.5,-332 290.5,-338 284.5,-338"/>
<text text-anchor="middle" x="179" y="-316.9" font-family="Times,serif" font-size="12.00" fill="#ffffff">Transform gradient to World Frame</text>
</g>
<!-- check&#45;&gt;inv_transform -->
<g id="edge5" class="edge">
<title>check&#45;&gt;inv_transform</title>
<path fill="none" stroke="#2b4162" d="M179,-384.82C179,-374.19 179,-360.31 179,-348.2"/>
<polygon fill="#2b4162" stroke="#2b4162" points="182.5,-348.15 179,-338.15 175.5,-348.15 182.5,-348.15"/>
<text text-anchor="middle" x="241" y="-359" font-family="Times,serif" font-size="10.00">gradient in object frame</text>
</g>
<!-- speed -->
<g id="node5" class="node">
<title>speed</title>
<path fill="#76b900" stroke="#76b900" d="M215.5,-182C215.5,-182 142.5,-182 142.5,-182 136.5,-182 130.5,-176 130.5,-170 130.5,-170 130.5,-158 130.5,-158 130.5,-152 136.5,-146 142.5,-146 142.5,-146 215.5,-146 215.5,-146 221.5,-146 227.5,-152 227.5,-158 227.5,-158 227.5,-170 227.5,-170 227.5,-176 221.5,-182 215.5,-182"/>
<text text-anchor="middle" x="179" y="-160.9" font-family="Times,serif" font-size="12.00" fill="#ffffff">Speed Metric</text>
</g>
<!-- write -->
<g id="node8" class="node">
<title>write</title>
<path fill="#76b900" stroke="#76b900" d="M243,-109C243,-109 115,-109 115,-109 109,-109 103,-103 103,-97 103,-97 103,-85 103,-85 103,-79 109,-73 115,-73 115,-73 243,-73 243,-73 249,-73 255,-79 255,-85 255,-85 255,-97 255,-97 255,-103 249,-109 243,-109"/>
<text text-anchor="middle" x="179" y="-87.9" font-family="Times,serif" font-size="12.00" fill="#ffffff">Write Cost &amp; Gradient</text>
</g>
<!-- speed&#45;&gt;write -->
<g id="edge8" class="edge">
<title>speed&#45;&gt;write</title>
<path fill="none" stroke="#2b4162" d="M179,-145.81C179,-137.79 179,-128.05 179,-119.07"/>
<polygon fill="#2b4162" stroke="#2b4162" points="182.5,-119.03 179,-109.03 175.5,-119.03 182.5,-119.03"/>
</g>
<!-- sum_cost -->
<g id="node7" class="node">
<title>sum_cost</title>
<path fill="#76b900" stroke="#76b900" d="M240,-255C240,-255 118,-255 118,-255 112,-255 106,-249 106,-243 106,-243 106,-231 106,-231 106,-225 112,-219 118,-219 118,-219 240,-219 240,-219 246,-219 252,-225 252,-231 252,-231 252,-243 252,-243 252,-249 246,-255 240,-255"/>
<text text-anchor="middle" x="179" y="-233.9" font-family="Times,serif" font-size="12.00" fill="#ffffff">Sum Cost &amp; Gradient</text>
</g>
<!-- inv_transform&#45;&gt;sum_cost -->
<g id="edge6" class="edge">
<title>inv_transform&#45;&gt;sum_cost</title>
<path fill="none" stroke="#2b4162" d="M179,-301.82C179,-291.19 179,-277.31 179,-265.2"/>
<polygon fill="#2b4162" stroke="#2b4162" points="182.5,-265.15 179,-255.15 175.5,-265.15 182.5,-265.15"/>
<text text-anchor="middle" x="239.5" y="-276" font-family="Times,serif" font-size="10.00">gradient in world frame</text>
</g>
<!-- sum_cost&#45;&gt;speed -->
<g id="edge7" class="edge">
<title>sum_cost&#45;&gt;speed</title>
<path fill="none" stroke="#2b4162" d="M179,-218.81C179,-210.79 179,-201.05 179,-192.07"/>
<polygon fill="#2b4162" stroke="#2b4162" points="182.5,-192.03 179,-182.03 175.5,-192.03 182.5,-192.03"/>
</g>
<!-- sum_all -->
<g id="node9" class="node">
<title>sum_all</title>
<path fill="#76b900" stroke="#76b900" d="M298.5,-36C298.5,-36 59.5,-36 59.5,-36 53.5,-36 47.5,-30 47.5,-24 47.5,-24 47.5,-12 47.5,-12 47.5,-6 53.5,0 59.5,0 59.5,0 298.5,0 298.5,0 304.5,0 310.5,-6 310.5,-12 310.5,-12 310.5,-24 310.5,-24 310.5,-30 304.5,-36 298.5,-36"/>
<text text-anchor="middle" x="179" y="-14.9" font-family="Times,serif" font-size="12.00" fill="#ffffff">Sum Cost across Trajectories of Spheres</text>
</g>
<!-- write&#45;&gt;sum_all -->
<g id="edge9" class="edge">
<title>write&#45;&gt;sum_all</title>
<path fill="none" stroke="#2b4162" d="M179,-72.81C179,-64.79 179,-55.05 179,-46.07"/>
<polygon fill="#2b4162" stroke="#2b4162" points="182.5,-46.03 179,-36.03 175.5,-46.03 182.5,-46.03"/>
</g>
<!-- enable&#45;&gt;transform -->
<g id="edge3" class="edge">
<title>enable&#45;&gt;transform</title>
<path fill="none" stroke="#2b4162" d="M179,-550.82C179,-540.19 179,-526.31 179,-514.2"/>
<polygon fill="#2b4162" stroke="#2b4162" points="182.5,-514.15 179,-504.15 175.5,-514.15 182.5,-514.15"/>
<text text-anchor="middle" x="227.5" y="-525" font-family="Times,serif" font-size="10.00">only when enabled</text>
</g>
</g>
</svg>
