<?xml version="1.0" encoding="UTF-8" standalone="no"?>
<!DOCTYPE svg PUBLIC "-//W3C//DTD SVG 1.1//EN"
 "http://www.w3.org/Graphics/SVG/1.1/DTD/svg11.dtd">
<!-- Generated by graphviz version 2.43.0 (0)
 -->
<!-- Title: %3 Pages: 1 -->
<svg width="711pt" height="106pt"
 viewBox="0.00 0.00 711.00 106.00" xmlns="http://www.w3.org/2000/svg" xmlns:xlink="http://www.w3.org/1999/xlink">
<g id="graph0" class="graph" transform="scale(1 1) rotate(0) translate(4 102)">
<title>%3</title>
<polygon fill="white" stroke="transparent" points="-4,4 -4,-102 707,-102 707,4 -4,4"/>
<g id="clust1" class="cluster">
<title>cluster_training</title>
<polygon fill="none" stroke="black" stroke-dasharray="5,2" points="448,-15 448,-90 695,-90 695,-15 448,-15"/>
<text text-anchor="middle" x="571.5" y="-74.8" font-family="Times,serif" font-size="14.00">Training</text>
</g>
<!-- nn -->
<g id="node1" class="node">
<title>nn</title>
<path fill="#cccccc" stroke="#cccccc" d="M309,-59C309,-59 217,-59 217,-59 211,-59 205,-53 205,-47 205,-47 205,-35 205,-35 205,-29 211,-23 217,-23 217,-23 309,-23 309,-23 315,-23 321,-29 321,-35 321,-35 321,-47 321,-47 321,-53 315,-59 309,-59"/>
<text text-anchor="middle" x="263" y="-37.9" font-family="Times,serif" font-size="12.00">Neural Network</text>
</g>
<!-- output -->
<g id="node3" class="node">
<title>output</title>
<text text-anchor="middle" x="388.5" y="-37.9" font-family="Times,serif" font-size="12.00">Prediction</text>
</g>
<!-- nn&#45;&gt;output -->
<g id="edge5" class="edge">
<title>nn&#45;&gt;output</title>
<path fill="none" stroke="#708090" d="M321.05,-41C329.76,-41 338.6,-41 346.86,-41"/>
<polygon fill="#708090" stroke="#708090" points="346.96,-44.5 356.96,-41 346.96,-37.5 346.96,-44.5"/>
</g>
<!-- input -->
<g id="node2" class="node">
<title>input</title>
<text text-anchor="middle" x="16" y="-37.9" font-family="Times,serif" font-size="12.00">Input</text>
</g>
<!-- input&#45;&gt;nn -->
<g id="edge1" class="edge">
<title>input&#45;&gt;nn</title>
<path fill="none" stroke="#708090" d="M32.16,-42.5C42.29,-43.43 55.93,-44.53 68,-45 110,-46.64 157.14,-45.74 194.44,-44.37"/>
<polygon fill="#708090" stroke="#708090" points="194.83,-47.86 204.68,-43.98 194.56,-40.87 194.83,-47.86"/>
</g>
<!-- cu_features -->
<g id="node4" class="node">
<title>cu_features</title>
<path fill="#76b900" stroke="#76b900" d="M157,-36C157,-36 80,-36 80,-36 74,-36 68,-30 68,-24 68,-24 68,-12 68,-12 68,-6 74,0 80,0 80,0 157,0 157,0 163,0 169,-6 169,-12 169,-12 169,-24 169,-24 169,-30 163,-36 157,-36"/>
<text text-anchor="middle" x="118.5" y="-14.9" font-family="Times,serif" font-size="12.00" fill="white">cuRobo Layer</text>
</g>
<!-- input&#45;&gt;cu_features -->
<g id="edge2" class="edge">
<title>input&#45;&gt;cu_features</title>
<path fill="none" stroke="#708090" d="M32.26,-37.51C39.36,-35.88 48.29,-33.84 57.69,-31.69"/>
<polygon fill="#708090" stroke="#708090" points="58.63,-35.06 67.6,-29.42 57.07,-28.24 58.63,-35.06"/>
</g>
<!-- loss -->
<g id="node5" class="node">
<title>loss</title>
<path fill="#cccccc" stroke="#cccccc" d="M545,-59C545,-59 468,-59 468,-59 462,-59 456,-53 456,-47 456,-47 456,-35 456,-35 456,-29 462,-23 468,-23 468,-23 545,-23 545,-23 551,-23 557,-29 557,-35 557,-35 557,-47 557,-47 557,-53 551,-59 545,-59"/>
<text text-anchor="middle" x="506.5" y="-37.9" font-family="Times,serif" font-size="12.00">Loss Function</text>
</g>
<!-- output&#45;&gt;loss -->
<g id="edge4" class="edge">
<title>output&#45;&gt;loss</title>
<path fill="none" stroke="#708090" stroke-dasharray="5,2" d="M430.35,-41C435.22,-41 440.26,-41 445.33,-41"/>
<polygon fill="#708090" stroke="#708090" points="430.28,-37.5 420.28,-41 430.28,-44.5 430.28,-37.5"/>
<polygon fill="#708090" stroke="#708090" points="445.72,-44.5 455.72,-41 445.72,-37.5 445.72,-44.5"/>
</g>
<!-- cu_features&#45;&gt;nn -->
<g id="edge3" class="edge">
<title>cu_features&#45;&gt;nn</title>
<path fill="none" stroke="#708090" d="M169.34,-26.04C177.53,-27.37 186.14,-28.76 194.67,-30.13"/>
<polygon fill="#708090" stroke="#708090" points="194.19,-33.6 204.62,-31.74 195.31,-26.69 194.19,-33.6"/>
</g>
<!-- cu_loss -->
<g id="node6" class="node">
<title>cu_loss</title>
<path fill="#76b900" stroke="#76b900" d="M675,-59C675,-59 605,-59 605,-59 599,-59 593,-53 593,-47 593,-47 593,-35 593,-35 593,-29 599,-23 605,-23 605,-23 675,-23 675,-23 681,-23 687,-29 687,-35 687,-35 687,-47 687,-47 687,-53 681,-59 675,-59"/>
<text text-anchor="middle" x="640" y="-37.9" font-family="Times,serif" font-size="12.00" fill="white">cuRobo Loss</text>
</g>
<!-- loss&#45;&gt;cu_loss -->
<g id="edge6" class="edge">
<title>loss&#45;&gt;cu_loss</title>
<path fill="none" stroke="#708090" stroke-dasharray="5,2" d="M567.45,-41C572.48,-41 577.55,-41 582.56,-41"/>
<polygon fill="#708090" stroke="#708090" points="567.21,-37.5 557.21,-41 567.21,-44.5 567.21,-37.5"/>
<polygon fill="#708090" stroke="#708090" points="582.68,-44.5 592.68,-41 582.68,-37.5 582.68,-44.5"/>
</g>
</g>
</svg>
