<?xml version="1.0" encoding="UTF-8" standalone="no"?>
<!DOCTYPE svg PUBLIC "-//W3C//DTD SVG 1.1//EN"
 "http://www.w3.org/Graphics/SVG/1.1/DTD/svg11.dtd">
<!-- Generated by graphviz version 2.43.0 (0)
 -->
<!-- Title: %3 Pages: 1 -->
<svg width="722pt" height="207pt"
 viewBox="0.00 0.00 722.00 207.00" xmlns="http://www.w3.org/2000/svg" xmlns:xlink="http://www.w3.org/1999/xlink">
<g id="graph0" class="graph" transform="scale(1 1) rotate(0) translate(4 203)">
<title>%3</title>
<polygon fill="white" stroke="transparent" points="-4,4 -4,-203 718,-203 718,4 -4,4"/>
<g id="clust1" class="cluster">
<title>cluster_class</title>
<polygon fill="none" stroke="black" points="8,-8 8,-191 706,-191 706,-8 8,-8"/>
<text text-anchor="middle" x="357" y="-175.8" font-family="Times,serif" font-size="14.00">RobotWorld</text>
</g>
<!-- get_kin -->
<g id="node1" class="node">
<title>get_kin</title>
<path fill="#76b900" stroke="#76b900" d="M249.5,-133C249.5,-133 157.5,-133 157.5,-133 151.5,-133 145.5,-127 145.5,-121 145.5,-121 145.5,-109 145.5,-109 145.5,-103 151.5,-97 157.5,-97 157.5,-97 249.5,-97 249.5,-97 255.5,-97 261.5,-103 261.5,-109 261.5,-109 261.5,-121 261.5,-121 261.5,-127 255.5,-133 249.5,-133"/>
<text text-anchor="middle" x="203.5" y="-111.9" font-family="Times,serif" font-size="12.00" fill="white">get_kinematics()</text>
</g>
<!-- ee_pose -->
<g id="node5" class="node">
<title>ee_pose</title>
<path fill="#cccccc" stroke="#cccccc" d="M425,-106C425,-106 368,-106 368,-106 362,-106 356,-100 356,-94 356,-94 356,-82 356,-82 356,-76 362,-70 368,-70 368,-70 425,-70 425,-70 431,-70 437,-76 437,-82 437,-82 437,-94 437,-94 437,-100 431,-106 425,-106"/>
<text text-anchor="middle" x="396.5" y="-84.9" font-family="Times,serif" font-size="12.00">Link Poses</text>
</g>
<!-- get_kin&#45;&gt;ee_pose -->
<g id="edge2" class="edge">
<title>get_kin&#45;&gt;ee_pose</title>
<path fill="none" stroke="#708090" d="M261.55,-106.94C288.43,-103.14 320.19,-98.65 346.04,-94.99"/>
<polygon fill="#708090" stroke="#708090" points="346.58,-98.45 355.99,-93.59 345.6,-91.52 346.58,-98.45"/>
</g>
<!-- spheres -->
<g id="node6" class="node">
<title>spheres</title>
<path fill="#cccccc" stroke="#cccccc" d="M437,-160C437,-160 356,-160 356,-160 350,-160 344,-154 344,-148 344,-148 344,-136 344,-136 344,-130 350,-124 356,-124 356,-124 437,-124 437,-124 443,-124 449,-130 449,-136 449,-136 449,-148 449,-148 449,-154 443,-160 437,-160"/>
<text text-anchor="middle" x="396.5" y="-138.9" font-family="Times,serif" font-size="12.00">Robot Spheres</text>
</g>
<!-- get_kin&#45;&gt;spheres -->
<g id="edge3" class="edge">
<title>get_kin&#45;&gt;spheres</title>
<path fill="none" stroke="#708090" d="M261.55,-123.06C284.34,-126.29 310.63,-130 333.86,-133.29"/>
<polygon fill="#708090" stroke="#708090" points="333.56,-136.78 343.95,-134.71 334.54,-129.85 333.56,-136.78"/>
</g>
<!-- get_collision_distance -->
<g id="node2" class="node">
<title>get_collision_distance</title>
<path fill="#76b900" stroke="#76b900" d="M672.5,-79C672.5,-79 539.5,-79 539.5,-79 533.5,-79 527.5,-73 527.5,-67 527.5,-67 527.5,-55 527.5,-55 527.5,-49 533.5,-43 539.5,-43 539.5,-43 672.5,-43 672.5,-43 678.5,-43 684.5,-49 684.5,-55 684.5,-55 684.5,-67 684.5,-67 684.5,-73 678.5,-79 672.5,-79"/>
<text text-anchor="middle" x="606" y="-57.9" font-family="Times,serif" font-size="12.00" fill="white">get_collision_distance()</text>
</g>
<!-- get_self_coll -->
<g id="node3" class="node">
<title>get_self_coll</title>
<path fill="#76b900" stroke="#76b900" d="M686,-160C686,-160 526,-160 526,-160 520,-160 514,-154 514,-148 514,-148 514,-136 514,-136 514,-130 520,-124 526,-124 526,-124 686,-124 686,-124 692,-124 698,-130 698,-136 698,-136 698,-148 698,-148 698,-154 692,-160 686,-160"/>
<text text-anchor="middle" x="606" y="-138.9" font-family="Times,serif" font-size="12.00" fill="white">get_self_collision_distance()</text>
</g>
<!-- q -->
<g id="node4" class="node">
<title>q</title>
<text text-anchor="middle" x="54" y="-111.9" font-family="Times,serif" font-size="12.00">joint angles</text>
</g>
<!-- q&#45;&gt;get_kin -->
<g id="edge1" class="edge">
<title>q&#45;&gt;get_kin</title>
<path fill="none" stroke="#708090" d="M89.21,-115C102.89,-115 119.15,-115 135.03,-115"/>
<polygon fill="#708090" stroke="#708090" points="135.37,-118.5 145.37,-115 135.37,-111.5 135.37,-118.5"/>
</g>
<!-- spheres&#45;&gt;get_collision_distance -->
<g id="edge4" class="edge">
<title>spheres&#45;&gt;get_collision_distance</title>
<path fill="none" stroke="#708090" d="M449.25,-125.31C458.85,-122.03 468.77,-118.51 478,-115 503.79,-105.21 532.07,-93.3 555.39,-83.16"/>
<polygon fill="#708090" stroke="#708090" points="556.96,-86.3 564.72,-79.08 554.15,-79.88 556.96,-86.3"/>
</g>
<!-- spheres&#45;&gt;get_self_coll -->
<g id="edge5" class="edge">
<title>spheres&#45;&gt;get_self_coll</title>
<path fill="none" stroke="#708090" d="M449.06,-142C465.64,-142 484.63,-142 503.52,-142"/>
<polygon fill="#708090" stroke="#708090" points="503.68,-145.5 513.68,-142 503.68,-138.5 503.68,-145.5"/>
</g>
<!-- world -->
<g id="node7" class="node">
<title>world</title>
<path fill="#cccccc" stroke="#cccccc" d="M466,-52C466,-52 327,-52 327,-52 321,-52 315,-46 315,-40 315,-40 315,-28 315,-28 315,-22 321,-16 327,-16 327,-16 466,-16 466,-16 472,-16 478,-22 478,-28 478,-28 478,-40 478,-40 478,-46 472,-52 466,-52"/>
<text text-anchor="middle" x="396.5" y="-30.9" font-family="Times,serif" font-size="12.00">World Collision Checker</text>
</g>
<!-- world&#45;&gt;get_collision_distance -->
<g id="edge6" class="edge">
<title>world&#45;&gt;get_collision_distance</title>
<path fill="none" stroke="#708090" d="M478.02,-44.48C490.79,-46.14 504.05,-47.86 516.97,-49.55"/>
<polygon fill="#708090" stroke="#708090" points="516.88,-53.06 527.25,-50.88 517.78,-46.12 516.88,-53.06"/>
</g>
<!-- world_config -->
<g id="node8" class="node">
<title>world_config</title>
<text text-anchor="middle" x="54" y="-30.9" font-family="Times,serif" font-size="12.00">WorldConfig</text>
</g>
<!-- load_collision_model -->
<g id="node9" class="node">
<title>load_collision_model</title>
<path fill="#cccccc" stroke="#cccccc" d="M267,-52C267,-52 140,-52 140,-52 134,-52 128,-46 128,-40 128,-40 128,-28 128,-28 128,-22 134,-16 140,-16 140,-16 267,-16 267,-16 273,-16 279,-22 279,-28 279,-28 279,-40 279,-40 279,-46 273,-52 267,-52"/>
<text text-anchor="middle" x="203.5" y="-30.9" font-family="Times,serif" font-size="12.00">load_collision_model()</text>
</g>
<!-- world_config&#45;&gt;load_collision_model -->
<g id="edge7" class="edge">
<title>world_config&#45;&gt;load_collision_model</title>
<path fill="none" stroke="#708090" d="M92.22,-34C100.16,-34 108.85,-34 117.76,-34"/>
<polygon fill="#708090" stroke="#708090" points="117.89,-37.5 127.89,-34 117.89,-30.5 117.89,-37.5"/>
</g>
<!-- load_collision_model&#45;&gt;world -->
<g id="edge8" class="edge">
<title>load_collision_model&#45;&gt;world</title>
<path fill="none" stroke="#708090" d="M279.17,-34C287.59,-34 296.24,-34 304.84,-34"/>
<polygon fill="#708090" stroke="#708090" points="304.89,-37.5 314.89,-34 304.89,-30.5 304.89,-37.5"/>
</g>
</g>
</svg>
