<?xml version="1.0" encoding="UTF-8" standalone="no"?>
<!DOCTYPE svg PUBLIC "-//W3C//DTD SVG 1.1//EN"
 "http://www.w3.org/Graphics/SVG/1.1/DTD/svg11.dtd">
<!-- Generated by graphviz version 2.43.0 (0)
 -->
<!-- Title: %3 Pages: 1 -->
<svg width="278pt" height="306pt"
 viewBox="0.00 0.00 278.08 306.00" xmlns="http://www.w3.org/2000/svg" xmlns:xlink="http://www.w3.org/1999/xlink">
<g id="graph0" class="graph" transform="scale(1 1) rotate(0) translate(4 302)">
<title>%3</title>
<polygon fill="white" stroke="transparent" points="-4,4 -4,-302 274.08,-302 274.08,4 -4,4"/>
<text text-anchor="middle" x="135.04" y="-282.8" font-family="Times,serif" font-size="14.00">cuRobo NVBLOX Interface</text>
<!-- Isaac Sim -->
<g id="node1" class="node">
<title>Isaac Sim</title>
<path fill="#cccccc" stroke="#cccccc" d="M150.08,-119C150.08,-119 98.08,-119 98.08,-119 92.08,-119 86.08,-113 86.08,-107 86.08,-107 86.08,-95 86.08,-95 86.08,-89 92.08,-83 98.08,-83 98.08,-83 150.08,-83 150.08,-83 156.08,-83 162.08,-89 162.08,-95 162.08,-95 162.08,-107 162.08,-107 162.08,-113 156.08,-119 150.08,-119"/>
<text text-anchor="middle" x="124.08" y="-97.9" font-family="Times,serif" font-size="12.00">Isaac Sim</text>
</g>
<!-- motion_gen -->
<g id="node3" class="node">
<title>motion_gen</title>
<path fill="#76b900" stroke="#76b900" d="M197.58,-36C197.58,-36 48.58,-36 48.58,-36 42.58,-36 36.58,-30 36.58,-24 36.58,-24 36.58,-12 36.58,-12 36.58,-6 42.58,0 48.58,0 48.58,0 197.58,0 197.58,0 203.58,0 209.58,-6 209.58,-12 209.58,-12 209.58,-24 209.58,-24 209.58,-30 203.58,-36 197.58,-36"/>
<text text-anchor="middle" x="123.08" y="-14.9" font-family="Times,serif" font-size="12.00" fill="white">cuRobo MotionGen / MPC</text>
</g>
<!-- Isaac Sim&#45;&gt;motion_gen -->
<g id="edge3" class="edge">
<title>Isaac Sim&#45;&gt;motion_gen</title>
<path fill="none" stroke="#708090" d="M86.06,-100C58.74,-97.74 23.59,-89.74 5.08,-65 -7.37,-48.36 5.46,-37.74 26.59,-30.96"/>
<polygon fill="#708090" stroke="#708090" points="27.78,-34.26 36.47,-28.19 25.9,-27.52 27.78,-34.26"/>
<text text-anchor="middle" x="35.08" y="-57" font-family="Times,serif" font-size="10.00">Robot State</text>
</g>
<!-- Isaac Sim&#45;&gt;motion_gen -->
<g id="edge4" class="edge">
<title>Isaac Sim&#45;&gt;motion_gen</title>
<path fill="none" stroke="#708090" d="M101.02,-82.97C95.79,-77.83 90.93,-71.74 88.08,-65 84.95,-57.59 87.21,-50.31 91.8,-43.81"/>
<polygon fill="#708090" stroke="#708090" points="94.65,-45.86 98.61,-36.03 89.39,-41.24 94.65,-45.86"/>
<text text-anchor="middle" x="113.08" y="-57" font-family="Times,serif" font-size="10.00">Goal Pose</text>
</g>
<!-- world_coll -->
<g id="node2" class="node">
<title>world_coll</title>
<path fill="#76b900" stroke="#76b900" d="M258.08,-202C258.08,-202 100.08,-202 100.08,-202 94.08,-202 88.08,-196 88.08,-190 88.08,-190 88.08,-178 88.08,-178 88.08,-172 94.08,-166 100.08,-166 100.08,-166 258.08,-166 258.08,-166 264.08,-166 270.08,-172 270.08,-178 270.08,-178 270.08,-190 270.08,-190 270.08,-196 264.08,-202 258.08,-202"/>
<text text-anchor="middle" x="179.08" y="-180.9" font-family="Times,serif" font-size="12.00" fill="white">cuRobo WorldBloxCollision</text>
</g>
<!-- world_coll&#45;&gt;Isaac Sim -->
<g id="edge2" class="edge">
<title>world_coll&#45;&gt;Isaac Sim</title>
<path fill="none" stroke="#708090" d="M167.42,-165.82C159.91,-154.76 150.01,-140.18 141.56,-127.75"/>
<polygon fill="#708090" stroke="#708090" points="144.24,-125.46 135.73,-119.15 138.45,-129.39 144.24,-125.46"/>
<text text-anchor="middle" x="170.58" y="-140" font-family="Times,serif" font-size="10.00">Voxels</text>
</g>
<!-- world_coll&#45;&gt;motion_gen -->
<g id="edge6" class="edge">
<title>world_coll&#45;&gt;motion_gen</title>
<path fill="none" stroke="#708090" d="M189.17,-165.6C202.95,-139.27 223.55,-88.71 201.08,-54 198.18,-49.52 194.56,-45.61 190.47,-42.19"/>
<polygon fill="#708090" stroke="#708090" points="192.28,-39.18 182.11,-36.22 188.21,-44.88 192.28,-39.18"/>
</g>
<!-- motion_gen&#45;&gt;Isaac Sim -->
<g id="edge5" class="edge">
<title>motion_gen&#45;&gt;Isaac Sim</title>
<path fill="none" stroke="#708090" d="M132.16,-36.35C134.58,-41.85 136.86,-48.04 138.08,-54 139.35,-60.18 138.65,-66.72 137.03,-72.87"/>
<polygon fill="#708090" stroke="#708090" points="133.59,-72.13 133.63,-82.72 140.2,-74.41 133.59,-72.13"/>
<text text-anchor="middle" x="167.58" y="-57" font-family="Times,serif" font-size="10.00">Joint Action</text>
</g>
<!-- realsense -->
<g id="node4" class="node">
<title>realsense</title>
<path fill="#cccccc" stroke="#cccccc" d="M231.08,-275C231.08,-275 127.08,-275 127.08,-275 121.08,-275 115.08,-269 115.08,-263 115.08,-263 115.08,-251 115.08,-251 115.08,-245 121.08,-239 127.08,-239 127.08,-239 231.08,-239 231.08,-239 237.08,-239 243.08,-245 243.08,-251 243.08,-251 243.08,-263 243.08,-263 243.08,-269 237.08,-275 231.08,-275"/>
<text text-anchor="middle" x="179.08" y="-253.9" font-family="Times,serif" font-size="12.00">Realsense Camera</text>
</g>
<!-- realsense&#45;&gt;world_coll -->
<g id="edge1" class="edge">
<title>realsense&#45;&gt;world_coll</title>
<path fill="none" stroke="#708090" d="M179.08,-238.81C179.08,-230.79 179.08,-221.05 179.08,-212.07"/>
<polygon fill="#708090" stroke="#708090" points="182.58,-212.03 179.08,-202.03 175.58,-212.03 182.58,-212.03"/>
</g>
</g>
</svg>
