<?xml version="1.0" encoding="UTF-8" standalone="no"?>
<!DOCTYPE svg PUBLIC "-//W3C//DTD SVG 1.1//EN"
 "http://www.w3.org/Graphics/SVG/1.1/DTD/svg11.dtd">
<!-- Generated by graphviz version 2.43.0 (0)
 -->
<!-- Title: %3 Pages: 1 -->
<svg width="620pt" height="302pt"
 viewBox="0.00 0.00 620.00 302.00" xmlns="http://www.w3.org/2000/svg" xmlns:xlink="http://www.w3.org/1999/xlink">
<g id="graph0" class="graph" transform="scale(1 1) rotate(0) translate(4 298)">
<title>%3</title>
<polygon fill="white" stroke="transparent" points="-4,4 -4,-298 616,-298 616,4 -4,4"/>
<g id="clust3" class="cluster">
<title>cluster_attach_object</title>
<polygon fill="none" stroke="#76b900" points="387,-64 387,-286 604,-286 604,-64 387,-64"/>
<text text-anchor="middle" x="495.5" y="-270.8" font-family="Times,serif" font-size="14.00">Attach Object to Kinematics</text>
</g>
<g id="clust4" class="cluster">
<title>cluster_detach_object</title>
<polygon fill="none" stroke="#76b900" points="8,-64 8,-211 248,-211 248,-64 8,-64"/>
<text text-anchor="middle" x="128" y="-195.8" font-family="Times,serif" font-size="14.00">Detach Object from Kinematics</text>
</g>
<!-- world_coll -->
<g id="node1" class="node">
<title>world_coll</title>
<path fill="#76b900" stroke="#76b900" d="M386.5,-36C386.5,-36 255.5,-36 255.5,-36 249.5,-36 243.5,-30 243.5,-24 243.5,-24 243.5,-12 243.5,-12 243.5,-6 249.5,0 255.5,0 255.5,0 386.5,0 386.5,0 392.5,0 398.5,-6 398.5,-12 398.5,-12 398.5,-24 398.5,-24 398.5,-30 392.5,-36 386.5,-36"/>
<text text-anchor="middle" x="321" y="-14.9" font-family="Times,serif" font-size="12.00" fill="white">cuRobo WorldCollision</text>
</g>
<!-- cu_kin -->
<g id="node2" class="node">
<title>cu_kin</title>
<path fill="#76b900" stroke="#76b900" d="M367,-108C367,-108 269,-108 269,-108 263,-108 257,-102 257,-96 257,-96 257,-84 257,-84 257,-78 263,-72 269,-72 269,-72 367,-72 367,-72 373,-72 379,-78 379,-84 379,-84 379,-96 379,-96 379,-102 373,-108 367,-108"/>
<text text-anchor="middle" x="318" y="-86.9" font-family="Times,serif" font-size="12.00" fill="white">CudaRobotModel</text>
</g>
<!-- K -->
<g id="node3" class="node">
<title>K</title>
<path fill="#cccccc" stroke="#cccccc" d="M213.5,-180C213.5,-180 122.5,-180 122.5,-180 116.5,-180 110.5,-174 110.5,-168 110.5,-168 110.5,-156 110.5,-156 110.5,-150 116.5,-144 122.5,-144 122.5,-144 213.5,-144 213.5,-144 219.5,-144 225.5,-150 225.5,-156 225.5,-156 225.5,-168 225.5,-168 225.5,-174 219.5,-180 213.5,-180"/>
<text text-anchor="middle" x="168" y="-158.9" font-family="Times,serif" font-size="12.00">Remove spheres</text>
</g>
<!-- K&#45;&gt;cu_kin -->
<g id="edge1" class="edge">
<title>K&#45;&gt;cu_kin</title>
<path fill="none" stroke="#708090" d="M204.69,-143.88C225.02,-134.39 250.47,-122.51 272.1,-112.42"/>
<polygon fill="#708090" stroke="#708090" points="273.84,-115.47 281.43,-108.07 270.88,-109.13 273.84,-115.47"/>
</g>
<!-- L -->
<g id="node5" class="node">
<title>L</title>
<path fill="#cccccc" stroke="#cccccc" d="M226.5,-108C226.5,-108 83.5,-108 83.5,-108 77.5,-108 71.5,-102 71.5,-96 71.5,-96 71.5,-84 71.5,-84 71.5,-78 77.5,-72 83.5,-72 83.5,-72 226.5,-72 226.5,-72 232.5,-72 238.5,-78 238.5,-84 238.5,-84 238.5,-96 238.5,-96 238.5,-102 232.5,-108 226.5,-108"/>
<text text-anchor="middle" x="155" y="-86.9" font-family="Times,serif" font-size="12.00">Enable obstacle in world</text>
</g>
<!-- K&#45;&gt;L -->
<g id="edge7" class="edge">
<title>K&#45;&gt;L</title>
<path fill="none" stroke="#708090" d="M164.79,-143.7C163.35,-135.98 161.63,-126.71 160.04,-118.11"/>
<polygon fill="#708090" stroke="#708090" points="163.44,-117.3 158.18,-108.1 156.56,-118.58 163.44,-117.3"/>
</g>
<!-- N -->
<g id="node4" class="node">
<title>N</title>
<path fill="#cccccc" stroke="#cccccc" d="M577,-180C577,-180 407,-180 407,-180 401,-180 395,-174 395,-168 395,-168 395,-156 395,-156 395,-150 401,-144 407,-144 407,-144 577,-144 577,-144 583,-144 589,-150 589,-156 589,-156 589,-168 589,-168 589,-174 583,-180 577,-180"/>
<text text-anchor="middle" x="492" y="-158.9" font-family="Times,serif" font-size="12.00">Attach Spheres to Kinematics</text>
</g>
<!-- N&#45;&gt;cu_kin -->
<g id="edge2" class="edge">
<title>N&#45;&gt;cu_kin</title>
<path fill="none" stroke="#708090" d="M449.43,-143.88C425.44,-134.22 395.27,-122.09 369.9,-111.88"/>
<polygon fill="#708090" stroke="#708090" points="371.01,-108.55 360.43,-108.07 368.4,-115.05 371.01,-108.55"/>
</g>
<!-- O -->
<g id="node6" class="node">
<title>O</title>
<path fill="#cccccc" stroke="#cccccc" d="M560,-108C560,-108 414,-108 414,-108 408,-108 402,-102 402,-96 402,-96 402,-84 402,-84 402,-78 408,-72 414,-72 414,-72 560,-72 560,-72 566,-72 572,-78 572,-84 572,-84 572,-96 572,-96 572,-102 566,-108 560,-108"/>
<text text-anchor="middle" x="487" y="-86.9" font-family="Times,serif" font-size="12.00">Disable obstacle in world</text>
</g>
<!-- N&#45;&gt;O -->
<g id="edge6" class="edge">
<title>N&#45;&gt;O</title>
<path fill="none" stroke="#708090" d="M490.76,-143.7C490.21,-135.98 489.55,-126.71 488.94,-118.11"/>
<polygon fill="#708090" stroke="#708090" points="492.43,-117.83 488.22,-108.1 485.44,-118.33 492.43,-117.83"/>
</g>
<!-- L&#45;&gt;world_coll -->
<g id="edge3" class="edge">
<title>L&#45;&gt;world_coll</title>
<path fill="none" stroke="#708090" d="M195.61,-71.88C218.4,-62.26 247.03,-50.19 271.17,-40.01"/>
<polygon fill="#708090" stroke="#708090" points="272.67,-43.18 280.52,-36.07 269.95,-36.73 272.67,-43.18"/>
</g>
<!-- O&#45;&gt;world_coll -->
<g id="edge4" class="edge">
<title>O&#45;&gt;world_coll</title>
<path fill="none" stroke="#708090" d="M446.39,-71.88C423.6,-62.26 394.97,-50.19 370.83,-40.01"/>
<polygon fill="#708090" stroke="#708090" points="372.05,-36.73 361.48,-36.07 369.33,-43.18 372.05,-36.73"/>
</g>
<!-- M -->
<g id="node7" class="node">
<title>M</title>
<path fill="#cccccc" stroke="#cccccc" d="M574.5,-255C574.5,-255 409.5,-255 409.5,-255 403.5,-255 397.5,-249 397.5,-243 397.5,-243 397.5,-231 397.5,-231 397.5,-225 403.5,-219 409.5,-219 409.5,-219 574.5,-219 574.5,-219 580.5,-219 586.5,-225 586.5,-231 586.5,-231 586.5,-243 586.5,-243 586.5,-249 580.5,-255 574.5,-255"/>
<text text-anchor="middle" x="492" y="-233.9" font-family="Times,serif" font-size="12.00">Generate Spheres for Object</text>
</g>
<!-- M&#45;&gt;N -->
<g id="edge5" class="edge">
<title>M&#45;&gt;N</title>
<path fill="none" stroke="#708090" d="M492,-218.7C492,-210.25 492,-199.87 492,-190.37"/>
<polygon fill="#708090" stroke="#708090" points="495.5,-190.18 492,-180.18 488.5,-190.18 495.5,-190.18"/>
</g>
</g>
</svg>
