<?xml version="1.0" encoding="UTF-8" standalone="no"?>
<!DOCTYPE svg PUBLIC "-//W3C//DTD SVG 1.1//EN"
 "http://www.w3.org/Graphics/SVG/1.1/DTD/svg11.dtd">
<!-- Generated by graphviz version 2.43.0 (0)
 -->
<!-- Title: %3 Pages: 1 -->
<svg width="588pt" height="726pt"
 viewBox="0.00 0.00 587.50 726.00" xmlns="http://www.w3.org/2000/svg" xmlns:xlink="http://www.w3.org/1999/xlink">
<g id="graph0" class="graph" transform="scale(1 1) rotate(0) translate(4 722)">
<title>%3</title>
<polygon fill="white" stroke="transparent" points="-4,4 -4,-722 583.5,-722 583.5,4 -4,4"/>
<g id="clust5" class="cluster">
<title>cluster_pick_place</title>
<polygon fill="none" stroke="black" points="216,-76.5 216,-710 438,-710 438,-76.5 216,-76.5"/>
<text text-anchor="middle" x="327" y="-694.8" font-family="Times,serif" font-size="14.00">Pick Place Sequence</text>
</g>
<g id="clust6" class="cluster">
<title>cluster_world_monitor</title>
<polygon fill="none" stroke="black" points="8,-65 8,-213 185,-213 185,-65 8,-65"/>
<text text-anchor="middle" x="96.5" y="-197.8" font-family="Times,serif" font-size="14.00">cuRobo World Monitor</text>
</g>
<!-- Isaac Sim -->
<g id="node1" class="node">
<title>Isaac Sim</title>
<path fill="#cccccc" stroke="#cccccc" d="M156,-453C156,-453 104,-453 104,-453 98,-453 92,-447 92,-441 92,-441 92,-429 92,-429 92,-423 98,-417 104,-417 104,-417 156,-417 156,-417 162,-417 168,-423 168,-429 168,-429 168,-441 168,-441 168,-447 162,-453 156,-453"/>
<text text-anchor="middle" x="130" y="-431.9" font-family="Times,serif" font-size="12.00">Isaac Sim</text>
</g>
<!-- C -->
<g id="node5" class="node">
<title>C</title>
<path fill="#76b900" stroke="#76b900" d="M348.5,-619C348.5,-619 265.5,-619 265.5,-619 259.5,-619 253.5,-613 253.5,-607 253.5,-607 253.5,-595 253.5,-595 253.5,-589 259.5,-583 265.5,-583 265.5,-583 348.5,-583 348.5,-583 354.5,-583 360.5,-589 360.5,-595 360.5,-595 360.5,-607 360.5,-607 360.5,-613 354.5,-619 348.5,-619"/>
<text text-anchor="middle" x="307" y="-597.9" font-family="Times,serif" font-size="12.00" fill="white">Plan and Move</text>
</g>
<!-- Isaac Sim&#45;&gt;C -->
<g id="edge8" class="edge">
<title>Isaac Sim&#45;&gt;C</title>
<path fill="none" stroke="#2b4162" stroke-dasharray="5,2" d="M121.1,-453.11C111.41,-474.35 99.38,-510.84 116,-536 143.36,-577.42 199.1,-592.58 243.34,-597.87"/>
<polygon fill="#2b4162" stroke="#2b4162" points="243.14,-601.37 253.45,-598.94 243.87,-594.41 243.14,-601.37"/>
<text text-anchor="middle" x="146" y="-515.5" font-family="Times,serif" font-size="10.00" fill="#708090">Robot State</text>
</g>
<!-- G -->
<g id="node6" class="node">
<title>G</title>
<path fill="#76b900" stroke="#76b900" d="M346.5,-370C346.5,-370 263.5,-370 263.5,-370 257.5,-370 251.5,-364 251.5,-358 251.5,-358 251.5,-346 251.5,-346 251.5,-340 257.5,-334 263.5,-334 263.5,-334 346.5,-334 346.5,-334 352.5,-334 358.5,-340 358.5,-346 358.5,-346 358.5,-358 358.5,-358 358.5,-364 352.5,-370 346.5,-370"/>
<text text-anchor="middle" x="305" y="-348.9" font-family="Times,serif" font-size="12.00" fill="white">Plan and Move</text>
</g>
<!-- Isaac Sim&#45;&gt;G -->
<g id="edge9" class="edge">
<title>Isaac Sim&#45;&gt;G</title>
<path fill="none" stroke="#2b4162" stroke-dasharray="5,2" d="M168.03,-425.01C189.75,-419.11 217.13,-410.39 240,-399 247.11,-395.46 260.92,-385.84 273.99,-376.31"/>
<polygon fill="#2b4162" stroke="#2b4162" points="276.42,-378.87 282.39,-370.12 272.27,-373.23 276.42,-378.87"/>
<text text-anchor="middle" x="286" y="-391" font-family="Times,serif" font-size="10.00" fill="#708090">Robot State</text>
</g>
<!-- E -->
<g id="node7" class="node">
<title>E</title>
<path fill="#76b900" stroke="#76b900" d="M418.5,-453C418.5,-453 257.5,-453 257.5,-453 251.5,-453 245.5,-447 245.5,-441 245.5,-441 245.5,-429 245.5,-429 245.5,-423 251.5,-417 257.5,-417 257.5,-417 418.5,-417 418.5,-417 424.5,-417 430.5,-423 430.5,-429 430.5,-429 430.5,-441 430.5,-441 430.5,-447 424.5,-453 418.5,-453"/>
<text text-anchor="middle" x="338" y="-431.9" font-family="Times,serif" font-size="12.00" fill="white">Attach Object to Kinematics</text>
</g>
<!-- Isaac Sim&#45;&gt;E -->
<g id="edge10" class="edge">
<title>Isaac Sim&#45;&gt;E</title>
<path fill="none" stroke="#2b4162" stroke-dasharray="5,2" d="M168.15,-435C187.14,-435 211.09,-435 234.98,-435"/>
<polygon fill="#2b4162" stroke="#2b4162" points="235.2,-438.5 245.2,-435 235.2,-431.5 235.2,-438.5"/>
<text text-anchor="middle" x="206.75" y="-441" font-family="Times,serif" font-size="10.00" fill="#708090">Robot State</text>
</g>
<!-- usd_help -->
<g id="node9" class="node">
<title>usd_help</title>
<path fill="#76b900" stroke="#76b900" d="M104.5,-182C104.5,-182 47.5,-182 47.5,-182 41.5,-182 35.5,-176 35.5,-170 35.5,-170 35.5,-158 35.5,-158 35.5,-152 41.5,-146 47.5,-146 47.5,-146 104.5,-146 104.5,-146 110.5,-146 116.5,-152 116.5,-158 116.5,-158 116.5,-170 116.5,-170 116.5,-176 110.5,-182 104.5,-182"/>
<text text-anchor="middle" x="76" y="-160.9" font-family="Times,serif" font-size="12.00" fill="white">UsdHelper</text>
</g>
<!-- Isaac Sim&#45;&gt;usd_help -->
<g id="edge7" class="edge">
<title>Isaac Sim&#45;&gt;usd_help</title>
<path fill="none" stroke="#2b4162" stroke-dasharray="5,2" d="M126.54,-416.76C117.4,-371.21 92.53,-247.36 81.45,-192.17"/>
<polygon fill="#2b4162" stroke="#2b4162" points="84.83,-191.21 79.43,-182.09 77.97,-192.59 84.83,-191.21"/>
<text text-anchor="middle" x="132.5" y="-302.5" font-family="Times,serif" font-size="10.00" fill="#708090">Usd Stage</text>
</g>
<!-- world_coll -->
<g id="node2" class="node">
<title>world_coll</title>
<path fill="#76b900" stroke="#76b900" d="M418.5,-36C418.5,-36 287.5,-36 287.5,-36 281.5,-36 275.5,-30 275.5,-24 275.5,-24 275.5,-12 275.5,-12 275.5,-6 281.5,0 287.5,0 287.5,0 418.5,0 418.5,0 424.5,0 430.5,-6 430.5,-12 430.5,-12 430.5,-24 430.5,-24 430.5,-30 424.5,-36 418.5,-36"/>
<text text-anchor="middle" x="353" y="-14.9" font-family="Times,serif" font-size="12.00" fill="white">cuRobo WorldCollision</text>
</g>
<!-- motion_gen -->
<g id="node3" class="node">
<title>motion_gen</title>
<path fill="#76b900" stroke="#76b900" d="M567.5,-109C567.5,-109 458.5,-109 458.5,-109 452.5,-109 446.5,-103 446.5,-97 446.5,-97 446.5,-85 446.5,-85 446.5,-79 452.5,-73 458.5,-73 458.5,-73 567.5,-73 567.5,-73 573.5,-73 579.5,-79 579.5,-85 579.5,-85 579.5,-97 579.5,-97 579.5,-103 573.5,-109 567.5,-109"/>
<text text-anchor="middle" x="513" y="-87.9" font-family="Times,serif" font-size="12.00" fill="white">cuRobo MotionGen</text>
</g>
<!-- motion_gen&#45;&gt;world_coll -->
<g id="edge6" class="edge">
<title>motion_gen&#45;&gt;world_coll</title>
<path fill="none" stroke="#2b4162" d="M474.68,-72.99C452.48,-63.14 424.34,-50.66 400.71,-40.17"/>
<polygon fill="#2b4162" stroke="#2b4162" points="402.13,-36.97 391.57,-36.11 399.29,-43.37 402.13,-36.97"/>
</g>
<!-- T -->
<g id="node4" class="node">
<title>T</title>
<path fill="#76b900" stroke="#76b900" d="M130,-109C130,-109 62,-109 62,-109 56,-109 50,-103 50,-97 50,-97 50,-85 50,-85 50,-79 56,-73 62,-73 62,-73 130,-73 130,-73 136,-73 142,-79 142,-85 142,-85 142,-97 142,-97 142,-103 136,-109 130,-109"/>
<text text-anchor="middle" x="96" y="-87.9" font-family="Times,serif" font-size="12.00" fill="white">WorldConfig</text>
</g>
<!-- T&#45;&gt;world_coll -->
<g id="edge1" class="edge">
<title>T&#45;&gt;world_coll</title>
<path fill="none" stroke="#2b4162" d="M142.24,-77.22C180.94,-66.53 236.8,-51.1 281.29,-38.81"/>
<polygon fill="#2b4162" stroke="#2b4162" points="282.47,-42.12 291.18,-36.08 280.61,-35.37 282.47,-42.12"/>
</g>
<!-- C&#45;&gt;Isaac Sim -->
<g id="edge11" class="edge">
<title>C&#45;&gt;Isaac Sim</title>
<path fill="none" stroke="#2b4162" stroke-dasharray="5,2" d="M274.76,-582.86C254.41,-571.18 228.23,-554.52 208,-536 194.79,-523.91 166.89,-486.83 148.29,-461.39"/>
<polygon fill="#2b4162" stroke="#2b4162" points="151.09,-459.28 142.38,-453.26 145.43,-463.4 151.09,-459.28"/>
<text text-anchor="middle" x="241" y="-515.5" font-family="Times,serif" font-size="10.00" fill="#708090">Robot Action</text>
</g>
<!-- C&#45;&gt;motion_gen -->
<g id="edge2" class="edge">
<title>C&#45;&gt;motion_gen</title>
<path fill="none" stroke="#2b4162" d="M360.51,-591.85C427.62,-580.09 534,-555.67 534,-519 534,-519 534,-519 534,-163 534,-147.84 529.54,-131.58 524.74,-118.45"/>
<polygon fill="#2b4162" stroke="#2b4162" points="527.97,-117.12 521.06,-109.09 521.46,-119.68 527.97,-117.12"/>
</g>
<!-- D -->
<g id="node11" class="node">
<title>D</title>
<path fill="none" stroke="black" d="M381.5,-536C381.5,-536 294.5,-536 294.5,-536 288.5,-536 282.5,-530 282.5,-524 282.5,-524 282.5,-512 282.5,-512 282.5,-506 288.5,-500 294.5,-500 294.5,-500 381.5,-500 381.5,-500 387.5,-500 393.5,-506 393.5,-512 393.5,-512 393.5,-524 393.5,-524 393.5,-530 387.5,-536 381.5,-536"/>
<text text-anchor="middle" x="338" y="-514.9" font-family="Times,serif" font-size="12.00">Object in Grasp</text>
</g>
<!-- C&#45;&gt;D -->
<g id="edge16" class="edge">
<title>C&#45;&gt;D</title>
<path fill="none" stroke="#558c8c" d="M313.57,-582.82C317.68,-572.08 323.06,-558.03 327.73,-545.84"/>
<polygon fill="#558c8c" stroke="#558c8c" points="331.13,-546.74 331.44,-536.15 324.59,-544.24 331.13,-546.74"/>
<text text-anchor="middle" x="359.5" y="-557" font-family="Times,serif" font-size="10.00" fill="#558c8c">Close Gripper</text>
</g>
<!-- G&#45;&gt;Isaac Sim -->
<g id="edge12" class="edge">
<title>G&#45;&gt;Isaac Sim</title>
<path fill="none" stroke="#2b4162" stroke-dasharray="5,2" d="M251.29,-363.53C219.86,-370.34 183.74,-379.49 170,-388 161.41,-393.32 153.66,-401.07 147.33,-408.69"/>
<polygon fill="#2b4162" stroke="#2b4162" points="144.4,-406.76 141.03,-416.8 149.93,-411.05 144.4,-406.76"/>
<text text-anchor="middle" x="203" y="-391" font-family="Times,serif" font-size="10.00" fill="#708090">Robot Action</text>
</g>
<!-- G&#45;&gt;motion_gen -->
<g id="edge3" class="edge">
<title>G&#45;&gt;motion_gen</title>
<path fill="none" stroke="#2b4162" d="M358.82,-336.57C370.76,-331.51 382.63,-324.81 392,-316 459.79,-252.28 430.65,-204.58 482,-127 484.25,-123.59 486.82,-120.18 489.49,-116.88"/>
<polygon fill="#2b4162" stroke="#2b4162" points="492.37,-118.9 496.21,-109.02 487.05,-114.35 492.37,-118.9"/>
</g>
<!-- H -->
<g id="node10" class="node">
<title>H</title>
<path fill="none" stroke="black" d="M346,-276C346,-276 264,-276 264,-276 258,-276 252,-270 252,-264 252,-264 252,-252 252,-252 252,-246 258,-240 264,-240 264,-240 346,-240 346,-240 352,-240 358,-246 358,-252 358,-252 358,-264 358,-264 358,-270 352,-276 346,-276"/>
<text text-anchor="middle" x="305" y="-254.9" font-family="Times,serif" font-size="12.00">Release Object</text>
</g>
<!-- G&#45;&gt;H -->
<g id="edge19" class="edge">
<title>G&#45;&gt;H</title>
<path fill="none" stroke="#2b4162" d="M305,-333.7C305,-320.46 305,-301.95 305,-286.66"/>
<polygon fill="#2b4162" stroke="#2b4162" points="308.5,-286.23 305,-276.23 301.5,-286.23 308.5,-286.23"/>
<text text-anchor="middle" x="346.5" y="-308" font-family="Times,serif" font-size="10.00">Object in </text>
<text text-anchor="middle" x="346.5" y="-297" font-family="Times,serif" font-size="10.00"> Placement Pose</text>
</g>
<!-- E&#45;&gt;motion_gen -->
<g id="edge4" class="edge">
<title>E&#45;&gt;motion_gen</title>
<path fill="none" stroke="#2b4162" d="M430.82,-419.02C465.22,-407.7 496,-387.83 496,-353 496,-353 496,-353 496,-163 496,-148.2 499.54,-132.13 503.39,-119.02"/>
<polygon fill="#2b4162" stroke="#2b4162" points="506.8,-119.82 506.48,-109.23 500.13,-117.71 506.8,-119.82"/>
</g>
<!-- E&#45;&gt;G -->
<g id="edge18" class="edge">
<title>E&#45;&gt;G</title>
<path fill="none" stroke="#2b4162" d="M333.08,-416.72C330.42,-407.99 326.88,-397.3 323,-388 321.8,-385.13 320.46,-382.17 319.07,-379.25"/>
<polygon fill="#2b4162" stroke="#2b4162" points="322.14,-377.56 314.53,-370.19 315.88,-380.7 322.14,-377.56"/>
<text text-anchor="middle" x="366" y="-391" font-family="Times,serif" font-size="10.00">Placement Pose</text>
</g>
<!-- P -->
<g id="node8" class="node">
<title>P</title>
<path fill="#76b900" stroke="#76b900" d="M418,-182C418,-182 236,-182 236,-182 230,-182 224,-176 224,-170 224,-170 224,-158 224,-158 224,-152 230,-146 236,-146 236,-146 418,-146 418,-146 424,-146 430,-152 430,-158 430,-158 430,-170 430,-170 430,-176 424,-182 418,-182"/>
<text text-anchor="middle" x="327" y="-160.9" font-family="Times,serif" font-size="12.00" fill="white">Detach Object from Kinematics</text>
</g>
<!-- P&#45;&gt;motion_gen -->
<g id="edge5" class="edge">
<title>P&#45;&gt;motion_gen</title>
<path fill="none" stroke="#2b4162" d="M371.55,-145.99C397.7,-136.01 430.94,-123.32 458.63,-112.76"/>
<polygon fill="#2b4162" stroke="#2b4162" points="460.07,-115.95 468.17,-109.11 457.58,-109.41 460.07,-115.95"/>
</g>
<!-- Q -->
<g id="node13" class="node">
<title>Q</title>
<text text-anchor="middle" x="327" y="-87.9" font-family="Times,serif" font-size="12.00">End</text>
</g>
<!-- P&#45;&gt;Q -->
<g id="edge21" class="edge">
<title>P&#45;&gt;Q</title>
<path fill="none" stroke="#2b4162" d="M327,-145.81C327,-134.24 327,-119.09 327,-107.81"/>
<polygon fill="#2b4162" stroke="#2b4162" points="330.5,-107.78 327,-97.78 323.5,-107.78 330.5,-107.78"/>
</g>
<!-- usd_help&#45;&gt;T -->
<g id="edge22" class="edge">
<title>usd_help&#45;&gt;T</title>
<path fill="none" stroke="#2b4162" d="M80.84,-145.81C83.13,-137.7 85.91,-127.84 88.46,-118.78"/>
<polygon fill="#2b4162" stroke="#2b4162" points="91.86,-119.6 91.2,-109.03 85.12,-117.71 91.86,-119.6"/>
</g>
<!-- H&#45;&gt;Isaac Sim -->
<g id="edge13" class="edge">
<title>H&#45;&gt;Isaac Sim</title>
<path fill="none" stroke="#558c8c" stroke-dasharray="5,2" d="M258.63,-276.07C230.43,-288.45 195.45,-307.67 172,-334 153.38,-354.91 142.22,-385.26 136.14,-407.03"/>
<polygon fill="#558c8c" stroke="#558c8c" points="132.69,-406.39 133.55,-416.95 139.46,-408.16 132.69,-406.39"/>
<text text-anchor="middle" x="207.5" y="-349.5" font-family="Times,serif" font-size="10.00" fill="#558c8c">Open Gripper</text>
</g>
<!-- H&#45;&gt;P -->
<g id="edge20" class="edge">
<title>H&#45;&gt;P</title>
<path fill="none" stroke="#2b4162" d="M309.14,-239.7C312.33,-226.33 316.82,-207.59 320.49,-192.22"/>
<polygon fill="#2b4162" stroke="#2b4162" points="323.96,-192.77 322.88,-182.23 317.15,-191.14 323.96,-192.77"/>
</g>
<!-- D&#45;&gt;Isaac Sim -->
<g id="edge14" class="edge">
<title>D&#45;&gt;Isaac Sim</title>
<path fill="none" stroke="#558c8c" stroke-dasharray="5,2" d="M294.14,-499.92C260.04,-486.64 212.8,-468.24 177.75,-454.59"/>
<polygon fill="#558c8c" stroke="#558c8c" points="178.8,-451.25 168.21,-450.88 176.25,-457.77 178.8,-451.25"/>
<text text-anchor="middle" x="281.5" y="-474" font-family="Times,serif" font-size="10.00" fill="#558c8c">Close Gripper</text>
</g>
<!-- D&#45;&gt;E -->
<g id="edge17" class="edge">
<title>D&#45;&gt;E</title>
<path fill="none" stroke="#2b4162" d="M338,-499.82C338,-489.19 338,-475.31 338,-463.2"/>
<polygon fill="#2b4162" stroke="#2b4162" points="341.5,-463.15 338,-453.15 334.5,-463.15 341.5,-463.15"/>
</g>
<!-- A -->
<g id="node12" class="node">
<title>A</title>
<text text-anchor="middle" x="307" y="-669.4" font-family="Times,serif" font-size="12.00">Start</text>
</g>
<!-- A&#45;&gt;C -->
<g id="edge15" class="edge">
<title>A&#45;&gt;C</title>
<path fill="none" stroke="#2b4162" d="M307,-665.57C307,-657.54 307,-642.68 307,-629.34"/>
<polygon fill="#2b4162" stroke="#2b4162" points="310.5,-629.13 307,-619.13 303.5,-629.13 310.5,-629.13"/>
<text text-anchor="middle" x="336" y="-640" font-family="Times,serif" font-size="10.00">Grasp Pose</text>
</g>
</g>
</svg>
